<svg xmlns="http://www.w3.org/2000/svg" width="90" height="100" viewBox="0 0 99.438 108.346">
    <path id="Path_2" data-name="Path 2" d="M45.494,171.627a7.98,7.98,0,0,1-2.579-5.213l-7.583-86.67a8.009,8.009,0,0,1,7.272-8.667L107.476,65.4c.23-.021.468-.031.706-.031a8,8,0,0,1,7.961,7.3l.668,7.632L84.7,74.065a7.074,7.074,0,0,0-8.145,4.95,8.058,8.058,0,0,0-.551,1.742L62.064,152.482a8.034,8.034,0,0,0-.129,2.08,7.1,7.1,0,0,0,5.728,7.159L105.127,169l-53.545,4.685c-.229.02-.467.031-.706.031A7.971,7.971,0,0,1,45.494,171.627Zm78.858-19.511-45.034-8.754a1.37,1.37,0,0,1-1.085-1.608l8.754-45.036A1.372,1.372,0,0,1,88.6,95.632l45.033,8.754a1.372,1.372,0,0,1,1.085,1.608l-8.754,45.036a1.372,1.372,0,0,1-1.608,1.085ZM81.187,140.931l42.341,8.23,8.231-42.344L89.418,98.587Zm38.881,3.749-34.41-6.688h0a1.269,1.269,0,0,1-.954-.977,1.738,1.738,0,0,1,.32-1.5l17.081-21.331a1.259,1.259,0,0,1,1.205-.5h.006a1.255,1.255,0,0,1,.932.9l4.517,14.531,4.756-5.937a1.259,1.259,0,0,1,1.205-.5,1.165,1.165,0,0,1,.94.9l5.911,19.02a1.738,1.738,0,0,1-.255,1.516,1.31,1.31,0,0,1-1.044.572A1.112,1.112,0,0,1,120.068,144.68ZM88.5,135.466l29.857,5.8-4.441-14.287-4.757,5.937a1.258,1.258,0,0,1-1.2.5h-.006a1.254,1.254,0,0,1-.932-.9L102.5,117.986Zm27.819-15.041a5.465,5.465,0,1,1,5.363-4.42,5.476,5.476,0,0,1-5.363,4.42Zm-2.674-5.981a2.716,2.716,0,1,0,2.669-2.2A2.722,2.722,0,0,0,113.643,114.444Z" transform="translate(-35.302 -65.372)" fill="currentColor"/>
</svg>