<svg xmlns="http://www.w3.org/2000/svg" width="90" height="100" viewBox="0 0 111.158 127.407">
    <path d="M11.75,125.317A7.963,7.963,0,0,1,9.172,120.1L.03,15.6A8.011,8.011,0,0,1,7.3,6.935L86.217.031C86.459.01,86.7,0,86.924,0a8,8,0,0,1,7.96,7.3l.93,10.623L57.537,10.483a8,8,0,0,0-1.524-.146H56a8.009,8.009,0,0,0-7.844,6.475L31.262,103.729a8.01,8.01,0,0,0,6.325,9.38l44.49,8.647-64.238,5.621c-.229.021-.466.031-.706.031A7.964,7.964,0,0,1,11.75,125.317ZM88.618,95.059,88.6,91.687a11.044,11.044,0,0,1-3.454-3.01l-3.344.454L80,83.9l2.911-1.7a11.113,11.113,0,0,1,.875-4.5l-2.061-2.668,3.628-4.173,2.931,1.671a11.025,11.025,0,0,1,4.333-1.5l1.279-3.117,5.428,1.055.021,3.372a11,11,0,0,1,3.454,3.01v0l3.344-.452,1.8,5.229-2.911,1.7a11.113,11.113,0,0,1-.875,4.5L106.217,89l-3.628,4.173L99.658,91.5A11.025,11.025,0,0,1,95.325,93l-1.279,3.117Zm-.076-14.1a5.523,5.523,0,1,0,5.422-4.476A5.529,5.529,0,0,0,88.542,80.961Zm-40.108,3.47L49.49,79l19,3.694-1.055,5.428Zm3.694-19L53.183,60,77.61,64.752l-1.055,5.429Zm3.693-19,1.055-5.429,54.282,10.552L110.1,56.985Z" transform="translate(0)" fill="currentColor" />
</svg>