<svg id="Group_1" data-name="Group 1" xmlns="http://www.w3.org/2000/svg" width="24" height="24" viewBox="0 0 24 24">
    <path d="M0,0H24V24H0Z" fill="none" />
    <path d="M-12001.164,4085.791h0l-.8-.324a7.282,7.282,0,0,1-2.17-1.4h-11.773a1.094,1.094,0,0,1-.781-.338,1.1,1.1,0,0,1-.31-.79c0-.017,0-1.737,0-2.761v-.066a7.079,7.079,0,0,1,1.707-4.562,8.051,8.051,0,0,1,4.361-2.569,4.626,4.626,0,0,1-3.122-5.209,4.893,4.893,0,0,1,1.725-2.714,4.911,4.911,0,0,1,3.034-1.055h.236a4.9,4.9,0,0,1,3.043,1.065,4.906,4.906,0,0,1,1.718,2.735,4.611,4.611,0,0,1-.581,3.191,4.6,4.6,0,0,1-2.539,2.018,7.971,7.971,0,0,1,3.12,1.424l3.122-1.626,5.391,2.647v3.715a6.446,6.446,0,0,1-1.215,3.778,7.051,7.051,0,0,1-3.258,2.5l-.906.342Zm0-11.452-3.887,1.988v2.873a5.269,5.269,0,0,0,3.385,4.833l.481.185.549-.216a5.25,5.25,0,0,0,3.417-4.843v-2.779Zm-.646,6.707a.65.65,0,0,1-.455-.185l-1.045-1.111a.668.668,0,0,1-.153-.491.646.646,0,0,1,.4-.523.651.651,0,0,1,.245-.048.648.648,0,0,1,.405.143l.659.662,2.291-2.291a.633.633,0,0,1,.447-.183.642.642,0,0,1,.451.183.65.65,0,0,1,0,.909l-2.789,2.751A.649.649,0,0,1-12001.81,4081.046Z" transform="translate(12018.002 -4062.999)" fill="currentColor" />
</svg>