<svg xmlns="http://www.w3.org/2000/svg" width="34.869" height="34.988" viewBox="0 0 34.869 34.988">
  <g id="influencer-add-shadow" transform="translate(-942.131 -521.557)">
    <path id="Path_8" data-name="Path 8" d="M11.66,17.228a11.557,11.557,0,0,1,6.124,1.721,11.906,11.906,0,0,0-2.462-.257,11.656,11.656,0,0,0-11.587,10.7L0,29.4C-.014,22.391,5.207,17.242,11.66,17.228Zm6.08,8.54c-.007-4.606,2.782-7.99,6.229-8A5.339,5.339,0,0,1,27.24,18.9c-5.6-.5-7.834,4.373-8.25,6.869ZM4.856,8.665A7.011,7.011,0,0,1,16,1.495c-.22-.015-.439-.03-.666-.03A7.011,7.011,0,0,0,11,13.991,7.013,7.013,0,0,1,4.856,8.665Z" transform="translate(944.26 523.732)" fill="currentColor" opacity="0.204"/>
    <path id="Path_9" data-name="Path 9" d="M21.274,30.829.733,30.865A.734.734,0,0,1,0,30.132,13.044,13.044,0,0,1,3.618,20.9a12.158,12.158,0,0,1,8.775-3.684,12.184,12.184,0,0,1,7.559,2.558,7.25,7.25,0,1,1,1.323,11.051Zm-1.8-6.079A5.75,5.75,0,1,0,25.222,19,5.757,5.757,0,0,0,19.472,24.75ZM4.666,21.929a11.49,11.49,0,0,0-3.179,7.464l18.149-.027a7.236,7.236,0,0,1-.578-8.427,10.756,10.756,0,0,0-6.643-2.246h-.022A10.678,10.678,0,0,0,4.666,21.929ZM24.68,28.139V25.207H21.749V24.035H24.68V21.1h1.173v2.931h2.93v1.172h-2.93v2.931ZM4.658,7.742A7.742,7.742,0,1,1,12.4,15.484,7.742,7.742,0,0,1,4.658,7.742Zm1.465,0A6.277,6.277,0,1,0,12.4,1.465,6.276,6.276,0,0,0,6.124,7.742Z" transform="translate(943.527 523)" fill="currentColor"/>
    <path id="Path_7" data-name="Path 7" d="M0,0H34.869V34.988H0Z" transform="translate(942.131 521.557)" fill="none"/>
  </g>
</svg>
