<svg xmlns="http://www.w3.org/2000/svg" width="24" height="24" viewBox="0 0 24 24">
    <path d="M0,0H24V24H0Z" fill="none" />
    <path d="M-930.521-507.73a2.731,2.731,0,0,1-1.938-.8l-.01-.01-9.724-9.724a2.776,2.776,0,0,1-.811-1.961,2.782,2.782,0,0,1,.811-1.964,2.726,2.726,0,0,1,1.932-.8h.062a2.727,2.727,0,0,1,1.929.8l9.616,9.617a3.048,3.048,0,0,1,.879,2.23,2.66,2.66,0,0,1-.891,1.935,2.76,2.76,0,0,1-1.814.679Zm-8.575-9.34,7.588,7.588a1.422,1.422,0,0,0,1,.41h.022a1.428,1.428,0,0,0,.932-.346,1.322,1.322,0,0,0,.434-.965,1.707,1.707,0,0,0-.488-1.238l-7.469-7.469Zm-1.144-4.571a1.448,1.448,0,0,0-1,.4l0,0a1.43,1.43,0,0,0-.419,1.012,1.435,1.435,0,0,0,.419,1.011l1.194,1.194,2.021-2.023-1.192-1.193a1.409,1.409,0,0,0-.99-.4Zm-2.184,8.309a.675.675,0,0,1-.467-.187.138.138,0,0,1-.025-.031,1.311,1.311,0,0,0-.9-.36h-.012a1.288,1.288,0,0,0-.921.382.659.659,0,0,1-.471.2l-.007-.15h0v.15a.674.674,0,0,1-.472-.193.667.667,0,0,1-.2-.475.672.672,0,0,1,.2-.476,1.3,1.3,0,0,0,.384-.927,1.3,1.3,0,0,0-.383-.926.67.67,0,0,1-.2-.477.668.668,0,0,1,.2-.475.674.674,0,0,1,.473-.2.667.667,0,0,1,.479.2,1.311,1.311,0,0,0,.924.383,1.317,1.317,0,0,0,.929-.383.673.673,0,0,1,.474-.2.668.668,0,0,1,.477.2.669.669,0,0,1,.2.475.671.671,0,0,1-.2.477,1.305,1.305,0,0,0-.384.924,1.3,1.3,0,0,0,.383.928.675.675,0,0,1,.2.477.669.669,0,0,1-.2.475.676.676,0,0,1-.468.194Zm-1.4-1.895c.051,0,.1,0,.155.007-.005-.063-.007-.124-.007-.186s0-.1.005-.155a1.948,1.948,0,0,1-.308,0c0,.05.005.1.005.154s0,.123-.008.185c.05,0,.1,0,.157,0Zm11.219-2.312a.688.688,0,0,1-.469-.186.122.122,0,0,1-.018-.019.676.676,0,0,1-.184-.47.669.669,0,0,1,.194-.473,1.317,1.317,0,0,0,0-1.855.665.665,0,0,1-.194-.474.671.671,0,0,1,.194-.476.686.686,0,0,1,.478-.194.67.67,0,0,1,.473.193,1.308,1.308,0,0,0,.925.386h.012a1.281,1.281,0,0,0,.919-.384.673.673,0,0,1,.474-.2.678.678,0,0,1,.476.193.675.675,0,0,1,0,.952,1.312,1.312,0,0,0-.384.929,1.305,1.305,0,0,0,.383.926.673.673,0,0,1,0,.95.674.674,0,0,1-.471.2.689.689,0,0,1-.479-.191,1.29,1.29,0,0,0-.926-.387h-.007a1.31,1.31,0,0,0-.924.384.678.678,0,0,1-.471.2Zm1.4-1.9c.051,0,.1,0,.155.008-.005-.061-.008-.123-.008-.184s0-.105.005-.158a2.544,2.544,0,0,1-.31,0c0,.052.005.1.006.156s0,.122-.008.183c.053,0,.105-.005.157-.005Zm-13.326-1.608a.675.675,0,0,1-.672-.667v-.009a2.138,2.138,0,0,0-2.134-2.129.675.675,0,0,1-.671-.673.675.675,0,0,1,.67-.672,2.139,2.139,0,0,0,2.136-2.132.676.676,0,0,1,.671-.673.676.676,0,0,1,.672.673,2.138,2.138,0,0,0,2.135,2.132.676.676,0,0,1,.671.671.676.676,0,0,1-.671.674,2.137,2.137,0,0,0-2.135,2.132.675.675,0,0,1-.671.673Zm-.771-3.475a3.465,3.465,0,0,1,.771.771,3.465,3.465,0,0,1,.773-.774,3.463,3.463,0,0,1-.773-.773A3.448,3.448,0,0,1-945.293-524.519Zm7.774,2.772a.665.665,0,0,1-.464-.189.131.131,0,0,1-.024-.031.662.662,0,0,1-.175-.454.666.666,0,0,1,.2-.474,1.315,1.315,0,0,0,0-1.854.665.665,0,0,1-.2-.476.675.675,0,0,1,.2-.473.665.665,0,0,1,.474-.2.672.672,0,0,1,.475.2,1.309,1.309,0,0,0,.921.383h.014a1.3,1.3,0,0,0,.917-.383.676.676,0,0,1,.471-.2h.009a.669.669,0,0,1,.472.2.662.662,0,0,1,.2.474.663.663,0,0,1-.2.476,1.309,1.309,0,0,0-.384.925,1.315,1.315,0,0,0,.384.928.663.663,0,0,1,.2.476.666.666,0,0,1-.2.475.66.66,0,0,1-.47.2l-.008-.15v.15a.672.672,0,0,1-.472-.193,1.308,1.308,0,0,0-.926-.386,1.312,1.312,0,0,0-.928.383.664.664,0,0,1-.472.2Zm1.414-1.893c.052,0,.1,0,.155.007,0-.063-.007-.126-.007-.189s0-.1,0-.153a2.558,2.558,0,0,1-.31,0c0,.05.006.1.006.151s0,.126-.008.189c.053,0,.106-.005.157-.005Z" transform="translate(950.35 530.35)" fill="currentColor" />
</svg>