<svg xmlns="http://www.w3.org/2000/svg" width="24" height="24" viewBox="0 0 24 24">
    <path id="Path_1" data-name="Path 1" d="M0,0H24V24H0Z" fill="none" />
    <path id="Path_4" data-name="Path 4" d="M8.365,20.286A9.309,9.309,0,0,1,2.9,14.82a3.246,3.246,0,0,1,0-6.455A9.309,9.309,0,0,1,8.365,2.9a3.246,3.246,0,0,1,6.455,0,9.309,9.309,0,0,1,5.465,5.466,3.246,3.246,0,0,1,0,6.455,9.311,9.311,0,0,1-5.466,5.465,3.246,3.246,0,0,1-6.455,0Zm1.836-.347a1.391,1.391,0,0,0,2.782.048v-.1a1.391,1.391,0,0,0-2.782.048ZM6.328,16.818a7.393,7.393,0,0,0,2.388,1.614,3.247,3.247,0,0,1,5.751,0,7.444,7.444,0,0,0,3.965-3.963,3.247,3.247,0,0,1,0-5.752,7.447,7.447,0,0,0-3.964-3.964,3.247,3.247,0,0,1-5.752,0A7.444,7.444,0,0,0,4.752,8.716a3.247,3.247,0,0,1,0,5.752A7.427,7.427,0,0,0,6.328,16.818Zm12.22-5.226a1.391,1.391,0,1,0,1.39-1.391A1.392,1.392,0,0,0,18.548,11.592Zm-15.3,1.391a1.391,1.391,0,1,0-1.391-1.391A1.393,1.393,0,0,0,3.246,12.983ZM10.2,3.246a1.391,1.391,0,0,0,2.782.048V3.2a1.391,1.391,0,0,0-2.782.048Z" transform="translate(0.408 0.408)" fill="currentColor" />
</svg>