<svg className="h-auto w-100" xmlns="http://www.w3.org/2000/svg" width="90" height="100" viewBox="0 0 126.337 127.407">
    <path d="M11.751,125.317A7.977,7.977,0,0,1,9.174,120.1L.032,15.6A8,8,0,0,1,7.3,6.935L86.218.031c.234-.02.472-.031.707-.031a8,8,0,0,1,7.96,7.3l.929,10.623-38.276-7.44A8.115,8.115,0,0,0,56,10.337a8.007,8.007,0,0,0-7.843,6.475l-16.9,86.917a8.01,8.01,0,0,0,6.327,9.38l44.487,8.647-64.237,5.62c-.235.021-.472.031-.707.031A7.976,7.976,0,0,1,11.751,125.317Zm99.371-21.875L45.167,90.621a2.008,2.008,0,0,1-1.589-2.355L56.4,22.3a2.009,2.009,0,0,1,2.356-1.589L124.71,33.536a2.009,2.009,0,0,1,1.589,2.355l-12.822,65.962a2.007,2.007,0,0,1-2.355,1.589ZM47.905,87.061l62.011,12.054L121.972,37.1,59.96,25.043Zm58.473,8.23L52.62,84.841h0a2.012,2.012,0,0,1-1.093-3.336L77.138,53.711a2.007,2.007,0,0,1,1.85-.612l.011,0a2.008,2.008,0,0,1,1.488,1.242l7.652,19.642,7.132-7.736a2.008,2.008,0,0,1,1.85-.613,1.868,1.868,0,0,1,1.5,1.246l10.015,25.706a2.01,2.01,0,0,1-2.256,2.7ZM56.921,81.585l46.645,9.068-7.522-19.31-7.131,7.736a2.011,2.011,0,0,1-1.851.612l-.01,0a2.012,2.012,0,0,1-1.488-1.244l-7.652-19.64ZM98.688,60.208a8,8,0,1,1,1.534.148A8.009,8.009,0,0,1,98.688,60.208Zm-2.382-8.614a3.98,3.98,0,1,0,3.91-3.228A3.988,3.988,0,0,0,96.305,51.594Z" transform="translate(0)" fill="currentColor" />
</svg>