<svg xmlns="http://www.w3.org/2000/svg" width="20" height="20" viewBox="0 0 24 24">
    <path d="M0,0H24V24H0Z" fill="none" />
    <path d="M-937.889-504.477h-.006a2.082,2.082,0,0,1-.769-.154,14.856,14.856,0,0,1-6.8-5.517A14.833,14.833,0,0,1-948-518.528v-4.058a2.05,2.05,0,0,1,1.283-1.916l8.041-3.34a2.034,2.034,0,0,1,.79-.159,2,2,0,0,1,.791.162l8.039,3.338a2.046,2.046,0,0,1,1.279,1.914v4.062a14.835,14.835,0,0,1-2.541,8.375,14.857,14.857,0,0,1-6.8,5.519A2.027,2.027,0,0,1-937.889-504.477Zm-.046-16.137a1.176,1.176,0,0,0-1.166,1.169v3.866a1.177,1.177,0,0,0,.348.811l2.553,2.559.008,0a1.148,1.148,0,0,0,.812.333h.007a1.16,1.16,0,0,0,.819-.341,1.148,1.148,0,0,0,.341-.822,1.162,1.162,0,0,0-.341-.821l-2.209-2.209v-3.381a1.176,1.176,0,0,0-1.171-1.167Z" transform="translate(950.205 528.238)" fill="currentColor" />
</svg>