<svg xmlns="http://www.w3.org/2000/svg" width="100.132" height="100.129" viewBox="0 0 100.132 100.129">
  <g id="Group_1" data-name="Group 1" transform="translate(-932.868 -513.001)">
    <circle id="Ellipse_1" data-name="Ellipse 1" cx="50" cy="50" r="50" transform="translate(933 513.129)" fill="#fff"/>
    <path id="Path_2" data-name="Path 2" d="M4598.577-2756.806a49.875,49.875,0,0,1-15.913-10.729,49.884,49.884,0,0,1-10.729-15.916,49.729,49.729,0,0,1-3.936-19.486,49.743,49.743,0,0,1,3.938-19.487,49.852,49.852,0,0,1,10.728-15.915,49.939,49.939,0,0,1,15.915-10.73,49.784,49.784,0,0,1,19.484-3.932,49.782,49.782,0,0,1,19.486,3.935,49.888,49.888,0,0,1,15.913,10.731,49.911,49.911,0,0,1,10.729,15.915,49.719,49.719,0,0,1,3.938,19.484,49.729,49.729,0,0,1-3.937,19.486,49.9,49.9,0,0,1-10.73,15.916,49.854,49.854,0,0,1-15.913,10.729,49.748,49.748,0,0,1-19.485,3.934A49.75,49.75,0,0,1,4598.577-2756.806Zm18.285-76.966-23.2,9.642a3.092,3.092,0,0,0-1.932,2.883v11.713a40.108,40.108,0,0,0,6.841,22.573,40.122,40.122,0,0,0,18.309,14.864,3.143,3.143,0,0,0,1.183.233,3.156,3.156,0,0,0,1.18-.234,40.1,40.1,0,0,0,18.314-14.862,40.1,40.1,0,0,0,6.843-22.573v-11.713a3.1,3.1,0,0,0-1.932-2.884l-23.208-9.641a3.029,3.029,0,0,0-1.2-.244,3.068,3.068,0,0,0-1.2.244Zm3.724,42.862h0l-8.189-8.188a2.542,2.542,0,0,1-.742-1.737v-12.357a2.484,2.484,0,0,1,2.474-2.485,2.484,2.484,0,0,1,1.756.726,2.48,2.48,0,0,1,.728,1.756v11.37l7.451,7.449a2.465,2.465,0,0,1,.722,1.738,2.45,2.45,0,0,1-.722,1.736,2.454,2.454,0,0,1-1.738.721A2.445,2.445,0,0,1,4620.585-2790.91Z" transform="translate(-3635.131 3366)" fill="#fc8d45"/>
  </g>
</svg>
