<svg xmlns="http://www.w3.org/2000/svg" width="20" height="20" viewBox="0 0 24 24">
    <path d="M0,0H24V24H0Z" fill="none" />
    <path d="M10.112,23.524h-.006a2.092,2.092,0,0,1-.769-.154A14.925,14.925,0,0,1,0,9.472V5.415A2.041,2.041,0,0,1,1.283,3.5L9.324.159A2.026,2.026,0,0,1,10.114,0h.006a1.984,1.984,0,0,1,.785.162L18.944,3.5a2.034,2.034,0,0,1,1.279,1.913V9.476a14.764,14.764,0,0,1-2.541,8.375,14.8,14.8,0,0,1-6.8,5.52A2.034,2.034,0,0,1,10.112,23.524ZM7.1,10.741A1.1,1.1,0,0,0,6.395,11a1.121,1.121,0,0,0-.391.76,1.1,1.1,0,0,0,.266.811L8.608,14.9a1.118,1.118,0,0,0,.779.319H9.4a1.091,1.091,0,0,0,.772-.319l4.169-4.175a.965.965,0,0,0,.139-.138,1.105,1.105,0,0,0-.847-1.813,1.1,1.1,0,0,0-.832.38l-3.41,3.406L7.808,11A1.1,1.1,0,0,0,7.1,10.741Z" transform="translate(1.888 0.238)" fill="currentColor" />
</svg>