<svg xmlns="http://www.w3.org/2000/svg" width="100.133" height="100.129" viewBox="0 0 100.133 100.129">
  <g id="Group_1" data-name="Group 1" transform="translate(-933 -513.001)">
    <circle id="Ellipse_1" data-name="Ellipse 1" cx="50" cy="50" r="50" transform="translate(933 513.129)" fill="#fff"/>
    <path id="Path_1" data-name="Path 1" d="M4598.578-2756.805a49.872,49.872,0,0,1-15.913-10.728,49.884,49.884,0,0,1-10.73-15.916,49.731,49.731,0,0,1-3.936-19.486,49.748,49.748,0,0,1,3.938-19.487,49.87,49.87,0,0,1,10.729-15.915,49.927,49.927,0,0,1,15.915-10.731,49.779,49.779,0,0,1,19.483-3.932,49.779,49.779,0,0,1,19.487,3.935,49.892,49.892,0,0,1,15.913,10.731,49.909,49.909,0,0,1,10.729,15.915,49.72,49.72,0,0,1,3.938,19.484,49.728,49.728,0,0,1-3.937,19.486,49.887,49.887,0,0,1-10.73,15.916,49.85,49.85,0,0,1-15.913,10.729,49.744,49.744,0,0,1-19.486,3.934A49.744,49.744,0,0,1,4598.578-2756.805Zm18.284-76.966-23.2,9.642a3.094,3.094,0,0,0-1.932,2.883v11.713a40.117,40.117,0,0,0,6.841,22.572,40.12,40.12,0,0,0,18.311,14.864,3.134,3.134,0,0,0,1.183.233,3.152,3.152,0,0,0,1.18-.233,40.1,40.1,0,0,0,18.314-14.862,40.113,40.113,0,0,0,6.844-22.573v-11.714a3.1,3.1,0,0,0-1.932-2.883l-23.208-9.642a3.039,3.039,0,0,0-1.2-.244,3.074,3.074,0,0,0-1.2.244Zm-1.421,39.824a3.13,3.13,0,0,1-2.2-.9l-6.618-6.6a3.146,3.146,0,0,1-.752-2.3,3.146,3.146,0,0,1,1.112-2.15,3.122,3.122,0,0,1,4,0l4.479,4.438,9.643-9.642a3.1,3.1,0,0,1,4.354-.348,3.129,3.129,0,0,1,.394,4.4,3.058,3.058,0,0,1-.393.395l-11.807,11.8a3.107,3.107,0,0,1-2.2.909Z" transform="translate(-3634.999 3366)" fill="#6ac259"/>
  </g>
</svg>
