<svg xmlns="http://www.w3.org/2000/svg" width="90" height="100" viewBox="0 0 117.586 127.407">
    <path id="Path_1" data-name="Path 1" d="M11.752,125.317A7.978,7.978,0,0,1,9.174,120.1L.031,15.6A8.01,8.01,0,0,1,7.3,6.935L86.218.031c.235-.02.473-.031.707-.031a8,8,0,0,1,7.96,7.3l.93,10.624L57.537,10.485A8.1,8.1,0,0,0,56,10.337a8.008,8.008,0,0,0-7.844,6.476l-16.9,86.917a8.008,8.008,0,0,0,6.327,9.379l44.486,8.647-64.235,5.62c-.234.021-.472.031-.706.031A7.974,7.974,0,0,1,11.752,125.317ZM82.544,102.7,46.32,88.069a4.617,4.617,0,0,1-2.551-6.01L62.076,36.75a2.128,2.128,0,0,1,1.143-1.159l10.827-4.6a2.133,2.133,0,0,1,1.631-.014l30.818,12.451a4.617,4.617,0,0,1,2.549,6.007l-7.437,18.408L96.98,69.813l8.769-21.7a1.066,1.066,0,0,0-.589-1.386L75.194,34.616,72.535,41.2a.709.709,0,0,1-.926.392l-6.583-2.66L47.064,83.39a1.067,1.067,0,0,0,.59,1.387L83.877,99.411a1.066,1.066,0,0,0,1.387-.589l5.053-12.514,4.625-1.966-6.387,15.809a4.613,4.613,0,0,1-6.01,2.551ZM80.791,86.829l-6.208-.384a.287.287,0,0,1-.2-.473L78.42,81.23a3.834,3.834,0,0,1,1.423-1.043l29.78-12.663,2.689,6.346L82.53,86.53a3.833,3.833,0,0,1-1.5.307C80.95,86.837,80.87,86.834,80.791,86.829ZM54.2,78.995l1.065-2.634,17.538,7.086-.582.684a3.133,3.133,0,0,0-.745,1.844Zm3.131-7.738L58.4,68.622,79.62,77.2l-.888.376h.005a6.616,6.616,0,0,0-2.146,1.463Zm3.122-7.739,1.065-2.634,28.959,11.7-3.7,1.571Zm51.073,3.2,1.135-.483h0a3.537,3.537,0,0,1,4.609,1.672,3.449,3.449,0,0,1-1.784,4.617l-1.268.539ZM63.583,55.778l1.064-2.634L93.625,64.852l-1.064,2.634Zm3.126-7.738,1.065-2.634L96.752,57.114l-1.064,2.634Z" transform="translate(0)" fill="currentColor" />
</svg>