<svg xmlns="http://www.w3.org/2000/svg" width="29" height="29" viewBox="0 0 29 29">
  <g id="share-line" transform="translate(-909 -405)">
    <rect id="Rectangle_1" data-name="Rectangle 1" width="29" height="29" transform="translate(909 405)" fill="none"/>
    <path id="Path_1" data-name="Path 1" d="M-20.55-101.133a3.474,3.474,0,0,1-3.469-3.468,5.52,5.52,0,0,1,.14-.979l.019-.077-6.782-3.355-.05.059a5.512,5.512,0,0,1-.632.632,3.421,3.421,0,0,1-2.109.718,3.442,3.442,0,0,1-2.744-1.347,3.44,3.44,0,0,1-.692-2.558,3.438,3.438,0,0,1,1.316-2.3,3.426,3.426,0,0,1,2.114-.723,3.441,3.441,0,0,1,2.742,1.345l.05.065,6.788-3.358-.022-.079a4.112,4.112,0,0,1-.139-.906,3.439,3.439,0,0,1,1.319-2.7,3.467,3.467,0,0,1,2.145-.735,3.488,3.488,0,0,1,2.717,1.291,3.449,3.449,0,0,1,.739,2.545,3.451,3.451,0,0,1-1.294,2.313,3.47,3.47,0,0,1-2.144.735,3.49,3.49,0,0,1-2.717-1.291l-.05-.062-6.792,3.36.03.084a2.668,2.668,0,0,1,0,1.79l-.03.084,6.794,3.361.049-.065a3.4,3.4,0,0,1,2.7-1.318h.007a3.447,3.447,0,0,1,2.453,1.016,3.444,3.444,0,0,1,1.017,2.453A3.474,3.474,0,0,1-20.55-101.133Zm0-5.718a2.245,2.245,0,0,0-2.242,2.243,2.236,2.236,0,0,0,2.142,2.239h0v.006l.1,0h.045a2.214,2.214,0,0,0,1.557-.646,2.213,2.213,0,0,0,.642-1.6A2.244,2.244,0,0,0-20.549-106.851ZM-33.4-113.277a2.245,2.245,0,0,0-2.242,2.243,2.244,2.244,0,0,0,2.242,2.242h.042a2.186,2.186,0,0,0,1.556-.644,2.208,2.208,0,0,0,.644-1.6A2.244,2.244,0,0,0-33.4-113.277Zm12.811-6.422a2.185,2.185,0,0,0-1.555.644,2.21,2.21,0,0,0-.644,1.6,2.244,2.244,0,0,0,2.242,2.24,2.244,2.244,0,0,0,2.242-2.242,2.244,2.244,0,0,0-2.242-2.242h-.042Z" transform="translate(950.899 530.9)" fill="#2b2b2b"/>
  </g>
</svg>
