<svg xmlns="http://www.w3.org/2000/svg" width="980.502" height="42.899" viewBox="0 0 980.502 42.899">
  <g id="Group_12357" data-name="Group 12357" transform="translate(-149.996 -1007.466)">
    <path fill="currentColor" id="Path_5177" data-name="Path 5177" d="M899.8,343.684l-8.671,14.611v9.828c1,2.365,3.522,2.68,5.943,2.785v1.367h-16.98v-1.367c2.421-.11,5.361-.473,6.149-2.049V358.715l-8.83-14.927a6.41,6.41,0,0,0-5.943-3.574v-1.367h14.768v1.367c-2.785.157-3.679.684-4.467,1.314l8.2,14.19,8.042-14.138c-.841-.631-1.945-1.211-4.732-1.367v-1.367h12.613v1.367a6.61,6.61,0,0,0-6.09,3.469Zm17.239,29.064a4.007,4.007,0,0,1-4.31-3.31c-1.787,1.892-4.1,3.31-6.307,3.31-2.838,0-5.256-1.734-5.256-4.732a8.237,8.237,0,0,1,1.1-4.2l10.455-3.785v-3.882c0-2.365-1.1-4.622-3.469-4.622-1.42,0-2.785,1.733-2.891,4.414l-4.732.788V356.2c1.577-4.732,6.781-6.57,9.3-6.57,4.783,0,6.517,2.522,6.465,6.412l-.158,11.036c-.053,2.155,1.1,2.681,2.155,2.681a4.072,4.072,0,0,0,2.681-1.524v1.524c-1.141,1.36-3.19,2.989-5.03,2.989Zm-10.512-8.567a10.108,10.108,0,0,0-.367,2.733c0,1.576.894,3.153,2.628,3.153a5.681,5.681,0,0,0,3.889-1.629l.053-7.1c-1.367.634-4.731,2.1-6.2,2.835Zm16.029,8.093v-1.211c2.365-.158,3.049-.683,3.469-1.577V342.264c0-1.786-.263-2.522-3.889-2.837v-1.051l9.618-2.421.316.894-1.524,1.892v30.746c.526,1.051,1.524,1.42,3.679,1.577v1.211Zm24.281.42c-5.518,0-9.775-4.363-9.775-10.455,0-7.463,4.573-12.562,11.037-12.562,5.2,0,8.093,2.944,8.093,7.621v.946l-14.19-.11a16.932,16.932,0,0,0-.158,2.681c0,5.361,3.364,8.881,7.831,8.881,2.68,0,4.047-.945,6.149-2.733l.788,1.211c-2.99,2.734-5.461,4.526-9.77,4.526Zm.473-21.39c-2.628,0-4.467,2.1-5.1,5.412l9.25-.11c0-2.78-1.733-5.306-4.151-5.306Z" transform="translate(-321.87 674.326)"/>
    <g id="Group_12066" data-name="Group 12066" transform="translate(353.293 1010.281)">
      <path fill="currentColor" id="Path_1610" data-name="Path 1610" d="M80.257,340.2h-3.42L86.87,320.116h3.94L100.844,340.2H97.387l-2.639-5.283H82.9ZM93.5,332.431l-4.683-9.374-4.683,9.374ZM64.6,319.593l2.339-2.747h5.2Zm-6.677,20.65H75.565v-2.281h-14.6v-6.935H71.8v-2.359H60.968v-6.293h14.5V320.14H57.926v20.1ZM33.958,320.119H46.952a6.1,6.1,0,0,1,6.3,5.826h0a5.98,5.98,0,0,1-5,5.7l6.1,8.558H50.774l-6.012-8.432H36.7V340.2H33.958Zm13.141,2.39.182.025.177.035.174.044.171.053.166.062.161.07.157.078.152.086.147.093.141.1.136.106.13.112.124.117.117.122.11.126.1.131.1.135.089.137.082.14.075.143.068.146.061.146.053.147.046.149.039.151.032.152.025.154.018.156.011.158v.323l-.011.158-.018.156-.025.154-.032.152-.039.151-.046.149-.053.147-.061.146-.068.145-.075.143-.082.14-.089.137-.1.135-.1.131-.11.126-.117.122-.124.117-.13.112-.136.106-.141.1-.147.093-.152.086-.157.078-.161.07-.166.062-.171.053-.174.044-.177.035-.182.025-.185.016-.213.006H36.847v-6.916h9.847l.219.006.185.016Zm-30.015-3.567a10.269,10.269,0,1,0,10.27,10.269,10.268,10.268,0,0,0-10.27-10.269Zm0-2.315c-7.415,0-13.429,5.635-13.429,12.583s6.014,12.583,13.429,12.583,13.429-5.635,13.429-12.583-6.013-12.584-13.43-12.584Zm-33.048,23.617v-20.1h2.518v17.9H1.473v2.2Zm118.266,0h17.692v-2.287h-14.92V320.14H102.3v20.1ZM38.789,353.3h-1.5l4.409-7.815h1.731l4.409,7.815H46.317l-1.16-2.056H39.949Zm5.821-3.024-2.058-3.647-2.052,3.65Zm6.08-4.791h5.461a2.488,2.488,0,0,1,2.648,2.267h0a2.394,2.394,0,0,1-2.1,2.218l2.564,3.33h-1.5l-2.527-3.281h-3.1V353.3H50.69v-7.815Zm5.523.93.076.01.075.014.073.017.072.021.07.024.068.027.066.03.064.033.062.036.059.039.057.041.055.044.052.046.049.047.046.049.044.051.041.053.038.053.034.054.032.056.029.057.026.057.022.057.019.058.017.059.014.059.011.06.008.061v.25l-.008.061-.011.06-.014.059-.017.059-.019.058-.022.057-.026.057-.029.057-.032.056-.035.055-.038.053-.041.052-.044.051-.046.049-.049.047-.052.046-.055.044-.057.041-.059.039-.062.036-.064.033-.066.03-.068.027-.07.024-.072.021-.073.017-.075.014-.076.01-.078.006H52.2v-2.691h3.94l.078.006Zm-27.617-.93h5.461a2.487,2.487,0,0,1,2.648,2.267h0a2.205,2.205,0,0,1-1.175,1.881,3.111,3.111,0,0,1-1.522.378c-.281.011-.574.011-.871.007h-3.1V353.3H28.6v-7.815Zm5.523.93.076.01.075.014.073.017.072.021.07.024.068.027.066.03.064.033.062.036.059.039.057.041.055.044.052.046.049.047.046.049.044.051.041.053.038.053.035.054.032.056.029.057.025.057.022.057.02.058.016.059.014.059.011.06.008.061v.25l-.008.061-.011.06-.014.059-.016.059-.02.058-.022.057-.026.057-.029.057-.032.056-.035.055-.038.053-.041.052-.044.051-.046.049-.049.047-.052.046-.055.044-.057.041-.059.039-.062.036-.064.033-.066.03-.068.027-.07.024-.072.021-.073.017-.075.014-.076.01-.078.006H30.1v-2.691h3.94l.078.006Zm33.4,4.374,1.326-.085a1.8,1.8,0,0,0,.438.962,2.426,2.426,0,0,0,1.068.608,5.33,5.33,0,0,0,1.63.231,5.213,5.213,0,0,0,1.42-.175,2.074,2.074,0,0,0,.917-.482.944.944,0,0,0,.3-.67.853.853,0,0,0-.292-.642,2.289,2.289,0,0,0-.955-.46c-.287-.082-.915-.209-1.892-.382a12.3,12.3,0,0,1-2.05-.488,2.793,2.793,0,0,1-1.135-.728,1.458,1.458,0,0,1-.371-.973,1.635,1.635,0,0,1,.455-1.1,2.84,2.84,0,0,1,1.333-.782,6.733,6.733,0,0,1,1.949-.266,7.024,7.024,0,0,1,2.085.28,3,3,0,0,1,1.387.822,1.977,1.977,0,0,1,.522,1.232l-1.348.075a1.5,1.5,0,0,0-.737-1.119,3.626,3.626,0,0,0-1.85-.378,3.818,3.818,0,0,0-1.86.344.983.983,0,0,0-.584.828.806.806,0,0,0,.413.693,6.892,6.892,0,0,0,2.119.557,18.236,18.236,0,0,1,2.352.5,3.268,3.268,0,0,1,1.37.8,1.6,1.6,0,0,1,.44,1.112,1.749,1.749,0,0,1-.485,1.175,3.169,3.169,0,0,1-1.4.859,6.4,6.4,0,0,1-2.045.306,8.039,8.039,0,0,1-2.416-.309,3.353,3.353,0,0,1-1.531-.93,2.172,2.172,0,0,1-.581-1.4ZM62.772,353.3v-5.52h1.416v5.52Zm0-6.353v-1.462h1.416v1.462ZM-3.665,327.183H-1.34l3.488-6.9H-.811l-2.853,6.9Z" transform="translate(15.965 -316.626)" fill-rule="evenodd"/>
    </g>
    <g id="Group_936" data-name="Group 936" transform="translate(692.086 1010.281)">
      <path fill="currentColor" id="Path_1611" data-name="Path 1611" d="M860.664-188.144c-.348.233-.682.476-1.033.69a10.2,10.2,0,0,1-6.371,1.486,10.186,10.186,0,0,1-5.345-2.078.214.214,0,0,0-.157-.069.214.214,0,0,0-.157.069,10.065,10.065,0,0,1-5.139,2.061,10.257,10.257,0,0,1-7.364-2c-.067-.049-.133-.1-.2-.146a.216.216,0,0,0-.045-.017c-.25.175-.5.359-.756.528a10.238,10.238,0,0,1-6.408,1.673,10.385,10.385,0,0,1-9.437-8.18,10.364,10.364,0,0,1,7.921-12.335,10.151,10.151,0,0,1,8.5,1.855.252.252,0,0,0,.183.079.252.252,0,0,0,.183-.079,10.225,10.225,0,0,1,7.409-2.044,10.062,10.062,0,0,1,5.141,2.055.224.224,0,0,0,.166.073.224.224,0,0,0,.166-.073,10.358,10.358,0,0,1,12.516-.036.3.3,0,0,0,.217.092.3.3,0,0,0,.216-.092,10.232,10.232,0,0,1,7.375-2.023,10.407,10.407,0,0,1,9.011,8.089,10.378,10.378,0,0,1-5.816,11.691,10.093,10.093,0,0,1-5.241.907,10.272,10.272,0,0,1-5.437-2.117C860.73-188.1,860.694-188.125,860.664-188.144Zm-27.517-14.629a7.977,7.977,0,0,0-10.669,1.057,8.022,8.022,0,0,0,.516,11.326,7.978,7.978,0,0,0,10.144.52,10.461,10.461,0,0,1,.009-12.9Zm29.227,0a10.483,10.483,0,0,1,0,12.91,7.968,7.968,0,0,0,10.3-.674,8,8,0,0,0,2.46-5.632,8,8,0,0,0-2.26-5.715,7.965,7.965,0,0,0-10.5-.891Zm-3.427,12.907a10.356,10.356,0,0,1-2.234-6.451,10.291,10.291,0,0,1,2.234-6.45,7.938,7.938,0,0,0-9.443-.027c2.963,4.323,2.95,8.627,0,12.952a7.928,7.928,0,0,0,9.442-.026Zm-12.9-.008a10.3,10.3,0,0,1-2.23-6.439,10.243,10.243,0,0,1,2.236-6.453,7.852,7.852,0,0,0-5.4-1.548,7.8,7.8,0,0,0-4.052,1.507c2.975,4.35,2.959,8.654.006,12.969a7.924,7.924,0,0,0,9.437-.038Zm14.612-11.19a7.912,7.912,0,0,0,.006,9.482,7.955,7.955,0,0,0-.009-9.483Zm-25.8,9.493a7.912,7.912,0,0,0-.007-9.482,7.955,7.955,0,0,0,.007,9.481Zm12.9-9.482a7.914,7.914,0,0,0,0,9.471,7.914,7.914,0,0,0,0-9.472Z" transform="translate(-818.016 206.719)"/>
      <path fill="currentColor" id="Path_1612" data-name="Path 1612" d="M992.4,418.07l-1.084-1.287c.092-.008.147-.017.2-.017h3.63a.3.3,0,0,1,.281.157q3.478,5.225,6.961,10.446a1.989,1.989,0,0,1,.1.177c-.091.005-.157.012-.222.012h-3.3a.312.312,0,0,1-.309-.176c-.324-.542-.657-1.079-.99-1.624h-6.888c-.345.573-.682,1.138-1.027,1.7a.226.226,0,0,1-.162.093c-1.154.005-2.309,0-3.517,0Zm1.8,2.02-2.174,3.6H996.4Z" transform="translate(-979.135 -391.014)"/>
      <path fill="currentColor" id="Path_1613" data-name="Path 1613" d="M1640.9,419.865l-2.725-3.016c.1-.011.146-.021.2-.021h3.363a.4.4,0,0,1,.273.127c.938,1.178,1.882,2.351,2.791,3.551a8.668,8.668,0,0,1,.912,1.49,3.75,3.75,0,0,1-1.654,4.969,7.884,7.884,0,0,1-2.934.839,10.2,10.2,0,0,1-4.181-.371,4.587,4.587,0,0,1-2.408-1.612,3.543,3.543,0,0,1,.845-5.117,6.64,6.64,0,0,1,3.018-1.077,4.978,4.978,0,0,1,2.044.083C1640.6,419.761,1640.763,419.819,1640.9,419.865Zm-1.1,5.958a3.652,3.652,0,0,0,2.414-.677,1.812,1.812,0,0,0,.755-1.51,1.938,1.938,0,0,0-.929-1.548,3.254,3.254,0,0,0-1.7-.552,3.61,3.61,0,0,0-2.613.663,1.78,1.78,0,0,0,.01,2.975,3.552,3.552,0,0,0,2.069.649Z" transform="translate(-1600.107 -391.076)"/>
      <path fill="currentColor" id="Path_1614" data-name="Path 1614" d="M1369.418,489.877c.083,0,.151-.01.218-.01h2.743c.165,0,.227.036.225.215q-.018,1.835-.014,3.67a5.629,5.629,0,0,0,.065.862,1.349,1.349,0,0,0,1.021,1.17,2.581,2.581,0,0,0,1.774-.091,1.28,1.28,0,0,0,.843-1.19c.028-.858.036-1.717.045-2.575.007-.673,0-1.346,0-2.038h3.143c0,.065.013.125.013.184v4.268a3.049,3.049,0,0,1-.779,2.2,3.831,3.831,0,0,1-2.061,1.139,9.98,9.98,0,0,1-4.773-.114,4.056,4.056,0,0,1-.56-.208,2.983,2.983,0,0,1-1.911-2.852c-.018-1.5-.005-3.01-.005-4.515a1.039,1.039,0,0,1,.013-.115Z" transform="translate(-1346.63 -461.096)"/>
      <path fill="currentColor" id="Path_1615" data-name="Path 1615" d="M1956.586,495.273h-3.222v-7.866h3.222Z" transform="translate(-1906.478 -458.742)"/>
    </g>
    <g id="ikea" transform="translate(150 1007.466)">
      <path fill="currentColor" id="Path_1" data-name="Path 1" d="M-329.571-566.168H-450V-609h120.433v42.831Zm-60.046-41.082a159.061,159.061,0,0,0-24.124,1.65A95.886,95.886,0,0,0-437-599.215a29.311,29.311,0,0,0-7.363,4.431c-2.688,2.311-4.052,4.733-4.052,7.2s1.362,4.887,4.047,7.2A29.229,29.229,0,0,0-437-575.955a95.91,95.91,0,0,0,23.261,6.385,159.043,159.043,0,0,0,24.12,1.651,155.754,155.754,0,0,0,24.062-1.7,100.221,100.221,0,0,0,23.224-6.34,26.549,26.549,0,0,0,7.382-4.352c2.514-2.206,3.789-4.655,3.789-7.278s-1.276-5.072-3.794-7.279a26.634,26.634,0,0,0-7.377-4.351,100.219,100.219,0,0,0-23.224-6.34A155.753,155.753,0,0,0-389.617-607.251Z" transform="translate(450 609)"/>
      <path fill="currentColor" id="Path_2" data-name="Path 2" d="M-376.483-592.711H-386a1.99,1.99,0,0,0,.471-.727l5.075-13.69a3.152,3.152,0,0,0,.229-1.049,1.915,1.915,0,0,0-.229-.822h15.384a2.046,2.046,0,0,0-.24.835,2.7,2.7,0,0,0,.24,1.036l5.6,13.69a1.724,1.724,0,0,0,.511.726l-11.883,0a1.636,1.636,0,0,0,.135-.619.927.927,0,0,0-.055-.336l-.889-2.3h-4.131l-.822,2.436a.91.91,0,0,0-.041.269,1.153,1.153,0,0,0,.162.552Zm2.651-9.141h0l-.889,2.6h1.844l-.955-2.6Zm-49.356,9.14h0l-11.271,0a1.467,1.467,0,0,0,.607-1.05v-14.171a1.5,1.5,0,0,0-.607-1.065h11.272a1.423,1.423,0,0,0-.607,1.064v4.9l3.272-4.9a.97.97,0,0,0,.175-.512,1.387,1.387,0,0,0-.175-.553h11.119a3.212,3.212,0,0,0-1.184,1.063l-3.9,5.667,5.385,8.507a2.9,2.9,0,0,0,1.153,1.048l-12.948,0a.855.855,0,0,0,.215-.443,1.231,1.231,0,0,0-.215-.607l-2.894-4.927v4.926a1.422,1.422,0,0,0,.607,1.05Zm-15.281,0H-450a1.446,1.446,0,0,0,.591-1.049v-14.188A1.422,1.422,0,0,0-450-609l11.534,0a1.4,1.4,0,0,0-.606,1.05v14.188a1.421,1.421,0,0,0,.6,1.048Zm50.759,0h-18.669a1.413,1.413,0,0,0,.619-1.037v-14.2a1.415,1.415,0,0,0-.619-1.05h18.669v5.047a1.864,1.864,0,0,0-1.009-.35H-396.1v1.063h5.586a1.764,1.764,0,0,0,1.024-.348v5.061a1.873,1.873,0,0,0-1.024-.349H-396.1v.915h7.377a1.98,1.98,0,0,0,1.009-.336v5.584Z" transform="translate(466.829 622.001)"/>
    </g>
    <g id="Group_12344" data-name="Group 12344" transform="translate(805.466 1010.281)">
      <path fill="currentColor" id="Path_15700" data-name="Path 15700" d="M-41.269-12.344a1.748,1.748,0,0,0,1.426-.718,3.417,3.417,0,0,0,.568-2.147,4.008,4.008,0,0,0-.252-1.5,1.738,1.738,0,0,0-1.742-1.2,1.737,1.737,0,0,0-1.742,1.273,5.044,5.044,0,0,0-.252,1.729,3.665,3.665,0,0,0,.252,1.436,1.737,1.737,0,0,0,1.742,1.127Zm-3.172-6.432h1.191v.967a2.974,2.974,0,0,1,.8-.769,2.585,2.585,0,0,1,1.457-.408,2.739,2.739,0,0,1,2.1.949,3.89,3.89,0,0,1,.864,2.712,4.165,4.165,0,0,1-1.246,3.4,2.814,2.814,0,0,1-1.838.647,2.494,2.494,0,0,1-1.382-.361,3.183,3.183,0,0,1-.728-.7v3.723H-44.44Zm11.093-.2a3.325,3.325,0,0,1,1.5.364,2.774,2.774,0,0,1,1.109.943,3.252,3.252,0,0,1,.49,1.286,8.417,8.417,0,0,1,.109,1.606h-5.343A3.118,3.118,0,0,0-34.959-13a1.755,1.755,0,0,0,1.518.67,1.962,1.962,0,0,0,1.531-.633,2.134,2.134,0,0,0,.463-.851h1.2a2.537,2.537,0,0,1-.316.9,3.183,3.183,0,0,1-.6.807,2.855,2.855,0,0,1-1.382.735,4.2,4.2,0,0,1-1,.109,3.07,3.07,0,0,1-2.307-.99,3.853,3.853,0,0,1-.946-2.774,4.19,4.19,0,0,1,.953-2.852,3.144,3.144,0,0,1,2.5-1.1ZM-31.4-15.75a3.174,3.174,0,0,0-.347-1.273,1.779,1.779,0,0,0-1.681-.885,1.864,1.864,0,0,0-1.416.609,2.3,2.3,0,0,0-.606,1.548Zm5.865,3.437a1.69,1.69,0,0,0,1.671-.922,4.6,4.6,0,0,0,.453-2.052,3.654,3.654,0,0,0-.327-1.661,1.838,1.838,0,0,0-1.783-1.007,1.759,1.759,0,0,0-1.634.858,3.975,3.975,0,0,0-.51,2.069,3.458,3.458,0,0,0,.51,1.94,1.8,1.8,0,0,0,1.621.778Zm.048-6.711a3.3,3.3,0,0,1,2.382.939,3.668,3.668,0,0,1,.973,2.763,4.741,4.741,0,0,1-.858,2.913,3.1,3.1,0,0,1-2.661,1.15,3,3,0,0,1-2.389-1.018A4.019,4.019,0,0,1-28.919-15a4.348,4.348,0,0,1,.932-2.927,3.129,3.129,0,0,1,2.505-1.094Zm8.1,6.677a1.748,1.748,0,0,0,1.426-.718,3.417,3.417,0,0,0,.568-2.147,4.008,4.008,0,0,0-.252-1.5,1.738,1.738,0,0,0-1.742-1.2,1.737,1.737,0,0,0-1.742,1.273,5.044,5.044,0,0,0-.252,1.729,3.665,3.665,0,0,0,.252,1.436,1.737,1.737,0,0,0,1.74,1.13Zm-3.172-6.432h1.191v.967a2.974,2.974,0,0,1,.8-.769,2.585,2.585,0,0,1,1.457-.408,2.739,2.739,0,0,1,2.1.949,3.89,3.89,0,0,1,.864,2.712,4.165,4.165,0,0,1-1.246,3.4,2.814,2.814,0,0,1-1.838.647,2.5,2.5,0,0,1-1.382-.361,3.184,3.184,0,0,1-.728-.7v3.723h-1.225Zm8.091-2.743h1.225v10h-1.225Zm6.308,2.546a3.325,3.325,0,0,1,1.5.364,2.774,2.774,0,0,1,1.109.943,3.252,3.252,0,0,1,.49,1.286,8.416,8.416,0,0,1,.109,1.606H-8.288A3.118,3.118,0,0,0-7.764-13a1.755,1.755,0,0,0,1.518.67,1.962,1.962,0,0,0,1.531-.633,2.134,2.134,0,0,0,.463-.851h1.2a2.537,2.537,0,0,1-.316.9,3.183,3.183,0,0,1-.6.807,2.855,2.855,0,0,1-1.382.735,4.2,4.2,0,0,1-1,.109,3.07,3.07,0,0,1-2.307-.99A3.853,3.853,0,0,1-9.6-15.025a4.19,4.19,0,0,1,.953-2.852,3.144,3.144,0,0,1,2.49-1.1ZM-4.2-15.747a3.174,3.174,0,0,0-.347-1.273,1.779,1.779,0,0,0-1.685-.88,1.864,1.864,0,0,0-1.416.609,2.3,2.3,0,0,0-.606,1.548Z" transform="translate(76.296 48.692)"/>
      <g id="Havas">
        <g id="Group_12341" data-name="Group 12341">
          <path fill="currentColor" id="Path_15692" data-name="Path 15692" d="M44,110.733h7.62V95.4H44Z" transform="translate(-44 -72.446)" fill-rule="evenodd"/>
          <path fill="currentColor" id="Path_15693" data-name="Path 15693" d="M44,61.333h7.62V46H44Z" transform="translate(-44 -46)" fill-rule="evenodd"/>
          <path fill="currentColor" id="Path_15694" data-name="Path 15694" d="M44,79v7.667H59.194V102h7.62V79Z" transform="translate(-44 -63.667)" fill-rule="evenodd"/>
          <path fill="currentColor" id="Path_15695" data-name="Path 15695" d="M109.8,79h1.255v4.042h.046a2.566,2.566,0,0,1,2.416-1.3c2,0,2.6,1.162,2.6,2.788V89.6h-1.255V84.4a1.439,1.439,0,0,0-1.533-1.533,2.162,2.162,0,0,0-2.277,2.416V89.6H109.8Z" transform="translate(-79.226 -63.667)" fill-rule="evenodd"/>
          <path fill="currentColor" id="Path_15696" data-name="Path 15696" d="M131.311,88.757a5.89,5.89,0,0,1-2.277.511c-.836.139-1.533.465-1.533,1.394,0,.836.7,1.115,1.487,1.115,1.673,0,2.323-1.022,2.323-1.719Zm2.044,3.95a1.661,1.661,0,0,1-.883.186c-.651,0-1.069-.372-1.069-1.208a3.348,3.348,0,0,1-2.7,1.208c-1.394,0-2.509-.6-2.509-2.137,0-1.719,1.3-2.091,2.6-2.37,1.394-.279,2.556-.186,2.556-1.115,0-1.115-.883-1.255-1.673-1.255-1.069,0-1.859.325-1.9,1.44h-1.255c.093-1.9,1.533-2.556,3.206-2.556,1.394,0,2.881.325,2.881,2.091v3.95c0,.6,0,.836.418.836a.625.625,0,0,0,.372-.093Z" transform="translate(-88.006 -66.825)" fill-rule="evenodd"/>
          <path fill="currentColor" id="Path_15697" data-name="Path 15697" d="M145.782,92.967h-1.347L141.6,85.3h1.394l2.137,6.412h.046l2.091-6.412h1.3Z" transform="translate(-96.25 -67.039)" fill-rule="evenodd"/>
          <path fill="currentColor" id="Path_15698" data-name="Path 15698" d="M162.511,88.757a5.891,5.891,0,0,1-2.277.511c-.836.139-1.533.465-1.533,1.394,0,.836.7,1.115,1.487,1.115,1.673,0,2.323-1.022,2.323-1.719Zm2.044,3.95a1.661,1.661,0,0,1-.883.186c-.65,0-1.069-.372-1.069-1.208a3.348,3.348,0,0,1-2.7,1.208c-1.394,0-2.509-.6-2.509-2.137,0-1.719,1.3-2.091,2.6-2.37,1.394-.279,2.556-.186,2.556-1.115,0-1.115-.883-1.255-1.673-1.255-1.069,0-1.859.325-1.9,1.44h-1.3c.093-1.9,1.533-2.556,3.206-2.556,1.347,0,2.881.325,2.881,2.091v3.95c0,.6,0,.836.418.836a.625.625,0,0,0,.372-.093Z" transform="translate(-104.709 -66.825)" fill-rule="evenodd"/>
        </g>
        <g id="Group_12342" data-name="Group 12342" transform="translate(60.451 18.028)">
          <path fill="currentColor" id="Path_15699" data-name="Path 15699" d="M175.355,90.283c.046,1.115,1.022,1.487,2.044,1.487.79,0,1.859-.186,1.859-1.162s-1.255-1.162-2.509-1.44-2.509-.7-2.509-2.184c0-1.533,1.533-2.184,2.834-2.184,1.673,0,3.02.511,3.113,2.416h-1.255c-.093-.976-.929-1.3-1.766-1.3-.743,0-1.626.186-1.626.976,0,.883,1.347,1.069,2.509,1.347,1.255.279,2.509.7,2.509,2.184,0,1.812-1.673,2.416-3.253,2.416-1.719,0-3.16-.7-3.206-2.6h1.255Z" transform="translate(-174.1 -84.8)" fill-rule="evenodd"/>
        </g>
      </g>
    </g>
    <g id="Group_12345" data-name="Group 12345" transform="translate(920.333 1010.281)">
      <path fill="currentColor" id="Path_15701" data-name="Path 15701" d="M1678.358,2500.613v-6.518h1.429v6.518Zm8.737,0-3.156-4.142v4.145h-1.411v-6.52h1.318l3.044,4.014V2494.1h1.411v6.518Zm6.348-5.2v5.2h-1.429v-5.2h-1.978v-1.322h5.384v1.322Zm3.708,5.2v-6.518h4.9v1.274h-3.489v1.3h3.063v1.275h-3.063v1.4h3.528v1.275Zm11.259,0-1.4-2.085h-1.123v2.087h-1.429v-6.52h2.964c1.532,0,2.451.81,2.451,2.151v.018a2.024,2.024,0,0,1-1.392,2.021l1.588,2.328Zm.029-4.293c0-.62-.426-.932-1.122-.932H1705.9v1.872h1.442c.7,0,1.1-.372,1.1-.921Zm8.359,4.293-3.147-4.144v4.144h-1.411v-6.518h1.318l3.044,4.014v-4.014h1.411v6.518Zm8.342,0-.593-1.463h-2.754l-.593,1.463h-1.458l2.785-6.565h1.318l2.785,6.565Zm-1.973-4.841-.863,2.114h1.726Zm7.209-.353v5.2h-1.429v-5.2h-1.978V2494.1h5.384v1.322Zm3.86,5.2v-6.52h1.429v6.518Zm7.114.111a3.335,3.335,0,0,1-3.444-3.353v-.018a3.454,3.454,0,0,1,6.906-.019v.019a3.365,3.365,0,0,1-3.46,3.375Zm1.967-3.371a1.979,1.979,0,0,0-1.906-2.048h-.061a1.948,1.948,0,0,0-1.951,2.031v.019a1.979,1.979,0,0,0,1.906,2.048h.061a1.948,1.948,0,0,0,1.951-2.031Zm8.389,3.258-3.147-4.144v4.144h-1.4V2494.1h1.318l3.044,4.014V2494.1h1.411v6.518Zm8.342,0-.593-1.463h-2.742l-.594,1.463h-1.458l2.785-6.565h1.318l2.785,6.565Zm-1.957-4.841-.863,2.114h1.726Zm5.073,4.843v-6.52h1.43v5.214h3.24v1.3Z" transform="translate(-1655.927 -2460.651)"/>
      <path fill="currentColor" id="Path_15702" data-name="Path 15702" d="M67.3,12.624a5.637,5.637,0,0,0-2.455-.645,3.537,3.537,0,0,0-2.931,1.653V26.92H56.73V8.3h4.75l.3,1.95A4.676,4.676,0,0,1,65.673,7.9a5.238,5.238,0,0,1,1.631.283v4.446ZM79.6,8.178a5.241,5.241,0,0,0-1.631-.283,4.684,4.684,0,0,0-3.893,2.351l-.3-1.95h-4.75V26.922H74.21V13.632a3.523,3.523,0,0,1,2.931-1.653,5.637,5.637,0,0,1,2.455.645ZM53.55,13.642v13.28H48.8l-.3-1.942a6.451,6.451,0,0,1-5,2.343,4.992,4.992,0,0,1-5.013-5.332c0-6.59,7.749-7.518,9.887-7.735v-.529c0-1.078-.9-2.2-3.3-2.2a8.64,8.64,0,0,0-4.828,1.653V9.341A14.643,14.643,0,0,1,46.724,7.9c4.77,0,6.83,2.18,6.83,5.747ZM48.369,17.9c-1.648,0-4.657.568-4.657,3.175a2.117,2.117,0,0,0,2.033,2.273c1.471,0,2.624-1.058,2.624-3.44ZM19.918,2.774l4.661,10.032L22.75,16.731,14.974,0,9.051,2.767l4.657,10.018c-.365.781-.95,2.051-1.9,4.074-2.13,4.568-3.778,5.847-6.7,5.847a7.277,7.277,0,0,1-2.352-.436L0,28.207a11.916,11.916,0,0,0,4.412.919c3.454,0,5.992-2.252,8.2-7l2.719-5.847,4.943,10.648h7.209L24.36,20.213l1.829-3.925,4.943,10.648H38.34L25.842,0ZM123.427,8.3V2.135L118.243,4.56V8.3h-1.66v3.239h1.662V26.924h5.184V11.535h2.628V8.3ZM81.544,26.924h5.184V8.3H81.544ZM112.418,2.133l-5.184,2.425V8.3h-1.662v3.239h1.662V26.922h5.184V11.535h2.63V8.3h-2.63ZM104.36,16.076V19.14c0,4.44-2.163,8.185-7.475,8.185S89.41,23.606,89.41,19.14V16.078c0-4.458,2.163-8.185,7.475-8.185s7.475,3.746,7.475,8.185Zm-5.226-.738c0-2.227-.54-3.807-2.249-3.807s-2.249,1.58-2.249,3.807v4.545c0,2.227.529,3.807,2.249,3.807s2.249-1.58,2.249-3.807Z" transform="translate(0 0.003)"/>
    </g>
    <g id="Group_12346" data-name="Group 12346" transform="translate(1092.101 1010.281)">
      <path fill="currentColor" id="path5" d="M19.192,0C18.254.2,10,1.281,8.972,1.795c-.237.474-.732,1.954-.889,2.188-.663.143-3.352.654-3.521.752a10.575,10.575,0,0,1-.855,1.641,29.929,29.929,0,0,0-3.555.872C-.037,8.386-.76,19.768,3.98,27.21s13.03,12.4,15.211,12.87h.017C21.39,39.6,29.663,34.651,34.4,27.209S38.439,8.385,38.249,7.247a30.008,30.008,0,0,0-3.555-.872,10.622,10.622,0,0,1-.855-1.641c-.168-.1-2.856-.61-3.521-.752-.157-.234-.651-1.713-.889-2.188C28.406,1.283,20.143.2,19.192,0Zm0,2.9c.813.174,7.875,1.118,8.751,1.555.2.405.619,1.663.752,1.863.567.121,2.881.549,3.025.632a9.217,9.217,0,0,0,.718,1.419,25.823,25.823,0,0,1,3.042.735c.162.972.77,10.7-3.281,17.057S21.074,36.766,19.21,37.173h-.017c-1.864-.4-8.938-4.646-12.989-11.007S2.76,10.082,2.922,9.11a25.741,25.741,0,0,1,3.042-.735,9.217,9.217,0,0,0,.718-1.419c.144-.084,2.441-.511,3.008-.632.134-.2.567-1.458.769-1.863.878-.439,7.932-1.385,8.734-1.555Z"/>
      <path fill="currentColor" id="path9" d="M185.877,55.533a.3.3,0,0,0-.308.291c-.055,9.1-.029,18.762-.1,28.115.06.3.532-.159.8-.308,3.453-1.9,14.224-12.33,8.033-16.066,4.741-3.1,3.9-6.058,1.795-7.674a24.814,24.814,0,0,0-9.879-4.324A.951.951,0,0,0,185.877,55.533Zm2.888,3.743a19.95,19.95,0,0,1,4.375,2.034c1.746,1.19,1.155,2.334.137,3.025a47.138,47.138,0,0,1-4.546,2.974C188.718,66.835,188.716,61.488,188.765,59.276Zm2.547,10.408a1.42,1.42,0,0,1,1.008.41c.236.226,1.278,1.349-.94,4.563a20.8,20.8,0,0,1-2.752,3.469c-.024.007-.033-.03-.051-.017.018-1.045-.01-6.1.051-7.52a6.051,6.051,0,0,1,2.684-.9Z" transform="translate(-165.385 -49.517)"/>
      <path fill="currentColor" id="path15" d="M56.23,58.643a33.1,33.1,0,0,0-2.945,1.9A32.194,32.194,0,0,0,55.913,73a13.293,13.293,0,0,0,.874,1.593c.6,1.044.638.961,1.342-.038.487-.659,1.19-1.636,1.366-1.838.243.81,1.813,5.862,4.021,8.916.979,1.355,2.482,2.634,2.476,2.107-.06-5.159-.208-27.491-.046-28.4a13.236,13.236,0,0,0-3.211.482c-.035.817.294,16.129.091,17.87-1.5-3.647-2.008-13.27-1.712-17.241a11.709,11.709,0,0,0-3.069,1.238c-.364.729.133,8.725.65,11.409-.177.278-.686,1.034-.767,1.156C56.9,68.412,55.925,62.712,56.23,58.643Z" transform="translate(-47.511 -49.349)"/>
    </g>
  </g>
</svg>
