<svg xmlns="http://www.w3.org/2000/svg" width="69" height="69" viewBox="0 0 69 69">
                <g id="Group_10690" data-name="Group 10690" transform="translate(1073 18010)">
                    <rect id="Rectangle_3863" data-name="Rectangle 3863" width="69" height="69" transform="translate(-1073 -18010)" fill="none" />
                    <g id="Group_10683" data-name="Group 10683" transform="translate(57 -103)">
                        <path id="Path_14365" data-name="Path 14365" d="M28.006,282h-19V255h19v27Zm20-2h-19V255h19v25Zm-40,0h-19V255h19v25Zm42.5-11a1.5,1.5,0,1,1,1.5-1.5A1.5,1.5,0,0,1,50.5,269Zm-.226-2.2a.123.123,0,0,0-.079.032.105.105,0,0,0-.031.077.107.107,0,0,0,.031.077l.582.584-.582.578a.112.112,0,0,0-.023.123.115.115,0,0,0,.1.068.1.1,0,0,0,.077-.037l.66-.657a.115.115,0,0,0,0-.158l-.66-.656A.113.113,0,0,0,50.278,266.807ZM-13.489,269A1.511,1.511,0,0,1-15,267.493,1.5,1.5,0,0,1-13.489,266,1.494,1.494,0,0,1-12,267.493,1.5,1.5,0,0,1-13.489,269Zm.22-2.188a.11.11,0,0,0-.075.023l-.655.657a.137.137,0,0,0,0,.164l.655.656a.177.177,0,0,0,.072.039.129.129,0,0,0,.11-.077.151.151,0,0,0-.018-.125l-.582-.563.582-.586a.139.139,0,0,0,0-.165A.177.177,0,0,0-13.269,266.812Z" transform="translate(-1114.006 -18141)" fill="currentColor" />
                    </g>
                </g>
            </svg>