<svg xmlns="http://www.w3.org/2000/svg" width="105.451" height="59.534" viewBox="0 0 105.451 59.534">
  <g id="squarespace-logo-stacked-white" transform="translate(-75.38 -51.88)">
    <g id="Group-31" transform="translate(75.38 51.88)">
      <path id="Fill-1" d="M185.813,73.31l15.216-15.216a5.489,5.489,0,0,1,7.751,0l1.183,1.187,2.373-2.37-1.187-1.187a8.84,8.84,0,0,0-12.494,0L183.44,70.94Z" transform="translate(-147.119 -52.716)" fill="#fff"/>
      <path id="Fill-3" d="M191.089,62.283l-2.373-2.373L173.5,75.113a5.479,5.479,0,1,1-7.751-7.731L178.881,54.25l-2.373-2.37L163.379,65.006A8.834,8.834,0,0,0,175.873,77.5Z" transform="translate(-132.083 -51.88)" fill="#fff"/>
      <path id="Fill-5" d="M241.27,85.833a8.847,8.847,0,0,0-12.49,0l-15.22,15.22,2.373,2.353,15.213-15.2A5.482,5.482,0,0,1,238.9,95.96l-13.132,13.129,2.373,2.373L241.27,98.326a8.843,8.843,0,0,0,0-12.494" transform="translate(-167.115 -72.707)" fill="#fff"/>
      <path id="Fill-7" d="M221.607,105.88l-15.22,15.22a5.489,5.489,0,0,1-7.748,0l-1.187-1.187-2.373,2.373,1.187,1.183a8.84,8.84,0,0,0,12.494,0l15.2-15.216Z" transform="translate(-154.846 -87.729)" fill="#fff"/>
      <path id="Fill-9" d="M77.01,204.352a1.8,1.8,0,0,0,.672,1.129,2.3,2.3,0,0,0,1.422.41,2.017,2.017,0,0,0,1.344-.4,1.3,1.3,0,0,0,.477-1.055,1.076,1.076,0,0,0-.128-.541,1.116,1.116,0,0,0-.356-.376,2.181,2.181,0,0,0-.561-.259c-.222-.071-.471-.148-.75-.229l-.719-.2a6.666,6.666,0,0,1-1.143-.424,3.521,3.521,0,0,1-.867-.581,2.286,2.286,0,0,1-.551-.77,2.534,2.534,0,0,1-.185-1.008,2.6,2.6,0,0,1,.239-1.113,2.517,2.517,0,0,1,.672-.867,3.291,3.291,0,0,1,1.072-.568,4.51,4.51,0,0,1,1.418-.208,3.647,3.647,0,0,1,2.353.7,2.76,2.76,0,0,1,1.008,1.879l-1.6.134a1.62,1.62,0,0,0-.588-.938,2.017,2.017,0,0,0-1.23-.336,1.785,1.785,0,0,0-1.153.336,1.089,1.089,0,0,0-.413.877,1.008,1.008,0,0,0,.121.514,1.143,1.143,0,0,0,.336.363,2.667,2.667,0,0,0,.555.272c.218.081.467.165.743.255l.672.212a11.825,11.825,0,0,1,1.156.424,3.414,3.414,0,0,1,.877.528,2.05,2.05,0,0,1,.555.736,2.531,2.531,0,0,1,.195,1.055,2.78,2.78,0,0,1-.269,1.223,2.689,2.689,0,0,1-.746.945,3.51,3.51,0,0,1-1.146.6,4.769,4.769,0,0,1-1.462.215,4.208,4.208,0,0,1-2.43-.689,3.025,3.025,0,0,1-1.217-2.1Z" transform="translate(-75.38 -148.411)" fill="#fff"/>
      <path id="Fill-11" d="M107.917,198.831a3.005,3.005,0,0,0-1.291.266,2.783,2.783,0,0,0-.961.743,3.318,3.318,0,0,0-.6,1.119,4.615,4.615,0,0,0-.208,1.408,4.46,4.46,0,0,0,.215,1.415,3.442,3.442,0,0,0,.608,1.136,2.81,2.81,0,0,0,.961.753,2.914,2.914,0,0,0,1.294.276,3.025,3.025,0,0,0,1.287-.262,2.689,2.689,0,0,0,.965-.726,3.311,3.311,0,0,0,.608-1.129,4.705,4.705,0,0,0,.215-1.449,4.629,4.629,0,0,0-.212-1.425,3.294,3.294,0,0,0-.608-1.119,2.75,2.75,0,0,0-.971-.736,3.025,3.025,0,0,0-1.3-.266m0-1.445a5.149,5.149,0,0,1,1.976.366,4.333,4.333,0,0,1,1.526,1.032,4.625,4.625,0,0,1,.978,1.583,5.691,5.691,0,0,1,.336,2.017,5.465,5.465,0,0,1-.366,2.054,4.565,4.565,0,0,1-1.052,1.587l1.284,1.509v.477h-1.63l-.9-1.1a5.011,5.011,0,0,1-1.008.336,5.231,5.231,0,0,1-1.153.121,5.167,5.167,0,0,1-2-.37,4.286,4.286,0,0,1-1.513-1.029,4.645,4.645,0,0,1-.965-1.58,6.1,6.1,0,0,1,0-4.013,4.6,4.6,0,0,1,.971-1.576,4.41,4.41,0,0,1,1.519-1.039,5.042,5.042,0,0,1,1.973-.373" transform="translate(-93.783 -148.48)" fill="#fff"/>
      <path id="Fill-13" d="M143.176,206.38a2.06,2.06,0,0,0,1.607-.635,2.828,2.828,0,0,0,.575-1.946V197.94h1.681v5.9a5.284,5.284,0,0,1-.266,1.785,3.123,3.123,0,0,1-.763,1.217,3,3,0,0,1-1.217.7,6.05,6.05,0,0,1-3.244,0,3,3,0,0,1-1.21-.7,3.086,3.086,0,0,1-.763-1.217,5.278,5.278,0,0,1-.269-1.785v-5.9h1.681V203.8a2.828,2.828,0,0,0,.575,1.946,2.05,2.05,0,0,0,1.6.635" transform="translate(-117.819 -148.846)" fill="#fff"/>
      <path id="Fill-15" d="M170.535,203.355h3.183l-.521-1.523c-.205-.6-.37-1.086-.494-1.459s-.239-.706-.336-1.008h-.413l-.161.457-.182.508c-.067.188-.141.4-.218.642s-.182.521-.3.844Zm-3.025,3.721,3.408-9.136h2.528l3.361,9.136v.467H175.15l-.965-2.743h-4.165l-.965,2.743H167.5Z" transform="translate(-136.537 -148.846)" fill="#fff"/>
      <path id="Fill-17" d="M203.177,202.33h1.459a2.817,2.817,0,0,0,1.519-.353,1.25,1.25,0,0,0,.555-1.146,1.186,1.186,0,0,0-.561-1.126,3.075,3.075,0,0,0-1.513-.336h-1.459Zm5.633,5.217h-1.62l-2.928-3.771h-1.086v3.771H201.52V197.94h3.116a9.282,9.282,0,0,1,1.4.1,2.827,2.827,0,0,1,1.2.461,2.514,2.514,0,0,1,1.136,2.259,3.105,3.105,0,0,1-.192,1.143,2.588,2.588,0,0,1-1.257,1.385,3.992,3.992,0,0,1-.877.336l2.77,3.465Z" transform="translate(-159.122 -148.846)" fill="#fff"/>
      <path id="Fill-19" d="M229.49,197.94h6.222v1.469h-4.575v2.514h4.252v1.445h-4.252v2.7h4.669v1.472H229.49Z" transform="translate(-177.69 -148.846)" fill="#fff"/>
      <path id="Fill-21" d="M256.107,204.352a1.808,1.808,0,0,0,.689,1.129,2.306,2.306,0,0,0,1.425.41,2.017,2.017,0,0,0,1.344-.4,1.311,1.311,0,0,0,.474-1.055,1.076,1.076,0,0,0-.128-.541,1.139,1.139,0,0,0-.353-.376,2.236,2.236,0,0,0-.561-.259c-.225-.071-.474-.148-.75-.229l-.723-.2a6.626,6.626,0,0,1-1.15-.423,3.542,3.542,0,0,1-.871-.582,2.232,2.232,0,0,1-.548-.77,2.733,2.733,0,0,1,.054-2.121,2.44,2.44,0,0,1,.672-.867,3.238,3.238,0,0,1,1.069-.568,4.528,4.528,0,0,1,1.418-.208,3.644,3.644,0,0,1,2.353.7,2.763,2.763,0,0,1,1.008,1.879l-1.607.134a1.6,1.6,0,0,0-.588-.938,2.017,2.017,0,0,0-1.23-.336,1.768,1.768,0,0,0-1.15.336,1.082,1.082,0,0,0-.417.877,1.008,1.008,0,0,0,.121.514,1.119,1.119,0,0,0,.336.363,2.665,2.665,0,0,0,.555.272c.218.081.464.165.743.255l.672.212a12.152,12.152,0,0,1,1.156.424,3.391,3.391,0,0,1,.874.528,2.1,2.1,0,0,1,.558.736,2.589,2.589,0,0,1,.192,1.055,2.777,2.777,0,0,1-.266,1.223,2.689,2.689,0,0,1-.75.945,3.526,3.526,0,0,1-1.143.6,4.806,4.806,0,0,1-1.466.215,4.191,4.191,0,0,1-2.474-.7,3.025,3.025,0,0,1-1.22-2.1Z" transform="translate(-194.247 -148.411)" fill="#fff"/>
      <path id="Fill-23" d="M285.231,202.4h1.6a4.032,4.032,0,0,0,.81-.074,1.852,1.852,0,0,0,.642-.245,1.193,1.193,0,0,0,.43-.464,1.543,1.543,0,0,0,.151-.716,1.613,1.613,0,0,0-.151-.736,1.223,1.223,0,0,0-.424-.471,1.859,1.859,0,0,0-.635-.245,4.223,4.223,0,0,0-.8-.074h-1.63Zm-1.681-4.467h3.512a5.125,5.125,0,0,1,1.64.225,2.817,2.817,0,0,1,1.069.629,2.353,2.353,0,0,1,.588.945,3.647,3.647,0,0,1,.181,1.17,3.18,3.18,0,0,1-.249,1.3,2.352,2.352,0,0,1-.716.918,3.243,3.243,0,0,1-1.136.545,5.794,5.794,0,0,1-1.513.182h-1.7v3.7H283.55Z" transform="translate(-213.58 -148.843)" fill="#fff"/>
      <path id="Fill-25" d="M308.7,203.355h3.173l-.524-1.523c-.205-.6-.37-1.086-.494-1.459l-.336-1.008H310.1l-.161.457c-.05.151-.111.319-.178.508s-.141.4-.222.642-.178.521-.292.844Zm-3.025,3.721,3.412-9.136h2.528l3.361,9.136v.467h-1.66l-.961-2.743h-4.161l-.961,2.743H305.66Z" transform="translate(-228.258 -148.846)" fill="#fff"/>
      <path id="Fill-27" d="M345.9,204.674a4.846,4.846,0,0,1-.595,1.059,3.973,3.973,0,0,1-.891.867,4.219,4.219,0,0,1-1.21.585,5.063,5.063,0,0,1-1.529.218,4.9,4.9,0,0,1-1.946-.376,4.371,4.371,0,0,1-1.5-1.035,4.633,4.633,0,0,1-.958-1.58,6.05,6.05,0,0,1,0-3.973,4.588,4.588,0,0,1,.965-1.583,4.474,4.474,0,0,1,1.5-1.052,4.888,4.888,0,0,1,1.96-.38,4.514,4.514,0,0,1,2.639.736,3.946,3.946,0,0,1,1.506,1.953l-1.7.336a2.81,2.81,0,0,0-.971-1.156,2.6,2.6,0,0,0-1.5-.42,2.827,2.827,0,0,0-1.264.272,2.689,2.689,0,0,0-.938.753,3.362,3.362,0,0,0-.581,1.133,4.707,4.707,0,0,0-.2,1.4,4.617,4.617,0,0,0,.208,1.408,3.318,3.318,0,0,0,.6,1.119,2.823,2.823,0,0,0,.955.739,3.026,3.026,0,0,0,1.284.266,2.518,2.518,0,0,0,1.546-.454,3.224,3.224,0,0,0,.945-1.113Z" transform="translate(-249.026 -148.502)" fill="#fff"/>
      <path id="Fill-29" d="M370.33,197.94h6.218v1.469h-4.575v2.514h4.255v1.445h-4.255v2.7h4.669v1.472H370.33Z" transform="translate(-271.191 -148.846)" fill="#fff"/>
    </g>
  </g>
</svg>
