<?xml version="1.0" encoding="utf-8"?>
<!-- Generator: Adobe Illustrator 16.0.0, SVG Export Plug-In . SVG Version: 6.00 Build 0)  -->
<!DOCTYPE svg PUBLIC "-//W3C//DTD SVG 1.1//EN" "http://www.w3.org/Graphics/SVG/1.1/DTD/svg11.dtd">
<svg version="1.1" id="Layer_1" xmlns="http://www.w3.org/2000/svg" xmlns:xlink="http://www.w3.org/1999/xlink" x="0px" y="0px"
	 width="1105.795px" height="47.105px" viewBox="0 0 1105.795 47.105" enable-background="new 0 0 1105.795 47.105"
	 xml:space="preserve">
<g id="Group_6552" transform="translate(-473 -1376)">
	<g id="Group_6503" transform="translate(473 1376)">
		
			<rect id="Rectangle_2343" x="3.27" y="28.051" transform="matrix(0.7071 0.7071 -0.7071 0.7071 28.6856 2.6341)" fill="#2B2B2B" width="15.786" height="15.785"/>
		<g id="Group_6502" transform="translate(0 0)">
			<path id="Rectangle_2342" fill="#2B2B2B" d="M1093.635,38.339H12.163c-0.553,0-1-0.447-1-1v-2.792c0-0.552,0.447-1,1-1h1081.472
				c0.552,0,1,0.448,1,1v2.792C1094.635,37.891,1094.187,38.339,1093.635,38.339z"/>
			
				<rect id="Rectangle_2345" x="1086.742" y="28.051" transform="matrix(0.7071 0.7071 -0.7071 0.7071 346.062 -763.5287)" fill="#2B2B2B" width="15.785" height="15.784"/>
		</g>
	</g>
	<path id="Rectangle_2342-2" fill="#2B2B2B" d="M1405.269,1380.792H647.287c-0.553,0-1-0.447-1-1V1377c0-0.552,0.447-1,1-1h757.981
		c0.553,0,1,0.448,1,1v2.792C1406.269,1380.344,1405.821,1380.792,1405.269,1380.792z"/>
</g>
</svg>
