<svg width="247" height="37" viewBox="0 0 247 37" fill="none" xmlns="http://www.w3.org/2000/svg"><g clip-path="url(#clip0_0_1)"><path d="M13.981 32.711C11.2159 32.7108 8.51294 31.8907 6.21393 30.3544C3.91492 28.8181 2.1231 26.6345 1.06503 24.0799C0.00696695 21.5252 -0.269819 18.7142 0.269673 16.0022C0.809164 13.2903 2.14071 10.7992 4.09592 8.84397C6.05114 6.88875 8.54222 5.55721 11.2542 5.01772C13.9661 4.47823 16.7772 4.75501 19.3318 5.81308C21.8865 6.87114 24.07 8.66297 25.6063 10.962C27.1427 13.261 27.9628 15.9639 27.963 18.729C27.9569 22.4354 26.4818 25.9883 23.861 28.6091C21.2402 31.2299 17.6874 32.7049 13.981 32.711ZM13.981 5.87503C11.4387 5.87523 8.95365 6.62927 6.83996 8.04181C4.72626 9.45434 3.07888 11.4619 2.10615 13.8107C1.13341 16.1595 0.879003 18.744 1.37509 21.2373C1.87118 23.7307 3.09548 26.021 4.89319 27.8185C6.69089 29.6161 8.98126 30.8402 11.4747 31.3361C13.9681 31.832 16.5525 31.5774 18.9012 30.6045C21.2499 29.6316 23.2574 27.984 24.6698 25.8702C26.0821 23.7564 26.836 21.2713 26.836 18.729C26.836 17.0409 26.5035 15.3694 25.8574 13.8098C25.2114 12.2502 24.2645 10.8331 23.0708 9.63952C21.8771 8.44591 20.4599 7.49911 18.9003 6.8532C17.3407 6.20728 15.6691 5.8749 13.981 5.87503Z" fill="#1E1E2D"></path><path d="M13.9621 6.39014C11.5215 6.39014 9.13564 7.11386 7.10634 8.4698C5.07704 9.82574 3.49539 11.753 2.5614 14.0078C1.62742 16.2627 1.38304 18.7438 1.85919 21.1376C2.33533 23.5313 3.5106 25.7301 5.23638 27.4558C6.96216 29.1816 9.16094 30.3569 11.5547 30.833C13.9484 31.3092 16.4295 31.0648 18.6844 30.1308C20.9392 29.1968 22.8665 27.6152 24.2224 25.5859C25.5783 23.5566 26.3021 21.1708 26.3021 18.7301C26.3021 17.1096 25.9829 15.505 25.3627 14.0078C24.7426 12.5107 23.8336 11.1503 22.6878 10.0044C21.5419 8.85856 20.1815 7.9496 18.6844 7.32946C17.1872 6.70932 15.5826 6.39014 13.9621 6.39014ZM17.8971 19.2241L10.2641 25.9481V19.2241H5.14208V13.7071H22.8221V19.2241H17.8971Z" fill="#1E1E2D"></path><path d="M43.1499 24.88C43.3111 25.036 43.4381 25.2237 43.5232 25.4313C43.6082 25.6389 43.6493 25.8618 43.6439 26.086V26.126C43.6417 26.5713 43.4642 26.9977 43.1499 27.313C42.9985 27.4763 42.8148 27.6063 42.6104 27.6948C42.4061 27.7833 42.1856 27.8283 41.9629 27.827H40.4799C39.7851 27.835 39.0959 27.7025 38.4535 27.4375C37.8112 27.1725 37.229 26.7805 36.7419 26.285C36.2449 25.8031 35.8517 25.2247 35.5864 24.5854C35.3211 23.946 35.1892 23.2592 35.1989 22.567V11.037H33.2989C32.8538 11.0341 32.4276 10.8567 32.1119 10.543C31.9511 10.3908 31.824 10.2064 31.7389 10.002C31.6538 9.79749 31.6126 9.57743 31.6179 9.35602V9.31602C31.6201 8.8652 31.7972 8.43284 32.1119 8.11002C32.2628 7.94605 32.4464 7.81557 32.6508 7.72703C32.8553 7.63849 33.0761 7.59386 33.2989 7.59602H35.1989V1.68302C35.2011 1.2322 35.3782 0.799844 35.6929 0.477019C35.8459 0.317542 36.031 0.192307 36.2359 0.10957C36.4409 0.0268334 36.661 -0.0115264 36.8819 -0.00298078H36.9409C37.1631 -0.00664638 37.3838 0.0344891 37.5898 0.117972C37.7958 0.201454 37.9829 0.325573 38.1398 0.482923C38.2968 0.640273 38.4205 0.827631 38.5035 1.03382C38.5865 1.24 38.6271 1.4608 38.6229 1.68302V7.51502H38.7609V7.57402H41.9609C42.1834 7.57404 42.4035 7.61967 42.6076 7.70807C42.8118 7.79647 42.9957 7.92578 43.1479 8.08802C43.3077 8.24507 43.4338 8.43296 43.5188 8.64028C43.6037 8.8476 43.6456 9.07001 43.6419 9.29402V9.33402C43.6397 9.77925 43.4622 10.2057 43.1479 10.521C42.9956 10.6819 42.8113 10.8089 42.6068 10.894C42.4024 10.9791 42.1823 11.0204 41.9609 11.015H38.7609V11.097H38.6229V22.527C38.6182 22.7665 38.6632 23.0043 38.7552 23.2255C38.8471 23.4467 38.9839 23.6464 39.1569 23.812C39.3256 23.9879 39.5282 24.1277 39.7525 24.2229C39.9769 24.3181 40.2182 24.3668 40.4619 24.366H41.9449C42.3957 24.3883 42.8235 24.5713 43.1509 24.882L43.1499 24.88Z" fill="#1E1E2D"></path><path d="M52.2079 9.39589C49.7614 9.38259 47.4098 10.3416 45.6705 12.0621C43.9311 13.7825 42.9464 16.1234 42.9329 18.5699V18.6699C42.9314 19.8764 43.1722 21.0708 43.6411 22.1825C44.1099 23.2942 44.7972 24.3003 45.6623 25.1414C46.5273 25.9824 47.5523 26.6412 48.6767 27.0786C49.8011 27.516 51.0019 27.7232 52.2079 27.6879C54.1869 27.7779 56.1276 27.1216 57.6459 25.8489C57.6705 26.3154 57.8617 26.7575 58.1846 27.095C58.5076 27.4324 58.9409 27.6428 59.4059 27.6879C59.6395 27.6958 59.8724 27.6576 60.0912 27.5754C60.3101 27.4933 60.5106 27.3689 60.6814 27.2093C60.8522 27.0496 60.9898 26.8579 61.0865 26.6451C61.1832 26.4323 61.237 26.2025 61.2449 25.9689V18.6509C61.2744 17.4458 61.0624 16.247 60.6214 15.1251C60.1804 14.0032 59.5194 12.9809 58.6772 12.1185C57.8351 11.256 56.8288 10.5708 55.7178 10.1032C54.6067 9.63562 53.4133 9.39513 52.2079 9.39589ZM52.2079 24.0889C51.4756 24.1096 50.7466 23.9851 50.0628 23.7224C49.3789 23.4597 48.754 23.0641 48.224 22.5584C47.6939 22.0528 47.2694 21.4471 46.9748 20.7764C46.6803 20.1057 46.5216 19.3833 46.5079 18.6509C46.5265 17.145 47.1331 15.706 48.198 14.641C49.2629 13.5761 50.7019 12.9696 52.2079 12.9509C52.9403 12.9685 53.6622 13.1304 54.332 13.4273C55.0019 13.7241 55.6067 14.1501 56.1117 14.6809C56.6168 15.2117 57.0123 15.8369 57.2755 16.5207C57.5388 17.2045 57.6646 17.9334 57.6459 18.6659C57.6595 19.383 57.5281 20.0954 57.2594 20.7604C56.9907 21.4254 56.5904 22.0292 56.0824 22.5356C55.5745 23.042 54.9694 23.4404 54.3036 23.707C53.6378 23.9736 52.9249 24.1028 52.2079 24.0869V24.0889Z" fill="#1E1E2D"></path><path d="M72.655 9.31714C70.2109 9.31714 67.8669 10.2881 66.1386 12.0163C64.4104 13.7445 63.4395 16.0885 63.4395 18.5326C63.4395 20.9767 64.4104 23.3207 66.1386 25.049C67.8669 26.7772 70.2109 27.7481 72.655 27.7481C74.6684 27.7224 76.6216 27.057 78.232 25.8481V27.8671C78.2061 29.1219 77.7589 30.3315 76.9625 31.3014C76.166 32.2713 75.0665 32.9451 73.8407 33.2145C72.6149 33.4839 71.3342 33.3332 70.2044 32.7866C69.0746 32.2401 68.1615 31.3294 67.6119 30.2011C67.3907 29.7771 67.0135 29.4555 66.5598 29.3042C66.1061 29.1529 65.6114 29.1837 65.18 29.3901C64.9649 29.4924 64.772 29.6361 64.6125 29.813C64.4529 29.9898 64.3298 30.1964 64.2502 30.4209C64.1705 30.6453 64.1358 30.8833 64.1481 31.1211C64.1605 31.359 64.2195 31.5921 64.322 31.8071V31.8231C65.239 33.6931 66.7622 35.1976 68.6433 36.0915C70.5245 36.9854 72.6529 37.2161 74.6819 36.7461C76.711 36.276 78.5211 35.1329 79.8176 33.5029C81.1141 31.8729 81.8206 29.8519 81.822 27.7691V18.5521C81.8313 16.1137 80.8721 13.7713 79.1553 12.0397C77.4384 10.308 75.1044 9.32878 72.666 9.31714H72.655ZM72.655 24.0891C71.5519 24.0891 70.4737 23.7621 69.5565 23.1492C68.6394 22.5364 67.9246 21.6654 67.5025 20.6464C67.0804 19.6273 66.9699 18.506 67.1851 17.4241C67.4003 16.3423 67.9315 15.3486 68.7114 14.5686C69.4914 13.7886 70.4851 13.2575 71.5669 13.0423C72.6488 12.8271 73.7701 12.9376 74.7892 13.3597C75.8082 13.7818 76.6792 14.4966 77.2921 15.4137C77.9049 16.3309 78.232 17.4091 78.232 18.5121C78.232 19.9913 77.6444 21.4098 76.5985 22.4557C75.5526 23.5016 74.1341 24.0891 72.655 24.0891Z" fill="#1E1E2D"></path><path d="M93.2419 9.31714C90.7977 9.31714 88.4538 10.2881 86.7255 12.0163C84.9973 13.7445 84.0264 16.0885 84.0264 18.5326C84.0264 20.9767 84.9973 23.3207 86.7255 25.049C88.4538 26.7772 90.7977 27.7481 93.2419 27.7481C95.2549 27.7202 97.2074 27.055 98.8188 25.8481V27.8671C98.793 29.1219 98.3459 30.3315 97.5494 31.3014C96.7529 32.2713 95.6533 32.9451 94.4276 33.2145C93.2018 33.4839 91.9211 33.3332 90.7913 32.7866C89.6616 32.2401 88.7484 31.3294 88.1989 30.2011C87.9776 29.7771 87.6004 29.4555 87.1467 29.3042C86.693 29.1529 86.1983 29.1837 85.7669 29.3901C85.3353 29.5917 85.0011 29.9561 84.8377 30.4035C84.6742 30.8509 84.6948 31.3449 84.8949 31.7771L84.9169 31.8221C85.6722 33.3793 86.8533 34.6906 88.3234 35.604C89.7934 36.5175 91.4922 36.9956 93.2229 36.9831C95.6639 36.9737 98.0023 35.9997 99.7284 34.2737C101.454 32.5476 102.428 30.2092 102.438 27.7681V18.5521C102.434 16.1107 101.465 13.7698 99.7427 12.0398C98.0201 10.3098 95.6832 9.33113 93.2419 9.31714ZM93.2419 24.0891C92.1388 24.0891 91.0606 23.7621 90.1434 23.1492C89.2263 22.5364 88.5115 21.6654 88.0894 20.6464C87.6673 19.6273 87.5568 18.506 87.772 17.4241C87.9872 16.3423 88.5184 15.3486 89.2983 14.5686C90.0783 13.7886 91.072 13.2575 92.1538 13.0423C93.2357 12.8271 94.357 12.9376 95.3761 13.3597C96.3952 13.7818 97.2662 14.4966 97.879 15.4137C98.4918 16.3309 98.8188 17.4091 98.8188 18.5121C98.8188 19.9913 98.2313 21.4098 97.1854 22.4557C96.1395 23.5016 94.721 24.0891 93.2419 24.0891Z" fill="#1E1E2D"></path><path d="M113.709 9.25797C111.697 9.25507 109.74 9.90767 108.132 11.117V1.97697C108.132 1.49441 107.94 1.03161 107.599 0.69039C107.258 0.349167 106.795 0.157471 106.312 0.157471C105.83 0.157471 105.367 0.349167 105.026 0.69039C104.685 1.03161 104.493 1.49441 104.493 1.97697V18.45C104.48 19.6669 104.708 20.8744 105.164 22.0026C105.621 23.1308 106.297 24.1572 107.152 25.0226C108.008 25.888 109.027 26.5752 110.15 27.0443C111.273 27.5135 112.477 27.7553 113.694 27.7558C114.911 27.7564 116.116 27.5156 117.24 27.0474C118.363 26.5792 119.383 25.893 120.239 25.0283C121.096 24.1637 121.772 23.1378 122.229 22.01C122.687 20.8822 122.916 19.6749 122.904 18.458C122.915 17.2604 122.69 16.0725 122.242 14.962C121.793 13.8515 121.131 12.8402 120.291 11.9858C119.452 11.1315 118.453 10.4508 117.351 9.98277C116.248 9.51472 115.065 9.26843 113.867 9.25797C113.814 9.25301 113.762 9.25301 113.709 9.25797ZM113.709 24.03C112.232 24.0284 110.816 23.4402 109.772 22.3948C108.728 21.3494 108.142 19.9322 108.143 18.455C108.144 16.9777 108.731 15.5612 109.776 14.5169C110.821 13.4726 112.238 12.886 113.715 12.886C115.192 12.886 116.609 13.4726 117.654 14.5169C118.699 15.5612 119.286 16.9777 119.287 18.455C119.288 19.9322 118.702 21.3494 117.658 22.3948C116.614 23.4402 115.198 24.0284 113.721 24.03H113.709Z" fill="#1E1E2D"></path><path d="M134.276 9.31714C132.453 9.31714 130.672 9.85759 129.156 10.8701C127.641 11.8827 126.46 13.3219 125.762 15.0057C125.065 16.6895 124.883 18.5424 125.238 20.3299C125.594 22.1174 126.471 23.7594 127.76 25.0481C129.049 26.3369 130.691 27.2145 132.478 27.5701C134.266 27.9256 136.119 27.7431 137.802 27.0457C139.486 26.3482 140.925 25.1671 141.938 23.6517C142.951 22.1363 143.491 20.3547 143.491 18.5321C143.489 16.0888 142.517 13.7462 140.79 12.0185C139.062 10.2908 136.719 9.31926 134.276 9.31714ZM134.276 24.0891C133.173 24.0891 132.095 23.7621 131.178 23.1492C130.26 22.5364 129.546 21.6654 129.124 20.6464C128.701 19.6273 128.591 18.506 128.806 17.4241C129.021 16.3423 129.553 15.3486 130.332 14.5686C131.112 13.7886 132.106 13.2575 133.188 13.0423C134.27 12.8271 135.391 12.9376 136.41 13.3597C137.429 13.7818 138.3 14.4966 138.913 15.4137C139.526 16.3309 139.853 17.4091 139.853 18.5121C139.853 19.9913 139.265 21.4098 138.22 22.4557C137.174 23.5016 135.755 24.0891 134.276 24.0891Z" fill="#1E1E2D"></path><path d="M155.06 18.537L159.905 12.248C160.052 12.0573 160.16 11.8396 160.223 11.6073C160.286 11.3749 160.302 11.1324 160.271 10.8937C160.241 10.6549 160.163 10.4246 160.043 10.2158C159.923 10.0071 159.764 9.82396 159.573 9.67695C159.395 9.53263 159.189 9.42494 158.969 9.36003C158.749 9.29513 158.519 9.2743 158.29 9.29873C158.062 9.32316 157.841 9.39238 157.64 9.50241C157.438 9.61244 157.261 9.76113 157.117 9.93995C157.099 9.96395 157.079 9.98695 157.062 10.013L152.768 15.546L148.477 10.009C148.196 9.63 147.775 9.37834 147.308 9.30933C146.841 9.24032 146.366 9.35961 145.987 9.64095L145.945 9.67295C145.753 9.81873 145.592 10.0011 145.47 10.2095C145.349 10.4179 145.27 10.6482 145.239 10.8872C145.207 11.1262 145.223 11.3692 145.285 11.602C145.348 11.8349 145.456 12.053 145.603 12.244L150.448 18.533L145.603 24.822C145.458 25.0055 145.351 25.2157 145.287 25.4407C145.224 25.6656 145.205 25.9009 145.233 26.133C145.26 26.3652 145.333 26.5897 145.447 26.7937C145.561 26.9977 145.714 27.1772 145.898 27.322L145.94 27.354C146.121 27.5017 146.33 27.6122 146.555 27.6791C146.779 27.746 147.014 27.7681 147.247 27.7441C147.479 27.72 147.705 27.6503 147.911 27.5389C148.117 27.4275 148.299 27.2767 148.446 27.095C148.456 27.095 148.464 27.073 148.474 27.061L152.765 21.524L157.056 27.061C157.227 27.2751 157.443 27.4483 157.69 27.568C157.936 27.6878 158.206 27.7509 158.48 27.753C158.878 27.7494 159.262 27.608 159.568 27.353C159.756 27.2136 159.915 27.0385 160.035 26.8378C160.155 26.6371 160.234 26.4147 160.269 26.1832C160.303 25.9518 160.291 25.7159 160.234 25.489C160.177 25.2621 160.076 25.0487 159.936 24.861L159.904 24.821L155.06 18.537Z" fill="#1E1E2D"></path><path d="M172.28 26.24C171.32 26.24 170.47 26.065 169.73 25.715C168.99 25.355 168.41 24.86 167.99 24.23C167.58 23.6 167.375 22.88 167.375 22.07V15.065C167.375 14.835 167.45 14.65 167.6 14.51C167.75 14.36 167.935 14.285 168.155 14.285C168.385 14.285 168.57 14.36 168.71 14.51C168.86 14.65 168.935 14.835 168.935 15.065V22.07C168.935 22.61 169.075 23.09 169.355 23.51C169.645 23.92 170.04 24.245 170.54 24.485C171.05 24.715 171.63 24.83 172.28 24.83C172.91 24.83 173.465 24.715 173.945 24.485C174.435 24.245 174.815 23.92 175.085 23.51C175.365 23.09 175.505 22.61 175.505 22.07V15.065C175.505 14.835 175.58 14.65 175.73 14.51C175.88 14.36 176.065 14.285 176.285 14.285C176.515 14.285 176.7 14.36 176.84 14.51C176.98 14.65 177.05 14.835 177.05 15.065V22.07C177.05 22.88 176.845 23.6 176.435 24.23C176.035 24.86 175.475 25.355 174.755 25.715C174.035 26.065 173.21 26.24 172.28 26.24Z" fill="#1E1E2D"></path><path d="M185.296 26.15C184.486 26.15 183.726 26 183.016 25.7C182.316 25.39 181.701 24.965 181.171 24.425C180.651 23.875 180.241 23.235 179.941 22.505C179.651 21.775 179.506 20.985 179.506 20.135C179.506 19.295 179.651 18.515 179.941 17.795C180.241 17.065 180.651 16.43 181.171 15.89C181.701 15.34 182.316 14.91 183.016 14.6C183.716 14.29 184.476 14.135 185.296 14.135C186.066 14.135 186.726 14.235 187.276 14.435C187.836 14.635 188.396 14.965 188.956 15.425C189.036 15.485 189.096 15.55 189.136 15.62C189.186 15.68 189.216 15.745 189.226 15.815C189.246 15.875 189.256 15.95 189.256 16.04C189.256 16.23 189.186 16.39 189.046 16.52C188.916 16.65 188.751 16.72 188.551 16.73C188.361 16.74 188.181 16.675 188.011 16.535C187.641 16.215 187.256 15.97 186.856 15.8C186.466 15.63 185.946 15.545 185.296 15.545C184.706 15.545 184.151 15.665 183.631 15.905C183.111 16.145 182.651 16.475 182.251 16.895C181.861 17.315 181.556 17.805 181.336 18.365C181.116 18.915 181.006 19.505 181.006 20.135C181.006 20.775 181.116 21.375 181.336 21.935C181.556 22.485 181.861 22.97 182.251 23.39C182.651 23.81 183.111 24.14 183.631 24.38C184.151 24.61 184.706 24.725 185.296 24.725C185.806 24.725 186.286 24.64 186.736 24.47C187.196 24.29 187.636 24.045 188.056 23.735C188.236 23.605 188.411 23.55 188.581 23.57C188.761 23.58 188.911 23.65 189.031 23.78C189.151 23.9 189.211 24.07 189.211 24.29C189.211 24.39 189.191 24.49 189.151 24.59C189.121 24.68 189.061 24.765 188.971 24.845C188.441 25.285 187.866 25.615 187.246 25.835C186.626 26.045 185.976 26.15 185.296 26.15ZM189.211 24.29L187.711 23.99V21.305H185.641C185.421 21.305 185.236 21.24 185.086 21.11C184.936 20.98 184.861 20.815 184.861 20.615C184.861 20.415 184.936 20.25 185.086 20.12C185.236 19.99 185.421 19.925 185.641 19.925H188.446C188.676 19.925 188.861 20 189.001 20.15C189.141 20.29 189.211 20.475 189.211 20.705V24.29Z" fill="#1E1E2D"></path><path d="M196.956 26.15C196.146 26.15 195.386 26 194.676 25.7C193.976 25.39 193.361 24.965 192.831 24.425C192.311 23.875 191.901 23.235 191.601 22.505C191.311 21.775 191.166 20.985 191.166 20.135C191.166 19.295 191.311 18.515 191.601 17.795C191.901 17.065 192.311 16.43 192.831 15.89C193.361 15.34 193.976 14.91 194.676 14.6C195.376 14.29 196.136 14.135 196.956 14.135C197.726 14.135 198.386 14.235 198.936 14.435C199.496 14.635 200.056 14.965 200.616 15.425C200.696 15.485 200.756 15.55 200.796 15.62C200.846 15.68 200.876 15.745 200.886 15.815C200.906 15.875 200.916 15.95 200.916 16.04C200.916 16.23 200.846 16.39 200.706 16.52C200.576 16.64 200.416 16.71 200.226 16.73C200.036 16.74 199.851 16.675 199.671 16.535C199.301 16.215 198.916 15.97 198.516 15.8C198.126 15.63 197.606 15.545 196.956 15.545C196.366 15.545 195.811 15.665 195.291 15.905C194.771 16.145 194.311 16.475 193.911 16.895C193.521 17.315 193.216 17.805 192.996 18.365C192.776 18.915 192.666 19.505 192.666 20.135C192.666 20.775 192.776 21.375 192.996 21.935C193.216 22.485 193.521 22.97 193.911 23.39C194.311 23.81 194.771 24.14 195.291 24.38C195.811 24.61 196.366 24.725 196.956 24.725C197.466 24.725 197.946 24.64 198.396 24.47C198.856 24.29 199.296 24.045 199.716 23.735C199.896 23.605 200.071 23.55 200.241 23.57C200.421 23.58 200.571 23.65 200.691 23.78C200.811 23.9 200.871 24.07 200.871 24.29C200.871 24.39 200.851 24.49 200.811 24.59C200.771 24.68 200.711 24.765 200.631 24.845C200.091 25.275 199.511 25.6 198.891 25.82C198.281 26.04 197.636 26.15 196.956 26.15Z" fill="#1E1E2D"></path><path d="M211.481 26.15C210.841 26.15 210.231 26.05 209.651 25.85C209.071 25.65 208.566 25.37 208.136 25.01C207.706 24.65 207.391 24.235 207.191 23.765C207.091 23.555 207.091 23.36 207.191 23.18C207.301 23 207.481 22.885 207.731 22.835C207.911 22.795 208.086 22.825 208.256 22.925C208.436 23.015 208.571 23.155 208.661 23.345C208.781 23.595 208.976 23.825 209.246 24.035C209.526 24.245 209.861 24.415 210.251 24.545C210.641 24.675 211.051 24.74 211.481 24.74C211.961 24.74 212.401 24.665 212.801 24.515C213.211 24.365 213.541 24.15 213.791 23.87C214.041 23.58 214.166 23.225 214.166 22.805C214.166 22.275 213.956 21.8 213.536 21.38C213.126 20.96 212.446 20.7 211.496 20.6C210.256 20.48 209.281 20.115 208.571 19.505C207.861 18.895 207.506 18.14 207.506 17.24C207.506 16.58 207.691 16.02 208.061 15.56C208.431 15.1 208.931 14.75 209.561 14.51C210.201 14.27 210.911 14.15 211.691 14.15C212.301 14.15 212.831 14.235 213.281 14.405C213.741 14.575 214.141 14.81 214.481 15.11C214.821 15.41 215.116 15.765 215.366 16.175C215.506 16.395 215.561 16.605 215.531 16.805C215.511 16.995 215.416 17.145 215.246 17.255C215.056 17.375 214.851 17.4 214.631 17.33C214.411 17.26 214.246 17.13 214.136 16.94C213.976 16.65 213.781 16.405 213.551 16.205C213.321 16.005 213.051 15.85 212.741 15.74C212.431 15.62 212.066 15.56 211.646 15.56C210.906 15.55 210.286 15.69 209.786 15.98C209.286 16.26 209.036 16.695 209.036 17.285C209.036 17.585 209.111 17.875 209.261 18.155C209.421 18.425 209.706 18.66 210.116 18.86C210.536 19.06 211.136 19.2 211.916 19.28C213.106 19.4 214.031 19.765 214.691 20.375C215.361 20.975 215.696 21.77 215.696 22.76C215.696 23.33 215.576 23.825 215.336 24.245C215.106 24.665 214.791 25.02 214.391 25.31C214.001 25.59 213.551 25.8 213.041 25.94C212.541 26.08 212.021 26.15 211.481 26.15Z" fill="#1E1E2D"></path><path d="M221.388 26.075C220.698 26.075 220.078 25.93 219.528 25.64C218.988 25.34 218.558 24.905 218.238 24.335C217.928 23.765 217.773 23.065 217.773 22.235V18.545C217.773 18.325 217.843 18.145 217.983 18.005C218.133 17.855 218.318 17.78 218.538 17.78C218.758 17.78 218.938 17.855 219.078 18.005C219.228 18.145 219.303 18.325 219.303 18.545V22.235C219.303 22.795 219.408 23.26 219.618 23.63C219.828 23.99 220.113 24.26 220.473 24.44C220.833 24.61 221.238 24.695 221.688 24.695C222.118 24.695 222.498 24.61 222.828 24.44C223.168 24.27 223.438 24.04 223.638 23.75C223.838 23.46 223.938 23.135 223.938 22.775H224.883C224.883 23.395 224.728 23.955 224.418 24.455C224.118 24.955 223.703 25.35 223.173 25.64C222.653 25.93 222.058 26.075 221.388 26.075ZM224.703 26C224.483 26 224.298 25.93 224.148 25.79C224.008 25.64 223.938 25.455 223.938 25.235V18.545C223.938 18.315 224.008 18.13 224.148 17.99C224.298 17.85 224.483 17.78 224.703 17.78C224.933 17.78 225.118 17.85 225.258 17.99C225.398 18.13 225.468 18.315 225.468 18.545V25.235C225.468 25.455 225.398 25.64 225.258 25.79C225.118 25.93 224.933 26 224.703 26Z" fill="#1E1E2D"></path><path d="M229.077 26C228.857 26 228.672 25.93 228.522 25.79C228.382 25.64 228.312 25.455 228.312 25.235V18.56C228.312 18.33 228.382 18.145 228.522 18.005C228.672 17.865 228.857 17.795 229.077 17.795C229.307 17.795 229.492 17.865 229.632 18.005C229.772 18.145 229.842 18.33 229.842 18.56V25.235C229.842 25.455 229.772 25.64 229.632 25.79C229.492 25.93 229.307 26 229.077 26ZM229.077 16.46C228.807 16.46 228.573 16.365 228.373 16.175C228.183 15.975 228.088 15.74 228.088 15.47C228.088 15.2 228.183 14.97 228.373 14.78C228.573 14.58 228.807 14.48 229.077 14.48C229.347 14.48 229.578 14.58 229.768 14.78C229.968 14.97 230.067 15.2 230.067 15.47C230.067 15.74 229.968 15.975 229.768 16.175C229.578 16.365 229.347 16.46 229.077 16.46Z" fill="#1E1E2D"></path><path d="M235.674 26C235.174 26 234.724 25.875 234.324 25.625C233.924 25.365 233.609 25.015 233.379 24.575C233.149 24.135 233.034 23.64 233.034 23.09V15.935C233.034 15.715 233.104 15.535 233.244 15.395C233.384 15.255 233.564 15.185 233.784 15.185C234.004 15.185 234.184 15.255 234.324 15.395C234.464 15.535 234.534 15.715 234.534 15.935V23.09C234.534 23.49 234.644 23.825 234.864 24.095C235.084 24.365 235.354 24.5 235.674 24.5H236.184C236.364 24.5 236.514 24.57 236.634 24.71C236.764 24.85 236.829 25.03 236.829 25.25C236.829 25.47 236.744 25.65 236.574 25.79C236.414 25.93 236.204 26 235.944 26H235.674ZM232.344 19.385C232.134 19.385 231.964 19.325 231.834 19.205C231.704 19.085 231.639 18.935 231.639 18.755C231.639 18.555 231.704 18.395 231.834 18.275C231.964 18.155 232.134 18.095 232.344 18.095H235.809C236.019 18.095 236.189 18.155 236.319 18.275C236.449 18.395 236.514 18.555 236.514 18.755C236.514 18.935 236.449 19.085 236.319 19.205C236.189 19.325 236.019 19.385 235.809 19.385H232.344Z" fill="#1E1E2D"></path><path d="M242.564 26.06C241.734 26.06 240.994 25.885 240.344 25.535C239.704 25.175 239.199 24.685 238.829 24.065C238.469 23.435 238.289 22.715 238.289 21.905C238.289 21.085 238.459 20.365 238.799 19.745C239.149 19.115 239.629 18.625 240.239 18.275C240.849 17.915 241.549 17.735 242.339 17.735C243.119 17.735 243.789 17.91 244.349 18.26C244.909 18.6 245.334 19.075 245.624 19.685C245.924 20.285 246.074 20.98 246.074 21.77C246.074 21.96 246.009 22.12 245.879 22.25C245.749 22.37 245.584 22.43 245.384 22.43H239.339V21.23H245.339L244.724 21.65C244.714 21.15 244.614 20.705 244.424 20.315C244.234 19.915 243.964 19.6 243.614 19.37C243.264 19.14 242.839 19.025 242.339 19.025C241.769 19.025 241.279 19.15 240.869 19.4C240.469 19.65 240.164 19.995 239.954 20.435C239.744 20.865 239.639 21.355 239.639 21.905C239.639 22.455 239.764 22.945 240.014 23.375C240.264 23.805 240.609 24.145 241.049 24.395C241.489 24.645 241.994 24.77 242.564 24.77C242.874 24.77 243.189 24.715 243.509 24.605C243.839 24.485 244.104 24.35 244.304 24.2C244.454 24.09 244.614 24.035 244.784 24.035C244.964 24.025 245.119 24.075 245.249 24.185C245.419 24.335 245.509 24.5 245.519 24.68C245.529 24.86 245.449 25.015 245.279 25.145C244.939 25.415 244.514 25.635 244.004 25.805C243.504 25.975 243.024 26.06 242.564 26.06Z" fill="#1E1E2D"></path></g><defs><clipPath id="clip0_0_1"><rect width="246.875" height="36.984" fill="white"></rect></clipPath></defs></svg>