<svg xmlns="http://www.w3.org/2000/svg" width="156.247" height="27.216" viewBox="0 0 156.247 27.216">
  <g id="tagassist" transform="translate(-22.912 -0.78)">
    <path id="Path_1" data-name="Path 1" d="M8.937,0a1.357,1.357,0,0,1-1-.405,1.357,1.357,0,0,1-.4-1V-21.087h2.808V-1.4a1.357,1.357,0,0,1-.4,1A1.357,1.357,0,0,1,8.937,0ZM1.7-18.5a1.261,1.261,0,0,1-.931-.364,1.261,1.261,0,0,1-.365-.932,1.261,1.261,0,0,1,.365-.931,1.261,1.261,0,0,1,.931-.365H16.146a1.261,1.261,0,0,1,.931.365,1.261,1.261,0,0,1,.365.931,1.261,1.261,0,0,1-.365.932,1.261,1.261,0,0,1-.931.364ZM22.383.108a6.5,6.5,0,0,1-3.537-.985,7,7,0,0,1-2.471-2.673,7.959,7.959,0,0,1-.9-3.821,7.507,7.507,0,0,1,.985-3.834,7.29,7.29,0,0,1,2.673-2.687,7.382,7.382,0,0,1,3.794-.985,7.31,7.31,0,0,1,3.78.985,7.322,7.322,0,0,1,2.66,2.687,7.507,7.507,0,0,1,.986,3.834H29.3a7.959,7.959,0,0,1-.9,3.821A7,7,0,0,1,25.92-.877,6.5,6.5,0,0,1,22.383.108Zm.54-2.43a4.609,4.609,0,0,0,2.457-.661,4.7,4.7,0,0,0,1.7-1.809A5.329,5.329,0,0,0,27.7-7.371a5.386,5.386,0,0,0-.621-2.606,4.7,4.7,0,0,0-1.7-1.809,4.609,4.609,0,0,0-2.457-.661,4.629,4.629,0,0,0-2.444.661,4.771,4.771,0,0,0-1.728,1.809,5.294,5.294,0,0,0-.634,2.606,5.238,5.238,0,0,0,.634,2.579,4.771,4.771,0,0,0,1.728,1.809A4.629,4.629,0,0,0,22.923-2.322ZM28.971.027a1.336,1.336,0,0,1-.986-.392,1.336,1.336,0,0,1-.392-.986V-5.481l.513-2.862,2.241.972V-1.35a1.336,1.336,0,0,1-.391.986A1.336,1.336,0,0,1,28.971.027ZM40.608.108A6.67,6.67,0,0,1,37.03-.85,6.736,6.736,0,0,1,34.587-3.5,8.174,8.174,0,0,1,33.7-7.371a7.762,7.762,0,0,1,.958-3.9,6.947,6.947,0,0,1,2.632-2.646,7.632,7.632,0,0,1,3.861-.958,7.578,7.578,0,0,1,3.834.958,6.947,6.947,0,0,1,2.632,2.646,7.762,7.762,0,0,1,.958,3.9H46.98A8.727,8.727,0,0,1,46.157-3.5,6.574,6.574,0,0,1,43.9-.85,5.78,5.78,0,0,1,40.608.108Zm.486,6.021A8.623,8.623,0,0,1,37.5,5.373a7.553,7.553,0,0,1-2.835-2.214,1.15,1.15,0,0,1-.257-.945,1.2,1.2,0,0,1,.527-.783,1.3,1.3,0,0,1,1.013-.216,1.376,1.376,0,0,1,.85.54,4.978,4.978,0,0,0,1.836,1.431,5.906,5.906,0,0,0,2.511.513,4.756,4.756,0,0,0,2.389-.621,4.463,4.463,0,0,0,1.742-1.836,6.244,6.244,0,0,0,.648-2.97V-5.562l.891-2.376,1.755.567v5.832a7.99,7.99,0,0,1-.945,3.875A7.2,7.2,0,0,1,45,5.1,7.36,7.36,0,0,1,41.094,6.129Zm.054-8.451a4.734,4.734,0,0,0,2.484-.648,4.531,4.531,0,0,0,1.688-1.782,5.462,5.462,0,0,0,.607-2.619A5.542,5.542,0,0,0,45.319-10a4.508,4.508,0,0,0-1.687-1.8,4.734,4.734,0,0,0-2.484-.648,4.734,4.734,0,0,0-2.484.648,4.6,4.6,0,0,0-1.7,1.8,5.443,5.443,0,0,0-.621,2.632,5.365,5.365,0,0,0,.621,2.619,4.629,4.629,0,0,0,1.7,1.782A4.734,4.734,0,0,0,41.148-2.322ZM52.11,0a1.292,1.292,0,0,1-1.161-.648,1.39,1.39,0,0,1-.081-1.377l7.587-18.117a1.37,1.37,0,0,1,1.323-.945,1.311,1.311,0,0,1,1.323.945L68.715-1.971A1.425,1.425,0,0,1,68.62-.608,1.3,1.3,0,0,1,67.446,0a1.421,1.421,0,0,1-.77-.23,1.3,1.3,0,0,1-.526-.635L59.454-17.5h.756L53.406-.864a1.36,1.36,0,0,1-.554.648A1.441,1.441,0,0,1,52.11,0Zm1.431-4.644,1.08-2.322H65.205l1.08,2.322ZM77.031.108a10.216,10.216,0,0,1-3.5-.58,6.7,6.7,0,0,1-2.5-1.471,1.176,1.176,0,0,1-.338-.985,1.3,1.3,0,0,1,.527-.9A1.407,1.407,0,0,1,72.292-4.2a1.461,1.461,0,0,1,.9.472,4.282,4.282,0,0,0,1.471.958,5.539,5.539,0,0,0,2.255.445,4.555,4.555,0,0,0,2.39-.513,1.589,1.589,0,0,0,.85-1.323,1.649,1.649,0,0,0-.77-1.4,7.354,7.354,0,0,0-2.9-.972,8.531,8.531,0,0,1-3.955-1.62A3.391,3.391,0,0,1,71.307-10.8a3.292,3.292,0,0,1,.81-2.281,4.915,4.915,0,0,1,2.079-1.35,7.93,7.93,0,0,1,2.646-.445A8.241,8.241,0,0,1,80-14.31a5.387,5.387,0,0,1,2.187,1.566,1.246,1.246,0,0,1,.351.9,1.046,1.046,0,0,1-.459.8,1.324,1.324,0,0,1-1.026.189,1.936,1.936,0,0,1-1-.486,3.678,3.678,0,0,0-1.458-.891,6.112,6.112,0,0,0-1.809-.243,4.527,4.527,0,0,0-2.011.4,1.28,1.28,0,0,0-.824,1.188,1.566,1.566,0,0,0,.257.877,2.16,2.16,0,0,0,1.013.7,13,13,0,0,0,2.214.608,12.04,12.04,0,0,1,3.2,1.026,4.269,4.269,0,0,1,1.688,1.445,3.525,3.525,0,0,1,.513,1.9,3.969,3.969,0,0,1-.661,2.241A4.548,4.548,0,0,1,80.23-.486,7.607,7.607,0,0,1,77.031.108Zm14.661,0a10.216,10.216,0,0,1-3.5-.58,6.7,6.7,0,0,1-2.5-1.471,1.176,1.176,0,0,1-.338-.985,1.3,1.3,0,0,1,.527-.9A1.407,1.407,0,0,1,86.953-4.2a1.461,1.461,0,0,1,.9.472,4.282,4.282,0,0,0,1.471.958,5.539,5.539,0,0,0,2.255.445,4.555,4.555,0,0,0,2.389-.513,1.589,1.589,0,0,0,.851-1.323,1.649,1.649,0,0,0-.769-1.4,7.354,7.354,0,0,0-2.9-.972A8.531,8.531,0,0,1,87.2-8.154,3.391,3.391,0,0,1,85.968-10.8a3.292,3.292,0,0,1,.81-2.281,4.915,4.915,0,0,1,2.079-1.35,7.93,7.93,0,0,1,2.646-.445,8.241,8.241,0,0,1,3.159.567,5.387,5.387,0,0,1,2.187,1.566,1.246,1.246,0,0,1,.351.9,1.046,1.046,0,0,1-.459.8,1.324,1.324,0,0,1-1.026.189,1.936,1.936,0,0,1-1-.486,3.678,3.678,0,0,0-1.458-.891,6.112,6.112,0,0,0-1.809-.243,4.527,4.527,0,0,0-2.011.4,1.28,1.28,0,0,0-.824,1.188A1.566,1.566,0,0,0,88.87-10a2.16,2.16,0,0,0,1.013.7,13,13,0,0,0,2.214.608,12.04,12.04,0,0,1,3.2,1.026,4.269,4.269,0,0,1,1.688,1.445,3.525,3.525,0,0,1,.513,1.9,3.969,3.969,0,0,1-.661,2.241A4.548,4.548,0,0,1,94.892-.486,7.607,7.607,0,0,1,91.692.108ZM102.627,0a1.336,1.336,0,0,1-.985-.391,1.336,1.336,0,0,1-.392-.985V-13.392a1.325,1.325,0,0,1,.392-1,1.362,1.362,0,0,1,.985-.378,1.35,1.35,0,0,1,1,.378,1.35,1.35,0,0,1,.378,1V-1.377a1.362,1.362,0,0,1-.378.985A1.325,1.325,0,0,1,102.627,0Zm0-17.172a1.714,1.714,0,0,1-1.255-.527,1.714,1.714,0,0,1-.527-1.256,1.714,1.714,0,0,1,.527-1.255,1.714,1.714,0,0,1,1.255-.527,1.714,1.714,0,0,1,1.256.527,1.714,1.714,0,0,1,.527,1.255,1.714,1.714,0,0,1-.527,1.256A1.714,1.714,0,0,1,102.627-17.172ZM114.507.108a10.216,10.216,0,0,1-3.5-.58,6.7,6.7,0,0,1-2.5-1.471,1.176,1.176,0,0,1-.338-.985,1.3,1.3,0,0,1,.527-.9,1.407,1.407,0,0,1,1.066-.364,1.461,1.461,0,0,1,.9.472,4.282,4.282,0,0,0,1.471.958,5.539,5.539,0,0,0,2.255.445,4.555,4.555,0,0,0,2.389-.513,1.589,1.589,0,0,0,.851-1.323,1.649,1.649,0,0,0-.769-1.4,7.354,7.354,0,0,0-2.9-.972,8.531,8.531,0,0,1-3.955-1.62,3.391,3.391,0,0,1-1.229-2.646,3.292,3.292,0,0,1,.81-2.281,4.915,4.915,0,0,1,2.079-1.35,7.93,7.93,0,0,1,2.646-.445,8.241,8.241,0,0,1,3.159.567,5.387,5.387,0,0,1,2.187,1.566,1.246,1.246,0,0,1,.351.9,1.046,1.046,0,0,1-.459.8,1.324,1.324,0,0,1-1.026.189,1.936,1.936,0,0,1-1-.486,3.678,3.678,0,0,0-1.458-.891,6.112,6.112,0,0,0-1.809-.243,4.527,4.527,0,0,0-2.011.4,1.28,1.28,0,0,0-.824,1.188,1.566,1.566,0,0,0,.257.877,2.16,2.16,0,0,0,1.013.7,13,13,0,0,0,2.214.608,12.04,12.04,0,0,1,3.2,1.026A4.269,4.269,0,0,1,119.8-6.223a3.525,3.525,0,0,1,.513,1.9,3.969,3.969,0,0,1-.661,2.241,4.548,4.548,0,0,1-1.944,1.593A7.607,7.607,0,0,1,114.507.108ZM129.168,0a4.425,4.425,0,0,1-2.43-.688,4.832,4.832,0,0,1-1.7-1.877,5.682,5.682,0,0,1-.621-2.673V-18.117a1.316,1.316,0,0,1,.378-.972,1.316,1.316,0,0,1,.972-.378,1.316,1.316,0,0,1,.972.378,1.316,1.316,0,0,1,.378.972V-5.238a2.77,2.77,0,0,0,.594,1.809,1.815,1.815,0,0,0,1.458.729h.918a1.063,1.063,0,0,1,.824.378,1.4,1.4,0,0,1,.337.972,1.217,1.217,0,0,1-.445.972A1.712,1.712,0,0,1,129.654,0Zm-5.994-11.907a1.3,1.3,0,0,1-.918-.324,1.056,1.056,0,0,1-.351-.81,1.119,1.119,0,0,1,.351-.864,1.3,1.3,0,0,1,.918-.324h6.237a1.3,1.3,0,0,1,.918.324,1.119,1.119,0,0,1,.351.864,1.057,1.057,0,0,1-.351.81,1.3,1.3,0,0,1-.918.324Z" transform="translate(47.912 21.867)" fill="#1e1e2d"/>
    <path id="Path_2" data-name="Path 2" d="M11.649,6.39a10.027,10.027,0,1,0,3.837.763,10.027,10.027,0,0,0-3.837-.763Zm3.2,10.429-6.2,5.464V16.819H4.482V12.336H18.849v4.483Z" transform="translate(22.64 -4.157)" fill="#1e1e2d"/>
    <path id="Path_1-2" data-name="Path 1" d="M11.354,27.463a11.376,11.376,0,1,1,8.028-3.332,11.376,11.376,0,0,1-8.028,3.332Zm0-21.807a10.445,10.445,0,1,0,4,.8,10.445,10.445,0,0,0-4-.8Z" transform="translate(22.951 -3.843)" fill="#1e1e2d"/>
  </g>
</svg>
