<svg xmlns="http://www.w3.org/2000/svg" width="142.259" height="36.506" viewBox="0 0 142.259 36.506">
  <g id="Group_9003" data-name="Group 9003" transform="translate(-36.43 -90.56)">
    <path id="Path_6960" data-name="Path 6960" d="M144.56,107.481h8.008v7.928h7.371v-7.928h8.008v23.991h-8.008v-8.008h-7.313v8.008H144.56M178.5,115.478h-7.058V107.47h22.149v8.008h-7.094v15.994h-8.008m18.6-23.991h8.372l5.143,8.448,5.147-8.448h8.372v23.991h-8.008V119.58l-5.6,8.623-5.6-8.623v11.892H197.1m31.016-23.991h8.008v16.063h11.339v7.928H228.113" transform="translate(-68.771 -10.755)" fill="#fff"/>
    <path id="Path_6961" data-name="Path 6961" d="M36.43,90.56l2.912,32.866,13.14,3.64,13.2-3.64,2.912-32.847Zm25.8,10.745h-15.4l.364,4.124H61.859l-1.092,12.376-8.234,2.286v.022l-8.266-2.308-.579-6.337h4.044l.284,3.221,4.5,1.2,4.506-1.2.473-5.234H43.51L42.418,97.283H62.609Z" fill="#e44d26"/>
    <path id="Path_6962" data-name="Path 6962" d="M80.608,160.174l-.007,0-.011,0Z" transform="translate(-28.086 -44.272)" fill="#e44d26"/>
    <line id="Line_257" data-name="Line 257" y1="0.004" x2="0.018" transform="translate(52.504 120.084)" fill="#e44d26"/>
    <path id="Path_6963" data-name="Path 6963" d="M85.594,142.48H80.64v6.436l4.481-1.2Z" transform="translate(-28.118 -33.021)" fill="#f16529"/>
    <path id="Path_6964" data-name="Path 6964" d="M80.64,97.97v4.019H90.719l-.371,4.029H80.64v4.124h9.344l-1.11,12.369L80.64,124.8v4.182l10.647-2.97L93.8,97.97Z" transform="translate(-28.118 -4.713)" fill="#f16529"/>
  </g>
</svg>
