<svg xmlns="http://www.w3.org/2000/svg" width="129.182" height="36.846" viewBox="0 0 129.182 36.846">
  <g id="Group_9006" data-name="Group 9006" transform="translate(-27.07 -81.65)">
    <path id="Path_6981" data-name="Path 6981" d="M54.846,88.657a.315.315,0,0,0-.315-.274c-.126,0-2.89-.211-2.89-.211s-1.921-1.918-2.155-2.111a.886.886,0,0,0-.779-.1c-.022,0-.423.126-1.076.338-.656-1.893-1.773-3.587-3.786-3.587h-.189A2.448,2.448,0,0,0,41.8,81.65c-4.641,0-6.878,5.805-7.572,8.758-1.814.571-3.1.946-3.25,1.013-1.013.315-1.035.338-1.161,1.287-.1.719-2.745,21.138-2.745,21.138l20.535,3.843,11.143-2.407C58.774,115.228,54.868,88.846,54.846,88.657Zm-11.333-1.35v.211c-1.139.36-2.341.716-3.587,1.117.7-2.656,2.025-3.966,3.123-4.452A8.834,8.834,0,0,1,43.514,87.307ZM41.7,82.89a1,1,0,0,1,.59.211c-1.5.7-3.079,2.448-3.735,5.994-.991.315-1.94.59-2.839.887.751-2.716,2.65-7.108,5.985-7.108Zm.808,15.686a6.354,6.354,0,0,0-2.679-.653c-2.174,0-2.281,1.369-2.281,1.707,0,1.858,4.855,2.578,4.855,6.941,0,3.442-2.174,5.657-5.108,5.657a7.016,7.016,0,0,1-5.319-2.208l.946-3.123s1.858,1.606,3.42,1.606a1.388,1.388,0,0,0,1.458-1.394c0-2.426-3.969-2.524-3.969-6.543,0-3.354,2.407-6.6,7.282-6.6a5.618,5.618,0,0,1,2.742.527ZM44.766,87.14v-.382a8.121,8.121,0,0,0-.423-2.808c1.057.129,1.71,1.287,2.152,2.641-.517.145-1.123.338-1.735.549Z" transform="translate(0 0)" fill="#95bf47"/>
    <path id="Path_6982" data-name="Path 6982" d="M99.229,97.548c-.126,0-2.89-.211-2.89-.211s-1.921-1.921-2.155-2.111a.4.4,0,0,0-.274-.126l-1.54,31.783,11.143-2.407s-3.906-26.423-3.925-26.612a.571.571,0,0,0-.36-.315Z" transform="translate(-44.698 -9.207)" fill="#5e8e3e"/>
    <path id="Path_6983" data-name="Path 6983" d="M151.523,117.724c-1.117-.59-1.688-1.117-1.688-1.814,0-.887.8-1.458,2.048-1.458a7.379,7.379,0,0,1,2.745.593l1.013-3.1s-.946-.716-3.672-.716c-3.821,0-6.48,2.208-6.48,5.275,0,1.751,1.246,3.082,2.893,4.032,1.35.738,1.814,1.287,1.814,2.089s-.675,1.5-1.921,1.5a8.625,8.625,0,0,1-3.587-.946l-1.076,3.1a8.235,8.235,0,0,0,4.306,1.076c3.925,0,6.774-1.94,6.774-5.423C154.646,120.037,153.233,118.718,151.523,117.724Zm15.661-6.54a5.874,5.874,0,0,0-4.622,2.319l-.044-.019,1.691-8.78h-4.37l-4.262,22.368h4.366l1.458-7.638c.571-2.89,2.066-4.685,3.47-4.685.991,0,1.372.675,1.372,1.625a8.8,8.8,0,0,1-.189,1.94l-1.656,8.758h4.366l1.71-9.029a16.4,16.4,0,0,0,.316-2.871c-.022-2.524-1.309-3.988-3.609-3.988Zm13.484,0c-5.275,0-8.758,4.748-8.758,10.045,0,3.376,2.089,6.117,6.016,6.117,5.168,0,8.651-4.619,8.651-10.045C186.6,114.159,184.782,111.184,180.668,111.184Zm-2.152,12.831c-1.5,0-2.111-1.262-2.111-2.871,0-2.524,1.287-6.584,3.672-6.584,1.54,0,2.066,1.35,2.066,2.638C182.144,119.876,180.816,124.015,178.516,124.015Zm19.267-12.831a5.964,5.964,0,0,0-4.622,2.615h-.041l.252-2.341H189.48c-.189,1.577-.549,4.007-.887,5.8l-3.007,16.027h4.366l1.224-6.477h.107a5.12,5.12,0,0,0,2.552.568c5.149,0,8.518-5.275,8.518-10.594C202.32,113.822,200.992,111.184,197.783,111.184Zm-4.177,12.872a2.761,2.761,0,0,1-1.817-.653l.719-4.073c.5-2.745,1.94-4.54,3.47-4.54,1.35,0,1.751,1.246,1.751,2.407.022,2.839-1.669,6.859-4.1,6.859Zm14.961-19.141a2.524,2.524,0,0,0-2.524,2.524,2.041,2.041,0,0,0,2.07,2.208h.041a2.448,2.448,0,0,0,2.552-2.524,2.048,2.048,0,0,0-2.139-2.208Zm-6.121,22.138h4.385l2.937-15.535H205.38m15.532-.022h-3.038l.148-.719c.252-1.5,1.139-2.8,2.615-2.8a4.379,4.379,0,0,1,1.394.23l.842-3.439a5.681,5.681,0,0,0-2.382-.379,6.547,6.547,0,0,0-4.284,1.454,8.04,8.04,0,0,0-2.524,4.96l-.126.719H211.5l-.653,3.313h2.044l-2.319,12.238h4.366l2.322-12.238h3.019Zm10.528.022s-2.742,6.9-3.947,10.676h-.041c-.082-1.212-1.06-10.676-1.06-10.676H221.78l2.638,14.222a.991.991,0,0,1-.107.716,7.433,7.433,0,0,1-2.385,2.641,9.781,9.781,0,0,1-2.489,1.243l1.224,3.717a10.033,10.033,0,0,0,4.284-2.385c1.984-1.858,3.84-4.732,5.739-8.676l5.341-11.5H231.44Z" transform="translate(-79.772 -15.561)" fill="#fff"/>
  </g>
</svg>
