<svg xmlns="http://www.w3.org/2000/svg" width="69" height="69" viewBox="0 0 69 69">
                <g id="Group_10694" data-name="Group 10694" transform="translate(731 18010)">
                    <rect id="Rectangle_3867" data-name="Rectangle 3867" width="69" height="69" transform="translate(-731 -18010)" fill="none" />
                    <g id="Group_10687" data-name="Group 10687" transform="translate(471 -51)">
                        <path id="Path_14369" data-name="Path 14369" d="M-362,268h-22V247h22v21Zm-23,0h-21V247h21v21Zm-22,0h-22V247h22v21Zm45-22h-22V225h22v21Zm-23,0h-21V225h21v21Zm-22,0h-22V225h22v21Zm45-22h-22V203h22v21Zm-23,0h-21V203h21v21Zm-22,0h-22V203h22v21Z" transform="translate(-772 -18160)" fill="currentColor" />
                    </g>
                </g>
            </svg>