<svg xmlns="http://www.w3.org/2000/svg" width="64.487" height="64.483" className="mb-3" viewBox="0 0 64.487 64.483">
    <g id="noun-support-5141184" transform="translate(-69.994 -0.021)">
        <path id="Path_10130" data-name="Path 10130" d="M119.066,146.343l-10.82-3.664a2.117,2.117,0,0,0-2.07.415l-3.577,3.141a3.336,3.336,0,0,1-3.2.665A23.285,23.285,0,0,1,82.68,130.184a3.334,3.334,0,0,1,.665-3.2l3.141-3.577a2.117,2.117,0,0,0,.415-2.07l-3.664-10.82A4.429,4.429,0,0,0,80,107.593a4.381,4.381,0,0,0-4.127,1.2,19.52,19.52,0,0,0-5.884,13.92c.051,7.484,4.37,15.57,12.837,24.041s16.557,12.787,24.041,12.837a19.535,19.535,0,0,0,13.92-5.884,4.375,4.375,0,0,0,1.2-4.127,4.431,4.431,0,0,0-2.922-3.232Z" transform="translate(0 -95.083)" fill="currentColor"/>
        <path id="Path_10131" data-name="Path 10131" d="M191.94,57.6a.833.833,0,0,0,.559-.212c.393-.347.8-.687,1.21-1.013a.843.843,0,0,0-1.046-1.323c-.436.345-.865.7-1.282,1.072a.844.844,0,0,0,.56,1.475Z" transform="translate(-107.158 -48.535)" fill="currentColor"/>
        <path id="Path_10132" data-name="Path 10132" d="M225.31,29.94a.852.852,0,0,0,.448-.13c.774-.487,1.581-.94,2.4-1.35a.843.843,0,0,0-.754-1.509c-.868.434-1.721.914-2.543,1.43a.844.844,0,0,0,.45,1.559Z" transform="translate(-136.684 -23.751)" fill="currentColor"/>
        <path id="Path_10133" data-name="Path 10133" d="M365.626,1.709c.916.017,1.839.077,2.745.181a.666.666,0,0,0,.1.007.844.844,0,0,0,.094-1.682C367.6.1,366.626.038,365.657.021a.844.844,0,0,0-.031,1.687Z" transform="translate(-260.857)" fill="currentColor"/>
        <path id="Path_10134" data-name="Path 10134" d="M504.875,44.2a.844.844,0,0,0-.95,1.4c.754.513,1.494,1.07,2.2,1.656a.844.844,0,0,0,1.082-1.3c-.747-.619-1.528-1.21-2.328-1.754Z" transform="translate(-383.637 -38.963)" fill="currentColor"/>
        <path id="Path_10135" data-name="Path 10135" d="M414.286,7.286c.894.19,1.791.426,2.661.7a.777.777,0,0,0,.253.041.844.844,0,0,0,.255-1.649c-.921-.291-1.868-.542-2.818-.745a.844.844,0,0,0-.352,1.651Z" transform="translate(-304.055 -4.951)" fill="currentColor"/>
        <path id="Path_10136" data-name="Path 10136" d="M616.235,253.522a.843.843,0,0,0-.843-.834h-.009a.845.845,0,0,0-.834.853c0,.118,0,.236,0,.352,0,.8-.034,1.605-.1,2.4a.841.841,0,0,0,.769.911c.024,0,.048,0,.072,0a.843.843,0,0,0,.839-.774c.072-.838.108-1.695.108-2.541,0-.123,0-.248,0-.371Z" transform="translate(-481.756 -223.571)" fill="currentColor"/>
        <path id="Path_10137" data-name="Path 10137" d="M574,117.2a.844.844,0,0,0,1.487-.8c-.456-.851-.962-1.692-1.5-2.5a.844.844,0,0,0-1.4.938c.509.762.984,1.555,1.415,2.36Z" transform="translate(-444.588 -100.433)" fill="currentColor"/>
        <path id="Path_10138" data-name="Path 10138" d="M316.643,2.791a1.013,1.013,0,0,0,.147-.012c.9-.159,1.817-.275,2.731-.345a.844.844,0,1,0-.13-1.683c-.967.075-1.941.2-2.892.364a.844.844,0,0,0,.144,1.676Z" transform="translate(-217.502 -0.643)" fill="currentColor"/>
        <path id="Path_10139" data-name="Path 10139" d="M607.208,301.667a.847.847,0,0,0-.983.677c-.164.9-.376,1.8-.627,2.678a.843.843,0,0,0,.578,1.044.872.872,0,0,0,.234.034.844.844,0,0,0,.81-.612c.265-.933.489-1.888.665-2.837a.846.846,0,0,0-.678-.983Z" transform="translate(-473.898 -266.898)" fill="currentColor"/>
        <path id="Path_10140" data-name="Path 10140" d="M610.757,203.845a.844.844,0,0,0-.656,1c.183.894.325,1.81.422,2.719a.845.845,0,0,0,.839.754c.029,0,.06,0,.092,0a.842.842,0,0,0,.747-.928c-.1-.964-.253-1.933-.448-2.88a.842.842,0,0,0-1-.655Z" transform="translate(-477.896 -180.337)" fill="currentColor"/>
        <path id="Path_10141" data-name="Path 10141" d="M544.068,79.289a.844.844,0,0,0,.653-1.376c-.61-.747-1.268-1.475-1.952-2.165a.844.844,0,1,0-1.2,1.188c.648.651,1.268,1.34,1.844,2.044a.843.843,0,0,0,.653.309Z" transform="translate(-417.057 -66.786)" fill="currentColor"/>
        <path id="Path_10142" data-name="Path 10142" d="M595.706,158.011c.349.843.665,1.714.932,2.589a.845.845,0,0,0,.807.6.8.8,0,0,0,.246-.039.841.841,0,0,0,.559-1.053c-.284-.926-.617-1.849-.988-2.74a.843.843,0,1,0-1.557.648Z" transform="translate(-465.116 -138.762)" fill="currentColor"/>
        <path id="Path_10143" data-name="Path 10143" d="M460.96,22.083c.839.359,1.673.764,2.473,1.2a.852.852,0,0,0,.4.1.843.843,0,0,0,.4-1.583c-.848-.465-1.73-.894-2.62-1.273a.843.843,0,1,0-.663,1.55Z" transform="translate(-345.49 -18.09)" fill="currentColor"/>
        <path id="Path_10144" data-name="Path 10144" d="M553.189,392.762a.847.847,0,0,0-1.167.255c-.311.489-.644.971-.981,1.437a.81.81,0,0,1-.945,1.222c-.332.408-.68.81-1.032,1.2a.843.843,0,0,0,.055,1.191.831.831,0,0,0,.569.222.844.844,0,0,0,.622-.275c.374-.408.74-.834,1.092-1.265a.845.845,0,0,0,.055-.991.824.824,0,0,0,.263.041.841.841,0,0,0,.682-.345c.359-.492.708-1,1.041-1.521a.846.846,0,0,0-.255-1.167Z" transform="translate(-423.709 -347.397)" fill="currentColor"/>
        <path id="Path_10145" data-name="Path 10145" d="M269.274,11.807a.83.83,0,0,0,.3-.055c.853-.328,1.73-.617,2.613-.861a.844.844,0,0,0-.448-1.627c-.935.258-1.865.566-2.77.914a.843.843,0,0,0,.3,1.629Z" transform="translate(-175.585 -8.151)" fill="currentColor"/>
        <path id="Path_10146" data-name="Path 10146" d="M589.836,348.955a.843.843,0,0,0-1.094.475c-.335.851-.716,1.695-1.133,2.507a.845.845,0,0,0,1.5.769c.439-.863.843-1.755,1.2-2.656a.844.844,0,0,0-.475-1.095Z" transform="translate(-457.927 -308.7)" fill="currentColor"/>
        <path id="Path_10147" data-name="Path 10147" d="M282.747,164.493a6.439,6.439,0,0,0-2.632,2.225l2.748,1.771a3.693,3.693,0,0,1,1.446-1.224,4.484,4.484,0,0,1,1.933-.408,3.092,3.092,0,0,1,1.945.525,1.8,1.8,0,0,1,.663,1.5,2.969,2.969,0,0,1-.35,1.362,6.617,6.617,0,0,1-1.35,1.644l-6.291,5.939v2.447h12.324V177.2h-7.012l3.751-3.541A9.542,9.542,0,0,0,292.087,171a5.669,5.669,0,0,0,.559-2.493,4.329,4.329,0,0,0-.757-2.55,4.875,4.875,0,0,0-2.119-1.677,7.916,7.916,0,0,0-3.179-.593,8.79,8.79,0,0,0-3.845.8Z" transform="translate(-185.925 -144.822)" fill="currentColor"/>
        <path id="Path_10148" data-name="Path 10148" d="M415.969,172.866H412.4v3.052h-4.379l7.13-9.805h-3.96l-7.689,10.343v2.538h8.783v3.425h3.681v-3.425h2.656v-3.075h-2.656Z" transform="translate(-295.106 -146.965)" fill="currentColor"/>
    </g>
    </svg>