<svg xmlns="http://www.w3.org/2000/svg" width="57.851" height="64.625" viewBox="0 0 57.851 64.625">
    <path id="Path_1" data-name="Path 1" d="M264.047,184.415a37.732,37.732,0,0,0,.549-3.9l1,.1a37.915,37.915,0,0,1-.567,4.018Zm.786-7.858c.033-1.319.02-2.652-.04-3.963l1-.045c.059,1.334.073,2.689.04,4.033Zm-.971-11.828.982-.192c.255,1.3.464,2.642.623,3.988l-.993.118C264.318,167.323,264.113,166,263.862,164.729Zm-2.164-7.6.934-.355c.473,1.24.9,2.532,1.272,3.838l-.962.271C262.58,159.6,262.161,158.338,261.7,157.125Zm-3.5-7.072.849-.527c.706,1.133,1.369,2.323,1.968,3.535l-.9.444C259.533,152.321,258.888,151.16,258.2,150.053Zm-4.829-6.232.724-.689a39.925,39.925,0,0,1,2.641,3.071l-.791.613A39.073,39.073,0,0,0,253.368,143.82Zm-5.978-5.15.579-.816c1.107.783,2.181,1.621,3.19,2.489l-.652.759C249.521,140.254,248.474,139.435,247.39,138.67Zm-6.826-3.987.431-.9c1.229.588,2.43,1.222,3.57,1.886l-.5.866C242.945,135.881,241.769,135.26,240.565,134.683ZM208,128.381,213.519,120l1.669,1.1-4.747,7.209,4.713,6.332-1.6,1.2Zm25.187,3.41.3-.953c1.3.41,2.579.861,3.8,1.34l-.364.932C235.724,132.638,234.466,132.2,233.187,131.791Zm-7.7-1.947.193-.983c1.335.262,2.656.557,3.928.878l-.244.97C228.113,130.393,226.809,130.1,225.491,129.844Zm-7.866-1.165.1-.994c1.351.139,2.693.307,3.99.5l-.146.988C220.289,128.984,218.961,128.819,217.625,128.679Z" transform="translate(-208 -120)" fill="currentColor"/>
</svg>