<svg xmlns="http://www.w3.org/2000/svg" width="89.049" height="104.635" viewBox="0 0 89.049 104.635">
  <path id="Path_14611" data-name="Path 14611" d="M-20147.867,11335.808l-11.42-10.99a7.3,7.3,0,0,1-2.256-6.518,8.212,8.212,0,0,1,4.387-5.7,12.141,12.141,0,0,1,12.928,1.018l6.648,5.4v-32.262H-20149a2.365,2.365,0,0,1-2.631-2.136v-25.441a2.365,2.365,0,0,1,2.631-2.136h42.914a2.365,2.365,0,0,1,2.631,2.136v25.441a2.365,2.365,0,0,1-2.631,2.136h-11.295v9.36a10.355,10.355,0,0,1,4.768-1.017c4.145,0,7.781,2.039,9.289,4.989a12.858,12.858,0,0,1,5.643-1.326c4.139,0,7.777,2.039,9.285,4.989a12.908,12.908,0,0,1,5.646-1.326c5.643,0,10.16,3.664,10.16,8.142l-.5,23.711a2.436,2.436,0,0,1-2.637,2.136,2.443,2.443,0,0,1-2.631-2.136v-23.711c0-2.135-2.135-3.865-4.771-3.865s-4.768,1.73-4.768,3.865v4.073a2.434,2.434,0,0,1-2.635,2.136,2.449,2.449,0,0,1-2.637-2.136l0-7.635c0-2.136-2.129-3.866-4.766-3.866s-4.771,1.73-4.771,3.866v3.972a2.434,2.434,0,0,1-2.631,2.136,2.445,2.445,0,0,1-2.637-2.136v-7.636c0-2.135-2.135-3.865-4.771-3.865s-4.766,1.73-4.766,3.865v3.973a2.435,2.435,0,0,1-2.637,2.135,2.443,2.443,0,0,1-2.631-2.135v-29.409a3.587,3.587,0,0,0-1.383-2.752,4.954,4.954,0,0,0-3.389-1.119c-2.637,0-4.768,1.73-4.768,3.871v43.142a3.645,3.645,0,0,1-2.758,3.259,5.284,5.284,0,0,1-4.771-.814l-8.156-6.614a5.82,5.82,0,0,0-6.143-.511,4.21,4.21,0,0,0-2.135,2.748,3.686,3.686,0,0,0,1.127,3.056l11.42,10.884a1.953,1.953,0,0,1-.379,3.057,3.468,3.468,0,0,1-1.756.511A2.862,2.862,0,0,1-20147.867,11335.808Zm27.6-63.705a7.137,7.137,0,0,1,3.01,5.8v4.479h8.658v-21.065h-37.643v21.065h8.658v-4.479c0-4.579,4.52-8.242,10.039-8.242A12.1,12.1,0,0,1-20120.264,11272.1Zm.561-21.732a3.043,3.043,0,0,1,0-4.3l5.637-5.637a3.042,3.042,0,0,1,4.3,0,3.048,3.048,0,0,1,0,4.3l-5.633,5.632a3.252,3.252,0,0,1-2.227.891A2.913,2.913,0,0,1-20119.7,11250.37Zm-19.4,0-5.486-5.632a3.041,3.041,0,0,1,0-4.3,3.042,3.042,0,0,1,4.3,0l5.637,5.637a3.043,3.043,0,0,1,0,4.3,3.275,3.275,0,0,1-2.227.891A3.012,3.012,0,0,1-20139.107,11250.37Zm8.57-7.261v-8a3.043,3.043,0,0,1,3.113-3.117,3.134,3.134,0,0,1,3.117,3.117v8a3.137,3.137,0,0,1-3.117,3.111A3.234,3.234,0,0,1-20130.537,11243.109Z" transform="translate(20161.639 -11231.987)" fill="currentColor"/>
</svg>
