<svg xmlns="http://www.w3.org/2000/svg" width="24" height="24" viewBox="0 0 24 24">
    <path id="Path_2" data-name="Path 2" d="M0,0H24V24H0Z" fill="none" />
    <path id="Path_6714" data-name="Path 6714" d="M182.329,33.6a6.111,6.111,0,0,0-5.975,6.224,6.38,6.38,0,0,0,.592,2.692.5.5,0,1,0,.9-.412,5.4,5.4,0,0,1-.5-2.28,4.986,4.986,0,1,1,9.959,0,5.4,5.4,0,0,1-.5,2.28.5.5,0,1,0,.9.413,6.377,6.377,0,0,0,.592-2.692A6.111,6.111,0,0,0,182.33,33.6Zm0,1.744a4.369,4.369,0,0,0-4.233,4.481,4.643,4.643,0,0,0,.568,2.224.5.5,0,1,0,.872-.474,3.642,3.642,0,0,1-.444-1.75,3.246,3.246,0,1,1,6.474,0,3.643,3.643,0,0,1-.444,1.75.5.5,0,1,0,.871.474,4.647,4.647,0,0,0,.568-2.225,4.369,4.369,0,0,0-4.233-4.481Zm0,1.742a1.993,1.993,0,0,0-1.993,1.991v6.384l-.046-.109a.1.1,0,0,0-.016-.04,2.615,2.615,0,0,0-1.495-1.439,1.858,1.858,0,0,0-1.431.249l-.024.016a2.042,2.042,0,0,0-.911,1.112,2.723,2.723,0,0,0,.217,1.728l.008.016.747,1.744.008.016a30.689,30.689,0,0,0,4.054,6.583.5.5,0,0,0,.381.179h6.721a.5.5,0,0,0,.3-.1c1.415-1.054,2.424-3.492,2.8-5.813a7.38,7.38,0,0,0-.07-3.221,2.4,2.4,0,0,0-1.977-1.821h-.054a3.193,3.193,0,0,0-.63.054l-.04.008a1.659,1.659,0,0,0-.527-.724,1.76,1.76,0,0,0-1.054-.335,1.439,1.439,0,0,0-.8.264,1.611,1.611,0,0,0-.358-.42,1.81,1.81,0,0,0-1.074-.343,1.94,1.94,0,0,0-.747.163V39.079a1.99,1.99,0,0,0-1.991-1.993Zm0,1a.944.944,0,0,1,1,.988c0,1.306-.007,4.01,0,5.236a.5.5,0,0,0,.949.21,1.054,1.054,0,0,1,.791-.459.942.942,0,0,1,.49.148.626.626,0,0,1,.257.6.5.5,0,0,0,.941.217c.2-.4.311-.463.56-.467a.991.991,0,0,1,.467.148.625.625,0,0,1,.273.6.5.5,0,0,0,.833.358,1.905,1.905,0,0,1,.225-.07,2.392,2.392,0,0,1,.412-.04c.589.083.892.431,1.1,1.112a6.589,6.589,0,0,1,.046,2.768,9.73,9.73,0,0,1-2.326,5.081h-6.259a29.724,29.724,0,0,1-3.781-6.178l-.008-.016-.731-1.713c0-.007,0-.009-.008-.016a1.873,1.873,0,0,1-.187-1.082c.051-.185.188-.328.5-.536l.008-.008a.843.843,0,0,1,.638-.14c.2.055.51.264.879.949l.008.008.973,2.21a.5.5,0,0,0,.957-.2V39.08a.949.949,0,0,1,1-1Z" transform="translate(-171.91 -32.391)" fill="currentColor" />
</svg>