<svg xmlns="http://www.w3.org/2000/svg" width="102.773" height="108.347" viewBox="0 0 102.773 108.347">
    <path id="Path_1" data-name="Path 1" d="M10.193,106.258a7.979,7.979,0,0,1-2.579-5.213L.031,14.376A8.008,8.008,0,0,1,7.3,5.709L72.174.032C72.4.01,72.642,0,72.88,0a8,8,0,0,1,7.96,7.3l.669,7.632L49.4,8.7a7.074,7.074,0,0,0-8.144,4.95,7.986,7.986,0,0,0-.552,1.742L26.762,87.114a8.057,8.057,0,0,0-.13,2.08,7.1,7.1,0,0,0,5.728,7.159l37.464,7.279L16.28,108.316c-.229.021-.466.032-.706.032A7.969,7.969,0,0,1,10.193,106.258ZM99.83,89.75,83.7,73.642a1.724,1.724,0,0,1-.261-.332,22.419,22.419,0,1,1,2.5-2.285,1.725,1.725,0,0,1,.2.168L102.264,87.3A1.726,1.726,0,1,1,99.83,89.75ZM56.274,42.338a18.863,18.863,0,1,0,13.339-5.525A18.806,18.806,0,0,0,56.274,42.338Z" transform="translate(0)" fill="currentColor"/>
</svg>