<svg xmlns="http://www.w3.org/2000/svg" width="90" height="100" viewBox="0 0 93.044 108.346">
    <path d="M44.794,162.2a7.978,7.978,0,0,1-2.578-5.214l-7.583-86.67A8.01,8.01,0,0,1,41.9,61.647l64.871-5.675c.241-.02.479-.031.707-.031a8,8,0,0,1,7.96,7.3l.668,7.633L84,64.635a7.155,7.155,0,0,0-1.354-.131,7.094,7.094,0,0,0-6.787,5.067,8.071,8.071,0,0,0-.555,1.756L61.364,143.051a7.994,7.994,0,0,0-.129,2.084,7.093,7.093,0,0,0,5.728,7.153l.628.122.1.02,36.737,7.141-53.546,4.684c-.236.021-.473.032-.707.032A7.976,7.976,0,0,1,44.794,162.2ZM113.605,134.8l.416-2.429a.769.769,0,0,0-.221-.682l-1.765-1.721a2.31,2.31,0,0,1,1.279-3.939l2.44-.355a.769.769,0,0,0,.577-.421l1.092-2.21a2.309,2.309,0,0,1,4.139,0l1.09,2.21a.768.768,0,0,0,.577.421l2.44.355a2.31,2.31,0,0,1,1.279,3.939l-1.759,1.72a.767.767,0,0,0-.222.682l.417,2.429a2.311,2.311,0,0,1-2.273,2.7c-.756,0-1.022-.239-3.258-1.415a.77.77,0,0,0-.716,0l-2.183,1.147a2.3,2.3,0,0,1-3.348-2.434Zm6.962-.078,2.183,1.146a.768.768,0,0,0,1.119-.812l-.417-2.43a2.305,2.305,0,0,1,.661-2.043l1.765-1.716a.768.768,0,0,0-.426-1.314l-2.44-.355h0a2.308,2.308,0,0,1-1.738-1.263l-1.09-2.21a.77.77,0,0,0-1.382,0l-1.091,2.21a2.308,2.308,0,0,1-1.738,1.263l-2.439.355h0a.769.769,0,0,0-.427,1.314l1.766,1.716a2.308,2.308,0,0,1,.664,2.043l-.417,2.43a.768.768,0,0,0,1.118.812l2.183-1.146a2.3,2.3,0,0,1,2.147,0Zm-36.155,2.735a.769.769,0,0,1-.466-.983,9.221,9.221,0,0,1,2.869-4.058v-29.04a12.029,12.029,0,0,1,12.016-12h5.657A12.03,12.03,0,0,1,116.506,103.4v17.962a.769.769,0,0,1-1.537,0V103.4a10.491,10.491,0,0,0-10.48-10.479H98.832A10.491,10.491,0,0,0,88.353,103.4v28a9.244,9.244,0,0,1,4.315-1.073,3.94,3.94,0,0,0,3.3-1.782.769.769,0,1,1,1.285.843,5.474,5.474,0,0,1-4.589,2.476,7.658,7.658,0,0,0-2.2.323v4.546a.769.769,0,0,1-1.538,0v-3.9a7.722,7.722,0,0,0-3.533,4.158.769.769,0,0,1-.983.466Zm12.745-2.709a.769.769,0,0,1,.77-1.332,7.545,7.545,0,0,0,10.027-2.318,5.465,5.465,0,0,1-2.68-4.4,11.4,11.4,0,0,1-15-10.8v-5.4a.769.769,0,0,1,1.538,0v5.4a9.849,9.849,0,0,0,19.7,0v-8.237a9.331,9.331,0,0,1-4.886-4.016h0a17.248,17.248,0,0,1-10.094,6.815.769.769,0,1,1-.4-1.486,15.255,15.255,0,0,0,9.9-7.286.768.768,0,0,1,1.386.091,7.9,7.9,0,0,0,5.223,4.646.781.781,0,0,1,.23.186c.255.305.177-.165.177,9.355a11.406,11.406,0,0,1-6.245,10.088v.337a3.928,3.928,0,0,0,2.409,3.627,1.982,1.982,0,0,1,.185.079h0a.77.77,0,0,1,.324,1.039,8.989,8.989,0,0,1-8.013,4.826A9.108,9.108,0,0,1,97.158,134.752Zm1.2-14.537a.768.768,0,0,1,1.322-.782,2.354,2.354,0,0,0,4.058,0,.769.769,0,0,1,1.324.78,3.89,3.89,0,0,1-6.7,0Z" transform="translate(-34.602 -55.941)" fill="currentColor"/>
</svg>