<svg xmlns="http://www.w3.org/2000/svg" width="24" height="24" viewBox="0 0 24 24">
        <path id="Path_2" data-name="Path 2" d="M0,0H24V24H0Z" fill="none" />
    <path id="Path_3" data-name="Path 3" d="M8.545,19.053a8.5,8.5,0,1,1,3.985-16l-.752.745A7.44,7.44,0,0,0,3.642,4.986,7.447,7.447,0,0,0,8.606,17.981h.01A7.42,7.42,0,0,0,15.329,7.39l.743-.76A8.492,8.492,0,0,1,8.545,19.053Zm.074-3.327A5.2,5.2,0,1,1,10.126,5.558l-.965.969c-.072-.012-.15-.022-.246-.03l0-.011-.3-.008a4.046,4.046,0,1,0,4.041,4.044,3.823,3.823,0,0,0-.04-.546l.966-.965a5.253,5.253,0,0,1,.228,1.514,5.2,5.2,0,0,1-5.193,5.2Zm0-3.477a1.534,1.534,0,0,1-.167-.006A1.72,1.72,0,0,1,8.1,8.89l.013-.005a1.593,1.593,0,0,1,1.138.034l.273.113,5.765-5.765a1.322,1.322,0,0,0,.379-.942V.9a.192.192,0,0,1,.059-.138l.643-.646a.209.209,0,0,1,.15-.065h.034a.209.209,0,0,1,.15.106l.643,1.2a.964.964,0,0,0,.466.465l1.171.62a.22.22,0,0,1,.111.158.2.2,0,0,1-.061.182l-.657.657a.192.192,0,0,1-.141.056H16.789a1.314,1.314,0,0,0-.923.376L10.12,9.612l-.022.021.11.273a1.685,1.685,0,0,1,.05,1.129A1.71,1.71,0,0,1,8.616,12.249Z" transform="translate(2.454 2.462)" fill="currentColor" />
</svg>