<svg xmlns="http://www.w3.org/2000/svg" width="24" height="24" viewBox="0 0 24 24">
    <path id="Path_4" data-name="Path 4" d="M0,0H24V24H0Z" fill="none" />
    <path id="Path_6" data-name="Path 6" d="M-993.15-501.528a.912.912,0,0,1-.857-.638l-1.937-6.155-6.157-1.938a.909.909,0,0,1-.638-.856.914.914,0,0,1,.158-.527l-.138-.142.593-.207,13.29-4.6a.905.905,0,0,1,.3-.05.9.9,0,0,1,.643.266.916.916,0,0,1,.217.943l-4.6,13.289a.912.912,0,0,1-.86.614Zm-5.775-9.643,3.981,1.254a.914.914,0,0,1,.595.595l1.253,3.979,3.084-8.912Zm10.389,4.531a.913.913,0,0,1-.893-.726l-.019-.019v-.167a.912.912,0,0,1,.911-.911h3.747a1.478,1.478,0,0,0,1.473-1.474v-9.542a1.48,1.48,0,0,0-1.474-1.474h-9.542a1.48,1.48,0,0,0-1.473,1.475v3.748a.912.912,0,0,1-.912.911.912.912,0,0,1-.911-.911v-3.749a3.279,3.279,0,0,1,.967-2.333,3.277,3.277,0,0,1,2.334-.967h9.542a3.3,3.3,0,0,1,3.3,3.3v9.539a3.3,3.3,0,0,1-3.3,3.3Z" transform="translate(1003.739 523.778)" fill="currentColor" />
</svg>