<svg xmlns="http://www.w3.org/2000/svg" width="10.236" height="11.897" viewBox="0 0 10.236 11.897">
    <path fill="none" d="M0 0H24V24H0z" />
    <path id="Path_1" data-name="Path 1" d="M-564.279-307.182a7.534,7.534,0,0,1-3.436-2.79A7.534,7.534,0,0,1-569-314.209v-2.052a1.041,1.041,0,0,1,.649-.969l4.066-1.689a1.036,1.036,0,0,1,.4-.08,1.028,1.028,0,0,1,.4.082l4.065,1.688a1.042,1.042,0,0,1,.647.968v2.054a7.527,7.527,0,0,1-1.285,4.235,7.531,7.531,0,0,1-3.438,2.791,1.029,1.029,0,0,1-.394.077A1.047,1.047,0,0,1-564.279-307.182ZM-563.9-318l-4.071,1.691a.047.047,0,0,0-.031.044v2.055a6.532,6.532,0,0,0,1.115,3.677,6.527,6.527,0,0,0,2.983,2.422.061.061,0,0,0,.021,0,.038.038,0,0,0,.015,0,6.538,6.538,0,0,0,2.986-2.422,6.543,6.543,0,0,0,1.115-3.677v-2.055a.046.046,0,0,0-.029-.044l-4.07-1.69a.048.048,0,0,0-.02,0A.048.048,0,0,0-563.9-318Zm-.83,6.364-1.161-1.158a.553.553,0,0,1-.131-.4.553.553,0,0,1,.193-.378.549.549,0,0,1,.7,0l.786.779,1.691-1.691a.545.545,0,0,1,.764-.061.549.549,0,0,1,.07.772.559.559,0,0,1-.069.069l-2.07,2.07a.546.546,0,0,1-.387.158h0A.546.546,0,0,1-564.728-311.633Z" transform="translate(569 319)" fill="currentColor" />
</svg>