<svg xmlns="http://www.w3.org/2000/svg" width="10.235" height="11.896" viewBox="0 0 10.235 11.896">
    <path fill="none" d="M0 0H24V24H0z" />
    <path id="Path_1" data-name="Path 1" d="M-564.279-307.182a7.541,7.541,0,0,1-3.436-2.79A7.531,7.531,0,0,1-569-314.209v-2.052a1.041,1.041,0,0,1,.649-.969l4.066-1.689a1.029,1.029,0,0,1,.4-.08,1.018,1.018,0,0,1,.4.082l4.065,1.688a1.039,1.039,0,0,1,.647.968v2.054a7.529,7.529,0,0,1-1.285,4.235,7.541,7.541,0,0,1-3.438,2.791,1.029,1.029,0,0,1-.394.077A1.061,1.061,0,0,1-564.279-307.182ZM-563.9-318l-4.073,1.692a.047.047,0,0,0-.031.044v2.055a6.534,6.534,0,0,0,1.115,3.677,6.529,6.529,0,0,0,2.983,2.422.066.066,0,0,0,.021,0,.038.038,0,0,0,.015,0,6.548,6.548,0,0,0,2.986-2.422,6.549,6.549,0,0,0,1.115-3.677v-2.055a.045.045,0,0,0-.029-.044l-4.07-1.69a.041.041,0,0,0-.02-.005Zm-1.595,6.866a.432.432,0,0,1-.313-.314.432.432,0,0,1,.125-.42l1.186-1.186-1.186-1.186a.431.431,0,0,1-.125-.42.43.43,0,0,1,.313-.313.411.411,0,0,1,.105-.013.431.431,0,0,1,.315.137l1.186,1.187,1.187-1.187a.438.438,0,0,1,.42-.124.43.43,0,0,1,.313.313.431.431,0,0,1-.125.42l-1.186,1.186,1.186,1.185a.432.432,0,0,1,.125.42.432.432,0,0,1-.313.314.438.438,0,0,1-.42-.125l-1.186-1.186-1.187,1.187a.437.437,0,0,1-.319.137A.431.431,0,0,1-565.491-311.132Z" transform="translate(569 319)" fill="currentColor" />
</svg>