<svg xmlns="http://www.w3.org/2000/svg" width="100.132" height="100.129" viewBox="0 0 100.132 100.129">
  <g id="Group_1" data-name="Group 1" transform="translate(-932.868 -513.001)">
    <circle id="Ellipse_1" data-name="Ellipse 1" cx="50" cy="50" r="50" transform="translate(933 513.129)" fill="#fff"/>
    <path id="Path_3" data-name="Path 3" d="M4608.077-2916.306a49.88,49.88,0,0,1-15.914-10.728,49.88,49.88,0,0,1-10.731-15.914,49.753,49.753,0,0,1-3.933-19.489,49.742,49.742,0,0,1,3.935-19.487,49.9,49.9,0,0,1,10.729-15.915,49.9,49.9,0,0,1,15.914-10.728,49.76,49.76,0,0,1,19.488-3.933,49.776,49.776,0,0,1,19.486,3.933,49.953,49.953,0,0,1,15.915,10.728,49.945,49.945,0,0,1,10.731,15.915,49.74,49.74,0,0,1,3.935,19.486,49.787,49.787,0,0,1-3.935,19.489,49.9,49.9,0,0,1-10.731,15.915,49.9,49.9,0,0,1-15.913,10.727,49.738,49.738,0,0,1-19.488,3.936,49.727,49.727,0,0,1-19.488-3.936Zm18.285-76.967-23.2,9.642a3.1,3.1,0,0,0-1.933,2.885v11.711a40.107,40.107,0,0,0,6.842,22.571,40.1,40.1,0,0,0,18.309,14.866,3.159,3.159,0,0,0,1.181.235,3.153,3.153,0,0,0,1.183-.235,40.089,40.089,0,0,0,18.313-14.867,40.1,40.1,0,0,0,6.842-22.57v-11.711a3.105,3.105,0,0,0-1.931-2.884l-23.206-9.643a3.042,3.042,0,0,0-1.2-.243,3.052,3.052,0,0,0-1.195.245Zm-8.3,41.621a1.5,1.5,0,0,1-.441-1.061,1.5,1.5,0,0,1,.44-1.062l8.666-8.66-8.663-8.665a1.5,1.5,0,0,1,0-2.124,1.5,1.5,0,0,1,2.124,0l8.659,8.666,8.661-8.661a1.5,1.5,0,0,1,2.124,0,1.5,1.5,0,0,1,0,2.122l-8.659,8.659,8.661,8.666a1.5,1.5,0,0,1,.44,1.061,1.5,1.5,0,0,1-.44,1.061,1.5,1.5,0,0,1-1.061.44,1.5,1.5,0,0,1-1.062-.44l-8.664-8.661-8.661,8.661a1.5,1.5,0,0,1-1.064.443,1.492,1.492,0,0,1-1.058-.44Z" transform="translate(-3644.632 3525.5)" fill="#db4b20"/>
  </g>
</svg>
