<svg xmlns="http://www.w3.org/2000/svg" width="24" height="24" viewBox="0 0 24 24">
    <g id="Group_2" data-name="Group 2" transform="translate(152 -27)">
        <path id="Path_4" data-name="Path 4" d="M0,0H24V24H0Z" transform="translate(-152 27)" fill="none" />
        <path id="Path_5" data-name="Path 5" d="M-1141.9-470.5a2.015,2.015,0,0,1-.754-.148,14.9,14.9,0,0,1-6.8-5.522,14.9,14.9,0,0,1-2.542-8.385v-4.087a1.977,1.977,0,0,1,1.233-1.84l8.1-3.363a1.969,1.969,0,0,1,.764-.154,1.976,1.976,0,0,1,.768.155l8.1,3.364a1.979,1.979,0,0,1,1.227,1.84v4.087a14.9,14.9,0,0,1-2.542,8.384,14.906,14.906,0,0,1-6.8,5.522A1.985,1.985,0,0,1-1141.9-470.5Zm0-21.7a.174.174,0,0,0-.069.014l-.005,0-8.1,3.365a.185.185,0,0,0-.12.175v4.091a13.119,13.119,0,0,0,2.237,7.379,13.1,13.1,0,0,0,5.983,4.858.2.2,0,0,0,.077.016.2.2,0,0,0,.068-.014,13.116,13.116,0,0,0,5.989-4.86,13.106,13.106,0,0,0,2.236-7.376v-4.092a.187.187,0,0,0-.115-.176l-8.11-3.367A.173.173,0,0,0-1141.9-492.2Zm-1.186,12.746a.95.95,0,0,1-.665-.275l-2.012-2.007a.953.953,0,0,1-.229-.7.964.964,0,0,1,.337-.654.951.951,0,0,1,.608-.22.951.951,0,0,1,.608.22l1.359,1.349,2.932-2.931a.943.943,0,0,1,.715-.327.947.947,0,0,1,.609.222.954.954,0,0,1,.122,1.338,1.015,1.015,0,0,1-.121.121l-3.587,3.589a.954.954,0,0,1-.668.275Z" transform="translate(1002 521)" fill="currentColor" />
    </g>
</svg>