<svg xmlns="http://www.w3.org/2000/svg" width="20" height="20" viewBox="0 0 24 24">
    <path d="M0,0H24V24H0Z" fill="none" />
    <path d="M10.112,23.524h-.006a2.1,2.1,0,0,1-.769-.154A14.925,14.925,0,0,1,0,9.472V5.415A2.041,2.041,0,0,1,1.283,3.5L9.324.159A2.033,2.033,0,0,1,10.114,0h.006a1.99,1.99,0,0,1,.785.162L18.944,3.5a2.034,2.034,0,0,1,1.279,1.913V9.476a14.765,14.765,0,0,1-2.541,8.374,14.8,14.8,0,0,1-6.8,5.52A2.041,2.041,0,0,1,10.112,23.524ZM6.68,7.458a1.07,1.07,0,0,0-.239.029.984.984,0,0,0-.429,1.677L8.72,11.875,6.012,14.583a.986.986,0,0,0,.429,1.679l.008,0a.883.883,0,0,0,.2.023h.029a1,1,0,0,0,.722-.313l2.713-2.713,2.711,2.711a1,1,0,0,0,.958.286.986.986,0,0,0,.43-1.678L11.5,11.875l2.709-2.711a.985.985,0,0,0-.43-1.677,1,1,0,0,0-.958.284l-2.713,2.713L7.4,7.772A.985.985,0,0,0,6.68,7.458Z" transform="translate(2 0.238)" fill="currentColor" />
</svg>