<svg xmlns="http://www.w3.org/2000/svg" width="32" height="22.811" viewBox="0 0 32 22.811">
    <g id="noun_ads_1775264" transform="translate(0.498 0.556)">
        <g id="Group_7230" data-name="Group 7230" transform="translate(-0.498 -0.555)">
            <path id="Path_11419" data-name="Path 11419" d="M18895.357,21777.123a1.119,1.119,0,0,1-1.059-.848l-1.668-7.363a6.828,6.828,0,0,1-3.205-1.2,3.991,3.991,0,0,1,0-6.795,7.059,7.059,0,0,1,3.973-1.238l18.334-5.289a.859.859,0,0,1,.172-.031l.426-.051v.088a1.157,1.157,0,0,1,.479.293,1.09,1.09,0,0,1,.322.76v17.742a1.134,1.134,0,0,1-1.121,1.082.892.892,0,0,1-.277-.041l-12.781-3.682,1.367,5.191a1.122,1.122,0,0,1-1.051,1.377Zm.871-2.18h1.619l-1.334-5.1-1.547-.437Zm14.063-17.854v14.453l.656.191V21756.9Zm-15.613,4.5v5.449l13.43,3.873v-13.2Zm-3.973,1.1a2.082,2.082,0,0,0-1,1.631,2.058,2.058,0,0,0,1,1.623,4.351,4.351,0,0,0,1.748.662v-4.582A4.351,4.351,0,0,0,18890.705,21762.691Zm26.789,8.943-2.838-1.773a1.094,1.094,0,0,1,.529-2.029h.043a1.075,1.075,0,0,1,.586.172l2.836,1.775a1.086,1.086,0,0,1-.6,2.008A1.061,1.061,0,0,1,18917.494,21771.635Zm-3.387-7.615a1.11,1.11,0,0,1,.293-.781,1.089,1.089,0,0,1,.748-.361h3.285a1.093,1.093,0,1,1,0,2.186h-3.223A1.13,1.13,0,0,1,18914.107,21764.02Zm.2-4.445a1.125,1.125,0,0,1,.344-1.508l2.836-1.773a1.056,1.056,0,0,1,.475-.166.853.853,0,0,1,.125-.01,1.093,1.093,0,0,1,.561,2.035l-2.838,1.768a1.022,1.022,0,0,1-.561.16A1.1,1.1,0,0,1,18914.307,21759.574Z" transform="translate(-18887.529 -21754.313)" fill="currentColor"></path>
        </g>
    </g>
</svg>