<svg xmlns="http://www.w3.org/2000/svg" width="90" height="100" viewBox="0 0 94.848 108.346">
    <path id="Path_1" data-name="Path 1" d="M10.192,106.257a7.984,7.984,0,0,1-2.578-5.215L.031,14.373A8.01,8.01,0,0,1,7.3,5.706L72.174.031C72.415.01,72.653,0,72.88,0a8,8,0,0,1,7.96,7.3l.668,7.634L49.4,8.694a7.153,7.153,0,0,0-1.353-.13,7.1,7.1,0,0,0-6.788,5.069,8.064,8.064,0,0,0-.555,1.755L26.762,87.111a8.033,8.033,0,0,0-.129,2.084,7.093,7.093,0,0,0,5.728,7.153l12.31,2.392,25.152,4.89L16.28,108.315c-.236.021-.473.032-.706.032A7.976,7.976,0,0,1,10.192,106.257Zm66.257-22.8a1.587,1.587,0,0,1-.025-2.243l11.46-11.716a13.479,13.479,0,0,0,0-18.75L76.424,39.028a1.586,1.586,0,0,1,2.268-2.218L90.149,48.528a16.649,16.649,0,0,1,0,23.184L78.692,83.428a1.586,1.586,0,0,1-2.243.025Zm-14.5-7.425L50.726,64.552A12.184,12.184,0,0,1,47.3,55.337l.758-13.18a5.037,5.037,0,0,1,4.694-4.77l12.889-.775A11.7,11.7,0,0,1,74.7,40.135L85.928,51.611a12.219,12.219,0,0,1,0,17.017l-7.238,7.4a11.66,11.66,0,0,1-16.74,0Zm3.877-36.249-12.889.775a1.866,1.866,0,0,0-1.718,1.786l-.758,13.18a9.011,9.011,0,0,0,2.531,6.815L64.218,73.811a8.489,8.489,0,0,0,12.207,0l7.237-7.4a9.048,9.048,0,0,0,0-12.583L72.437,42.352a8.532,8.532,0,0,0-6.1-2.588Q66.081,39.764,65.828,39.779Zm-6.893,19.6a7.787,7.787,0,0,1,0-10.851,7.462,7.462,0,0,1,10.71,0,7.787,7.787,0,0,1,0,10.851,7.464,7.464,0,0,1-10.71,0ZM61.2,50.746a4.617,4.617,0,0,0,0,6.416,4.292,4.292,0,0,0,6.176,0,4.617,4.617,0,0,0,0-6.416,4.291,4.291,0,0,0-6.176,0Z" transform="translate(0)" fill="currentColor"/>
</svg>