<svg xmlns="http://www.w3.org/2000/svg" width="90" height="100" viewBox="0 0 124.598 128.408">
    <path id="Path_1" data-name="Path 1" d="M11.914,126.186a8.478,8.478,0,0,1-2.739-5.539L.032,16.146A8.512,8.512,0,0,1,7.759,6.937L86.674.032c.256-.022.508-.032.75-.032a8.5,8.5,0,0,1,8.459,7.76l.987,11.283L57.943,11.476a7.592,7.592,0,0,0-1.439-.139,7.51,7.51,0,0,0-7.355,6.071L32.254,104.324a7.509,7.509,0,0,0,5.931,8.793l44.486,8.647-.052.989-64.236,5.621c-.25.022-.5.033-.75.033A8.473,8.473,0,0,1,11.914,126.186Zm87.467-16.31-54.449-22a1.95,1.95,0,0,1-1.076-2.534L66.4,29.552a1.95,1.95,0,0,1,2.534-1.076l54.449,22a1.951,1.951,0,0,1,1.076,2.534L101.915,108.8a1.947,1.947,0,0,1-2.534,1.076ZM75.418,96l23.616,9.54,9.812-24.284L85.231,71.711ZM48.194,85,71.81,94.538,87.257,56.3,63.642,46.762ZM86.689,68.1,110.3,77.642l9.811-24.285L96.5,43.816ZM65.1,43.154l23.616,9.541,4.176-10.337L69.277,32.816Z" fill="currentColor" />
</svg>