<svg xmlns="http://www.w3.org/2000/svg" width="90" height="100" viewBox="0 0 107.216 127.407">
    <path id="Path_1" data-name="Path 1" d="M56.358,191.057a7.976,7.976,0,0,1-2.578-5.213l-9.143-104.5a8.009,8.009,0,0,1,7.272-8.667l78.916-6.9c.235-.021.473-.032.706-.032a8,8,0,0,1,7.96,7.3l.93,10.623-38.278-7.44a7.991,7.991,0,0,0-9.379,6.327l-16.9,86.917A8.01,8.01,0,0,0,82.2,178.85l44.486,8.647-64.235,5.62c-.234.021-.472.031-.707.031A7.97,7.97,0,0,1,56.358,191.057Zm74.454-25.52-27.869-11.26a2.147,2.147,0,0,1-1.186-2.8l12.066-29.866-3.983-1.609,1.609-3.982,9.955,4.023,17.087,6.9L116.17,108.221l2.746-3.272,8.247,6.919,2.754-3.282,16.448,13.8-2.754,3.282,8.211,6.89-1.413,1.684-.748,1.852-3.983-1.609-12.066,29.867a2.147,2.147,0,0,1-2.8,1.184ZM106.542,151.1l23.892,9.653L141.7,132.878,117.8,123.224Zm16.351-.341,6.434-15.929,3.982,1.609-6.435,15.928Zm-7.965-3.218,6.436-15.928,3.982,1.609-6.436,15.928Z" transform="translate(-44.606 -65.74)" fill="currentColor"/>
</svg>