<svg xmlns="http://www.w3.org/2000/svg" width="229.645" height="193.606" viewBox="0 0 229.645 193.606">
  <g id="ugc-uploader-line" transform="translate(2308.749 370.758)">
    <path d="M-3174.675-693.456a4.9,4.9,0,0,1-2.632-.766c-5.822-3.7-12.1-7.694-18.545-11.813-2.247-1.434-4.519-2.89-6.715-4.3l-1.75-1.121c-7.247-4.645-14.741-9.449-22.159-14.076a6.007,6.007,0,0,0-2.923-.876c-14.048-.069-27.959-.069-41.415-.069h-1.533c-7.9,0-16.076,0-24.115-.012-.2,0-.394.006-.59.006a27.6,27.6,0,0,1-15.781-4.93c-.042-.029-.083-.058-.125-.089a24.21,24.21,0,0,1-9.17-13.932,29.35,29.35,0,0,1-.819-6.948c-.069-22.3-.072-45.085-.008-67.731a26.691,26.691,0,0,1,5.41-16.533l.078-.1a24.661,24.661,0,0,1,14.71-8.814l.091-.016a31.97,31.97,0,0,1,5.251-.437c.284,0,.6,0,.951.013h6.818c10.429,0,20.967.011,30.8.023h.559c9.024.009,20.255.02,30.9.02,22.927,0,40.53-.051,57.073-.166h.165a26.507,26.507,0,0,1,10.563,1.994,26.5,26.5,0,0,1,8.61,5.7l.091.092a26.347,26.347,0,0,1,5.62,8.863,26.349,26.349,0,0,1,1.737,10.3c-.354,23.909-.348,45.255.019,65.258a27.416,27.416,0,0,1-1.717,10.74,27.424,27.424,0,0,1-5.781,9.284c-.02.022-.043.045-.067.068a24.25,24.25,0,0,1-7.969,5.405,24.275,24.275,0,0,1-9.437,1.9h-.021c-.413,0-.835-.008-1.259-.026v28.18a4.912,4.912,0,0,1-4.907,4.906Zm-97.672-35.02h1.533c13.466,0,27.39,0,41.451.07a8.014,8.014,0,0,1,3.938,1.174c7.427,4.634,14.93,9.444,22.186,14.094l1.75,1.121c2.2,1.409,4.471,2.866,6.712,4.3,6.436,4.11,12.715,8.105,18.542,11.811a2.909,2.909,0,0,0,1.56.454h.005a2.907,2.907,0,0,0,2.907-2.906v-30.185q.642-.02,1.284-.02h.312l.188.011-.188-.011h-.312q-.641,0-1.284.02v30.185a2.907,2.907,0,0,1-2.907,2.906h-.005a2.909,2.909,0,0,1-1.56-.454c-5.827-3.705-12.106-7.7-18.542-11.811-2.241-1.431-4.514-2.887-6.712-4.3l-1.75-1.121c-7.256-4.65-14.758-9.46-22.186-14.094a8.014,8.014,0,0,0-3.938-1.174c-14.062-.07-27.986-.07-41.451-.07h-1.533c-7.911,0-16.09,0-24.135-.011-.189,0-.38.006-.569.006a25.612,25.612,0,0,1-14.643-4.575l-.074-.052a22.211,22.211,0,0,1-8.415-12.789,27.376,27.376,0,0,1-.764-6.383,27.376,27.376,0,0,0,.764,6.383,22.211,22.211,0,0,0,8.415,12.789l.074.052a25.612,25.612,0,0,0,14.643,4.575c.189,0,.38,0,.569-.006C-3288.436-728.476-3280.257-728.476-3272.346-728.476Zm94.771,24.826h0l-6.373-4.057ZM-3296.486-736.3c8.045.012,16.226.012,24.14.012h1.533c13.486,0,27.43,0,41.523.07.036,0,.072,0,.107,0a15.826,15.826,0,0,1,7.855,2.332l.031.019c7.472,4.662,15,9.485,22.275,14.15l1.75,1.121c2.192,1.4,4.459,2.858,6.7,4.289,3.353,2.142,6.9,4.406,11,7.012v-23.98a4.892,4.892,0,0,1,1.275-3.3,4.893,4.893,0,0,1,3.162-1.585c1.539-.148,3.107-.223,4.66-.223h.409c.111,0,.223,0,.335.012.357.024.737.038,1.158.04h.1a14.5,14.5,0,0,0,5.636-1.136,14.493,14.493,0,0,0,4.731-3.2,17.634,17.634,0,0,0,3.689-5.942,17.656,17.656,0,0,0,1.1-6.955c0-.038,0-.077,0-.117-.37-20.141-.376-41.626-.019-65.683,0-.031,0-.061,0-.09a16.586,16.586,0,0,0-1.093-6.516,16.579,16.579,0,0,0-3.494-5.532,16.726,16.726,0,0,0-5.391-3.554,16.722,16.722,0,0,0-6.7-1.259h-.248c-16.558.114-34.176.166-57.123.166-10.65,0-21.884-.012-30.912-.021h-.548c-9.847-.011-20.391-.022-30.8-.022h-6.921c-.076,0-.154,0-.229-.005-.165-.008-.385-.008-.617-.008a22.075,22.075,0,0,0-3.587.3,14.844,14.844,0,0,0-8.771,5.247,16.833,16.833,0,0,0-3.372,10.413c0,.034,0,.071,0,.109-.064,22.644-.062,45.434.007,67.739v.022a19.632,19.632,0,0,0,.547,4.647l.011.046a14.4,14.4,0,0,0,5.393,8.246,17.84,17.84,0,0,0,10.133,3.141c.14,0,.282,0,.422,0l.117,0Zm127.983,7.784h.021a22.29,22.29,0,0,0,8.663-1.744,22.29,22.29,0,0,0,7.316-4.963l.039-.041a25.412,25.412,0,0,0,5.362-8.609,25.4,25.4,0,0,0,1.613-8.942,25.4,25.4,0,0,1-1.613,8.942,25.412,25.412,0,0,1-5.362,8.609l-.039.041a22.29,22.29,0,0,1-7.316,4.963,22.29,22.29,0,0,1-8.663,1.744h-.021Zm-.018,0h-.334Zm-1.32-.033h0Zm-.074,0-.054,0Zm-144.633-18.777a21.592,21.592,0,0,1-.585-4.963A21.586,21.586,0,0,0-3314.549-747.33Zm-.585-5.043v0Zm-5.812-.009c-.036-11.5-.054-23.131-.054-34.8C-3321-775.513-3320.982-763.883-3320.946-752.382Zm169.625-1.331c0,.023,0,.046,0,.069q.019.435.018.868,0-.433-.018-.868c0-.023,0-.046,0-.069-.188-10.216-.282-20.78-.282-31.85C-3151.6-774.493-3151.509-763.93-3151.321-753.713Zm5.792-65.5c-.175,11.786-.262,22.95-.262,33.639,0-10.689.087-21.854.262-33.639q.012-.383.013-.766Q-3145.516-819.6-3145.529-819.218ZM-3315.188-787.2c0-10.967.015-21.972.047-32.943C-3315.172-809.169-3315.188-798.164-3315.188-787.2Zm152.632-49.705a18.723,18.723,0,0,1,6.057,4,18.564,18.564,0,0,1,3.936,6.221,18.557,18.557,0,0,1,1.235,6.711,18.557,18.557,0,0,0-1.235-6.711,18.564,18.564,0,0,0-3.936-6.221,18.723,18.723,0,0,0-6.057-4Zm-158.4,16.776q0-.193,0-.386Q-3320.957-820.319-3320.953-820.126Zm19.6-17.748a16.841,16.841,0,0,0-10,5.987,18.846,18.846,0,0,0-3.8,11.29,18.841,18.841,0,0,1,3.8-11.29,16.836,16.836,0,0,1,10-5.987,24.25,24.25,0,0,1,3.937-.326c.256,0,.5,0,.712.01.045,0,.09,0,.135,0h6.921c10.434,0,20.966.01,30.8.022h.485c9.045.009,20.3.021,30.975.021,22.944,0,40.559-.051,57.116-.167h0c-16.557.115-34.172.167-57.116.167-10.674,0-21.93-.012-30.975-.021h-.485c-9.83-.012-20.362-.022-30.8-.022h-6.921c-.045,0-.09,0-.135,0-.213-.01-.455-.01-.712-.01A24.25,24.25,0,0,0-3301.349-837.874Zm138.083.7-.068-.025Zm-6.6-1.136h0Zm.227,0h0Zm9.011-4.08-.155-.061Zm-9.281-1.732h0Zm.246,0h0Z" transform="translate(1064.385 475.368)" fill="currentColor"/>
    <path d="M-3294.143-704.874a4.915,4.915,0,0,1-1.988-1.809,4.9,4.9,0,0,1-.736-2.586v-29.315c-.479,0-.913-.009-1.332-.019h-.606l-.12,0a24.472,24.472,0,0,1-17.24-7.641,24.478,24.478,0,0,1-6.789-17.522c-.063-18.94-.063-38.149,0-57.1v-.61a24.734,24.734,0,0,1,7.386-17.429,24.731,24.731,0,0,1,17.492-7.189h.215c1.6-.023,3.31-.033,5.376-.033,1.49,0,2.942.005,4.479.011h.025c1.522.005,3.1.011,4.682.011a4.912,4.912,0,0,1,4.906,4.907c0,.105,0,.211-.01.317,0,4.3-.007,8.593-.014,12.747v.009c-.017,9.793-.032,19.043.033,28.481,0,.036,0,.071,0,.107a26.672,26.672,0,0,0,1.462,9.132,26.738,26.738,0,0,0,4.333,7.891,26.74,26.74,0,0,0,6.7,6.015,26.659,26.659,0,0,0,8.547,3.5,35.042,35.042,0,0,0,7.772.762h.089c10.262.044,20.666.066,30.926.066,10.913,0,21.981-.025,32.9-.075h.055c4.324,0,8.761.5,11.8,4.456.093.181.483.642.771,1.086.709,1.114,1.924,2.663,1.313,6.727a24.576,24.576,0,0,1-8.628,15.638,26.906,26.906,0,0,1-17.277,5.858c-3.551.012-7.345.017-12.3.017q-6.327,0-12.654,0c-7.4,0-15.357.01-23.41.082a4.307,4.307,0,0,0-2.376.833c-9.443,7.394-18.979,15.008-28.2,22.371-3.083,2.461-6.267,5-9.424,7.52-.677.543-1.344,1.048-2.266,1.745l-.044.034-.692.525a4.936,4.936,0,0,1-2.967,1A4.935,4.935,0,0,1-3294.143-704.874Zm-.725-4.395a2.907,2.907,0,0,0,1.615,2.6,2.909,2.909,0,0,0,1.292.3,2.905,2.905,0,0,0,1.757-.59l.738-.559c.911-.689,1.569-1.188,2.226-1.715,3.143-2.5,6.335-5.053,9.422-7.518,9.234-7.373,18.782-15,28.24-22.4a6.3,6.3,0,0,1,3.539-1.24c8.072-.073,16.043-.083,23.458-.083q6.327,0,12.654,0c4.949,0,8.741,0,12.295-.016a24.926,24.926,0,0,0,16.012-5.4,22.6,22.6,0,0,0,7.922-14.391,10.078,10.078,0,0,0,.119-1.462,10.078,10.078,0,0,1-.119,1.462,22.6,22.6,0,0,1-7.922,14.391,24.926,24.926,0,0,1-16.012,5.4c-3.554.012-7.346.016-12.295.016q-6.327,0-12.654,0c-7.414,0-15.385.01-23.458.083a6.3,6.3,0,0,0-3.539,1.24c-9.458,7.408-19.006,15.031-28.24,22.4-3.087,2.464-6.279,5.013-9.422,7.518-.657.526-1.315,1.025-2.226,1.715l-.738.559a2.905,2.905,0,0,1-1.757.59,2.909,2.909,0,0,1-1.292-.3A2.907,2.907,0,0,1-3294.868-709.268Zm5.812-5.945v0Zm0,0c2.472-1.97,4.954-3.952,7.375-5.885C-3284.1-719.166-3286.584-717.183-3289.055-715.214Zm2-28.3v24.142l4.361-3.482c9.257-7.39,18.827-15.033,28.325-22.47l.085-.064a14.07,14.07,0,0,1,8.027-2.813l.111,0c8.115-.073,16.122-.083,23.564-.083q6.327,0,12.654,0c4.942,0,8.727-.005,12.27-.016a17.235,17.235,0,0,0,11.071-3.621c2.526-2.08,4.838-6.295,4.808-8.633-.192-1.657-2.8-1.884-3.815-1.885h-.023c-10.928.049-22.011.075-32.938.075-10.259,0-20.663-.022-30.925-.066-.191,0-.385,0-.576,0a44.928,44.928,0,0,1-9.341-.984l-.022,0a36.455,36.455,0,0,1-11.7-4.79,36.487,36.487,0,0,1-9.152-8.216,36.525,36.525,0,0,1-5.918-10.782,36.465,36.465,0,0,1-2-12.429c-.066-9.466-.049-18.724-.033-28.524v-.084c0-2.638.01-5.347.012-8.069-1.466-.005-2.857-.01-4.268-.01-2.041,0-3.723.01-5.294.032h-.3a14.975,14.975,0,0,0-10.592,4.354,14.981,14.981,0,0,0-4.474,10.53v.553c-.062,18.949-.062,38.164,0,57.109,0,.044,0,.091,0,.137a14.724,14.724,0,0,0,4.084,10.587,14.727,14.727,0,0,0,10.317,4.6h.6l.123,0c.542.013,1.12.02,1.819.02.611,0,1.239-.005,1.905-.01.743-.005,1.508-.012,2.332-.012A4.912,4.912,0,0,1-3287.055-743.509Zm-27.662-4.115a22.489,22.489,0,0,0,15.84,7.02l.071,0h.629c.6.014,1.228.021,1.977.021.439,0,.879,0,1.331-.005-.453,0-.892.005-1.331.005-.75,0-1.38-.006-1.977-.021h-.629l-.071,0a22.489,22.489,0,0,1-15.84-7.02,22.485,22.485,0,0,1-6.243-15.56A22.485,22.485,0,0,0-3314.716-747.624Zm129.117-16.811c1.688,0,2.935.848,4.831,2.23.433.316.874.638,1.336.952-.463-.314-.9-.636-1.336-.952-1.9-1.382-3.143-2.23-4.831-2.23h-.023c-10.926.05-22.006.076-32.933.076-10.263,0-20.669-.023-30.934-.067,10.265.044,20.671.067,30.934.067,10.927,0,22.007-.025,32.933-.076Zm-129.542.788q-.005.211-.005.421,0-.21.005-.421c0-.02,0-.04,0-.061C-3315.141-763.687-3315.141-763.667-3315.142-763.646Zm-5.811-.1c-.031-9.474-.047-19.015-.047-28.557C-3321-782.764-3320.985-773.222-3320.953-763.748Zm70.888-.674h0Zm.009,0,.4,0Zm-8.052-.763-.246-.048Zm-26.2-22.667a34.494,34.494,0,0,0,5.6,10.193,34.522,34.522,0,0,0,8.652,7.768A34.474,34.474,0,0,0-3259-765.365l.015,0,.376.078-.376-.078-.015,0a34.474,34.474,0,0,1-11.061-4.526,34.522,34.522,0,0,1-8.652-7.768,34.494,34.494,0,0,1-5.6-10.193,34.436,34.436,0,0,1-1.894-11.3A34.436,34.436,0,0,0-3284.3-787.852Zm34.246,17.618h0Zm0,0,.374,0Zm-60.015-63.115a16.966,16.966,0,0,0-5.067,11.941v.557c-.031,9.477-.047,19.02-.047,28.563,0-9.543.016-19.086.047-28.563v-.557a16.966,16.966,0,0,1,5.067-11.941,16.964,16.964,0,0,1,12-4.932l.226,0h.042c1.581-.023,3.272-.033,5.323-.033,1.467,0,2.916.005,4.451.011l1.818.006-1.818-.006c-1.535-.005-2.985-.011-4.451-.011-2.05,0-3.742.011-5.323.033h-.268A16.964,16.964,0,0,0-3310.074-833.35Zm29.691,33.781q0,.236,0,.472,0-.236,0-.472v0Zm-5.812-.052c-.036-5.175-.048-10.29-.048-15.466C-3286.243-809.91-3286.232-804.8-3286.2-799.62Zm5.793-41.333c0,4.31-.008,8.633-.014,12.816-.008,4.288-.015,8.471-.015,12.612,0-4.141.007-8.325.015-12.612.006-4.183.014-8.506.014-12.816.006-.081.01-.163.01-.245C-3280.392-841.116-3280.4-841.034-3280.4-840.953Z" transform="translate(1014.252 527.209)" fill="currentColor"/>
    <path d="M-3303.538-759.5a4.99,4.99,0,0,1-3.669-1.616l0,0a5,5,0,0,1-1.283-3.8c.076-.853.127-1.631.171-2.354a36.426,36.426,0,0,1,.482-4.57,2.511,2.511,0,0,1,.053-.3c1.276-6.382,2.608-12.623,3.958-18.556l-1.749-1.563c-3.846-3.436-8.207-7.331-12.379-11.177-.068-.061-.133-.124-.2-.191a52.06,52.06,0,0,1-3.783-4.313,4.97,4.97,0,0,1-.951-4.1l.236-1.11a5.014,5.014,0,0,1,4.085-3.883l.013,0c.677-.1,1.363-.221,2.063-.342l.743-.127c2.042-.348,4.356-.743,6.677-1.011,4.053-.468,8.435-.89,14.145-1.364,2.13-5.371,4.645-11.663,7.248-17.922l.049-.113a33.139,33.139,0,0,1,1.975-3.759c.3-.526.683-1.175,1.062-1.863a4.99,4.99,0,0,1,4.262-2.578h.1a5.009,5.009,0,0,1,4.261,2.4c.177.292.357.578.533.855l.084.134c.069.107.136.212.2.318l.236.365a25.784,25.784,0,0,1,2.046,3.574l.023.053.042.095c2.532,5.88,5.052,11.935,7.491,18,.044.107.085.22.123.336.091,0,.183.005.273.012h.008c6.674.491,13.6,1.21,19.717,1.844l.06.006.688.077a14,14,0,0,1,3.2.9c.389.144.747.274,1.149.4a4.976,4.976,0,0,1,3.249,3.316,4.971,4.971,0,0,1-.892,4.548c-.36.454-.693.881-1.074,1.383a26.046,26.046,0,0,1-2.664,3.14l-.1.1c-4.43,4.191-9.2,8.658-14.045,12.928l-.038.032-.122.1a.406.406,0,0,0-.141.454c.038.119.072.242.1.366l.145.613c1.348,5.737,2.743,11.669,4.019,17.661l.024.129a32.29,32.29,0,0,1,.513,4.521c.011.151.021.3.029.427l.02.276c.035.5.071,1.009.122,1.544v.005a5,5,0,0,1-2.071,4.519,4.943,4.943,0,0,1-2.888.923,4.953,4.953,0,0,1-2.058-.445c-.7-.318-1.351-.591-1.927-.833a29.362,29.362,0,0,1-3.709-1.758l-.119-.07-2.334-1.4c-4.031-2.415-8.2-4.912-12.237-7.7a4.662,4.662,0,0,1-.375-.285l0,0a1.668,1.668,0,0,0-1.072-.39,1.677,1.677,0,0,0-1.1.409,5.015,5.015,0,0,1-.408.322c-4.215,2.957-8.592,5.666-12.826,8.287l-.1.06c-.069.044-.143.086-.218.126l-1.436.885a27.274,27.274,0,0,1-3.737,1.794c-.744.315-1.353.581-1.914.834l-.013.006a4.952,4.952,0,0,1-2.024.43Zm-2.2-2.967a2.991,2.991,0,0,0,2.2.967h.028a2.969,2.969,0,0,0,1.211-.257c.608-.276,1.258-.559,1.988-.868a25.1,25.1,0,0,0,3.487-1.671l1.449-.895a1.525,1.525,0,0,0,.146-.081l.1-.063c4.215-2.608,8.573-5.306,12.729-8.223a2.7,2.7,0,0,0,.245-.194,3.676,3.676,0,0,1,2.411-.9,3.672,3.672,0,0,1,2.36.859,2.589,2.589,0,0,0,.223.17c3.965,2.744,8.122,5.235,12.135,7.64-4.014-2.4-8.17-4.9-12.135-7.64a2.589,2.589,0,0,1-.223-.17,3.672,3.672,0,0,0-2.36-.859,3.676,3.676,0,0,0-2.411.9,2.7,2.7,0,0,1-.245.194c-4.157,2.917-8.515,5.615-12.729,8.223l-.1.063a1.525,1.525,0,0,1-.146.081l-1.449.895a25.1,25.1,0,0,1-3.487,1.671c-.73.309-1.38.591-1.988.868a2.969,2.969,0,0,1-1.211.257h-.028a2.991,2.991,0,0,1-2.2-.967,3,3,0,0,1-.781-2A3,3,0,0,0-3305.734-762.47Zm43.115-2.074a27.348,27.348,0,0,0,3.478,1.647c.617.259,1.281.537,2,.866a2.977,2.977,0,0,0,1.233.266,2.96,2.96,0,0,0,1.728-.553,2.992,2.992,0,0,0,1.252-2.409,2.992,2.992,0,0,1-1.252,2.409,2.96,2.96,0,0,1-1.728.553,2.977,2.977,0,0,1-1.233-.266c-.721-.328-1.384-.607-2-.866A27.348,27.348,0,0,1-3262.62-764.544Zm-33.414-24.524c-1.35,5.9-2.68,12.129-3.955,18.513-.073.426-.137.859-.191,1.294.054-.436.118-.868.191-1.294,1.275-6.384,2.605-12.611,3.955-18.513a7.175,7.175,0,0,0,.267-1.957A7.175,7.175,0,0,1-3296.034-789.068Zm36.737,19.55c-.046-.324-.1-.652-.159-.976-1.261-5.92-2.648-11.831-3.99-17.544l-.1-.416a8.4,8.4,0,0,1-.364-2.461,8.4,8.4,0,0,0,.364,2.461l.1.416c1.342,5.713,2.729,11.623,3.99,17.544.059.324.114.652.159.976Zm-2.586-1.539,2.222,1.34-2.322-1.4Zm-23.856-44.977a8.83,8.83,0,0,1-7.894,6.026c-5.768.472-10.179.895-14.294,1.37-.276.031-.554.066-.833.1,3.477,3.169,6.992,6.308,10.165,9.141l1.45,1.3a9.136,9.136,0,0,1,3.051,9.521c-1.117,4.885-2.223,10.005-3.3,15.261,3.422-2.121,6.9-4.314,10.23-6.641a11.65,11.65,0,0,1,7.412-2.668,11.655,11.655,0,0,1,7.275,2.557c3.3,2.273,6.838,4.424,10.306,6.506-1.05-4.76-2.152-9.452-3.226-14.018l-.084-.357a10.33,10.33,0,0,1,3.342-10.939c3.667-3.236,7.319-6.611,10.811-9.89-4.82-.49-9.544-.94-14.152-1.281a9.812,9.812,0,0,1-9.142-6.744c-1.793-4.454-3.63-8.9-5.48-13.274C-3282.144-825.074-3284.068-820.248-3285.739-816.034Zm46.442,5.9c-.369.465-.717.911-1.121,1.442a23.83,23.83,0,0,1-2.473,2.92l-.059.058c-4.416,4.177-9.163,8.625-13.993,12.88l-.1.082a2.408,2.408,0,0,0-.9,1.891,2.408,2.408,0,0,1,.9-1.891l.1-.082c4.83-4.255,9.578-8.7,13.993-12.88l.059-.058a23.83,23.83,0,0,0,2.473-2.92c.4-.531.751-.977,1.121-1.442a2.975,2.975,0,0,0,.664-1.876A2.975,2.975,0,0,1-3239.3-810.139Zm-81.068.958a50.327,50.327,0,0,0,3.641,4.151c.036.038.073.073.111.107,4.112,3.79,8.31,7.54,12.368,11.166l1.894,1.693c.05.045.1.088.158.131a1.188,1.188,0,0,1,.459.942,1.188,1.188,0,0,0-.459-.942c-.055-.043-.108-.086-.158-.131l-1.894-1.693c-4.058-3.626-8.256-7.376-12.368-11.166-.038-.034-.075-.069-.111-.107a50.327,50.327,0,0,1-3.641-4.151,2.97,2.97,0,0,1-.634-1.847A2.97,2.97,0,0,0-3320.365-809.18Zm40.026-25.545c-2.645,6.363-5.165,12.676-7.282,18.013a6.818,6.818,0,0,1-6.142,4.709c-5.8.474-10.242.9-14.392,1.378-1.668.193-3.4.47-4.964.733,1.56-.263,3.3-.54,4.964-.733,4.15-.479,8.59-.9,14.392-1.378a6.818,6.818,0,0,0,6.142-4.709c2.117-5.337,4.637-11.65,7.282-18.013.07-.158.144-.318.219-.476.009.02.018.039.028.059,2.479,5.758,4.954,11.7,7.355,17.668a7.808,7.808,0,0,0,7.351,5.429c6.247.462,12.768,1.13,18.59,1.734-5.822-.6-12.343-1.273-18.59-1.734a7.808,7.808,0,0,1-7.351-5.429c-2.4-5.966-4.875-11.91-7.355-17.668-.01-.02-.019-.039-.028-.059C-3280.2-835.043-3280.27-834.883-3280.34-834.725Zm2.012-8.711a2.994,2.994,0,0,0-1.9-.69h0A2.992,2.992,0,0,1-3278.328-843.436Z" transform="translate(1107.77 490.244)" fill="currentColor"/>
  </g>
</svg>
