<svg xmlns="http://www.w3.org/2000/svg" width="15.259" height="19.948" viewBox="0 0 15.259 19.948">
    <path id="Path_3" data-name="Path 3" d="M.549,17.631a4.369,4.369,0,0,1,1.49-5.75,3.972,3.972,0,0,1-1.932-2.7A4.248,4.248,0,0,1,2.164,4.365c1.65-.986,3.338-1.95,4.972-2.883q.815-.467,1.633-.935A4.192,4.192,0,0,1,10.838,0a4.48,4.48,0,0,1,2.849,1.037A4.274,4.274,0,0,1,15.21,3.763a4.374,4.374,0,0,1-2.037,4.355,4.369,4.369,0,0,1,.471,7.115l-.007.006a7.809,7.809,0,0,1-1.117.718c-.1.058-.205.115-.306.175-1.575.917-3.647,2.12-5.711,3.288l-.014.007a4.384,4.384,0,0,1-5.941-1.8ZM9.513,1.85q-.815.468-1.634.935C6.252,3.713,4.57,4.674,2.935,5.651A2.742,2.742,0,0,0,1.586,8.93a2.552,2.552,0,0,0,1.373,1.754c.282.158.571.325.964.558L5,11.883l-1.079.647c-.375.226-.717.428-1.088.621a2.884,2.884,0,0,0,1.588,5.3,2.817,2.817,0,0,0,1.345-.339c2.054-1.162,4.118-2.36,5.686-3.274.107-.063.217-.124.326-.185a6.555,6.555,0,0,0,.9-.573,2.872,2.872,0,0,0,1.06-2.485,2.928,2.928,0,0,0-1.528-2.3c-.163-.093-.316-.184-.478-.282-.133-.081-.272-.165-.419-.248l-1.09-.629,1.072-.66c.3-.184.606-.365.939-.553l.012-.007a2.87,2.87,0,0,0,1.471-2.938l0-.013a2.773,2.773,0,0,0-.995-1.774A2.977,2.977,0,0,0,10.838,1.5,2.641,2.641,0,0,0,9.513,1.85ZM5.586,6.735,11.248,10,5.586,13.28ZM6.8,11.171,8.819,10,6.8,8.839Z" fill="currentColor" />
</svg>