<svg id="text-shape-black" xmlns="http://www.w3.org/2000/svg" width="275" height="23.043" viewBox="0 0 275 23.043">
  <path id="Path_6664" d="M0,0H275l-4.344,11.35L275,23.043H0l4.345-11.2Z" fill="#2b2b2b"/>
  <g id="Group_6761" data-name="Group 6761" transform="translate(19.848 7.273)">
    <path id="Path_5154" data-name="Path 5154" d="M34.989,17.71a5.006,5.006,0,0,1,1.231-3.59,4.188,4.188,0,0,1,3.179-1.3,4.409,4.409,0,0,1,2.3.609,3.979,3.979,0,0,1,1.561,1.7A5.518,5.518,0,0,1,43.8,17.6a5.428,5.428,0,0,1-.566,2.506,3.853,3.853,0,0,1-1.6,1.674,4.57,4.57,0,0,1-2.236.568,4.354,4.354,0,0,1-2.324-.627,4.039,4.039,0,0,1-1.551-1.715A5.2,5.2,0,0,1,34.989,17.71Zm1.256.019a3.689,3.689,0,0,0,.9,2.622,3.123,3.123,0,0,0,4.51-.01A3.914,3.914,0,0,0,42.54,17.6a4.722,4.722,0,0,0-.38-1.963,2.921,2.921,0,0,0-1.112-1.3,3.012,3.012,0,0,0-1.643-.462,3.117,3.117,0,0,0-2.227.888A3.974,3.974,0,0,0,36.245,17.728Z" transform="translate(-34.989 -12.822)" fill="#fff"/>
    <path id="Path_5155" data-name="Path 5155" d="M57.93,22.319V13.11h6.213V14.2H59.148v2.852H63.47v1.087H59.148v4.184Z" transform="translate(-44.916 -12.947)" fill="#fff"/>
    <path id="Path_5156" data-name="Path 5156" d="M87.411,22.319V13.11h1.218v9.209H87.411Z" transform="translate(-57.674 -12.947)" fill="#fff"/>
    <path id="Path_5157" data-name="Path 5157" d="M97.815,22.318V13.11H99.65l2.179,6.521q.3.91.44,1.363.157-.5.49-1.476l2.2-6.408H106.6v9.209h-1.175V14.611l-2.676,7.707h-1.1l-2.663-7.84v7.84Z" transform="translate(-62.176 -12.946)" fill="#fff"/>
    <path id="Path_5158" data-name="Path 5158" d="M119.527,22.319l3.536-9.209h1.313l3.769,9.209h-1.388l-1.074-2.789h-3.851l-1.011,2.789Zm2.657-3.781h3.122l-.961-2.55q-.44-1.162-.653-1.909a11.744,11.744,0,0,1-.5,1.759Z" transform="translate(-71.572 -12.947)" fill="#fff"/>
    <path id="Path_5159" data-name="Path 5159" d="M145.046,18.587V17.507l3.9-.006v3.417a6.862,6.862,0,0,1-1.853,1.077,5.493,5.493,0,0,1-1.96.361,5.237,5.237,0,0,1-2.466-.58,3.844,3.844,0,0,1-1.674-1.681,5.294,5.294,0,0,1-.566-2.456,5.708,5.708,0,0,1,.562-2.51,3.738,3.738,0,0,1,1.618-1.731,5.072,5.072,0,0,1,2.431-.565,4.809,4.809,0,0,1,1.806.323,3,3,0,0,1,1.266.9,4,4,0,0,1,.7,1.508l-1.1.3a3.4,3.4,0,0,0-.515-1.106,2.117,2.117,0,0,0-.88-.644,3.237,3.237,0,0,0-1.269-.242,3.725,3.725,0,0,0-1.445.255,2.69,2.69,0,0,0-.983.669,3.183,3.183,0,0,0-.581.91,4.814,4.814,0,0,0-.352,1.853,4.494,4.494,0,0,0,.424,2.061,2.71,2.71,0,0,0,1.234,1.231,3.819,3.819,0,0,0,1.721.4,4.09,4.09,0,0,0,1.545-.3,3.992,3.992,0,0,0,1.144-.65V18.587Z" transform="translate(-80.617 -12.827)" fill="#fff"/>
    <path id="Path_5160" data-name="Path 5160" d="M163.193,22.319V13.11h6.659V14.2h-5.44v2.82h5.095V18.1h-5.095v3.134h5.653v1.087Z" transform="translate(-90.468 -12.947)" fill="#fff"/>
    <path id="Path_5161" data-name="Path 5161" d="M199.951,18.971l1.218.308a4.1,4.1,0,0,1-1.379,2.289,3.8,3.8,0,0,1-2.434.788,4.374,4.374,0,0,1-2.422-.606A3.785,3.785,0,0,1,193.514,20a6.279,6.279,0,0,1-.486-2.469,5.421,5.421,0,0,1,.55-2.51,3.764,3.764,0,0,1,1.564-1.627,4.575,4.575,0,0,1,2.234-.555,3.775,3.775,0,0,1,2.324.7,3.65,3.65,0,0,1,1.313,1.978l-1.2.283a2.843,2.843,0,0,0-.93-1.464,2.476,2.476,0,0,0-1.533-.459,2.981,2.981,0,0,0-1.774.508,2.691,2.691,0,0,0-1,1.367,5.5,5.5,0,0,0-.289,1.768,5.6,5.6,0,0,0,.343,2.051,2.549,2.549,0,0,0,1.065,1.31,2.988,2.988,0,0,0,1.564.433,2.622,2.622,0,0,0,1.734-.591A3.022,3.022,0,0,0,199.951,18.971Z" transform="translate(-103.379 -12.827)" fill="#fff"/>
    <path id="Path_5162" data-name="Path 5162" d="M213.91,17.71a5,5,0,0,1,1.231-3.59,4.187,4.187,0,0,1,3.179-1.3,4.409,4.409,0,0,1,2.3.609,3.983,3.983,0,0,1,1.561,1.7,5.51,5.51,0,0,1,.537,2.472,5.421,5.421,0,0,1-.566,2.506,3.855,3.855,0,0,1-1.6,1.674,4.572,4.572,0,0,1-2.236.568,4.356,4.356,0,0,1-2.325-.627,4.042,4.042,0,0,1-1.551-1.715A5.2,5.2,0,0,1,213.91,17.71Zm1.256.019a3.689,3.689,0,0,0,.895,2.622,3.123,3.123,0,0,0,4.51-.01,3.911,3.911,0,0,0,.889-2.746,4.722,4.722,0,0,0-.38-1.963,2.924,2.924,0,0,0-1.112-1.3,3.013,3.013,0,0,0-1.643-.462,3.118,3.118,0,0,0-2.227.888A3.974,3.974,0,0,0,215.166,17.728Z" transform="translate(-112.415 -12.822)" fill="#fff"/>
    <path id="Path_5163" data-name="Path 5163" d="M236.717,22.319V13.11h1.25l4.836,7.23V13.11h1.169v9.209h-1.25l-4.837-7.237v7.237h-1.169Z" transform="translate(-122.285 -12.947)" fill="#fff"/>
    <path id="Path_5164" data-name="Path 5164" d="M259.469,22.319V14.2h-3.034V13.11h7.3V14.2h-3.047v8.122Z" transform="translate(-130.817 -12.947)" fill="#fff"/>
    <path id="Path_5165" data-name="Path 5165" d="M276.086,22.319V13.11h6.659V14.2H277.3v2.82H282.4V18.1H277.3v3.134h5.654v1.087Z" transform="translate(-139.321 -12.947)" fill="#fff"/>
    <path id="Path_5166" data-name="Path 5166" d="M295.683,22.319V13.11h1.25l4.836,7.23V13.11h1.169v9.209h-1.25l-4.837-7.237v7.237h-1.169Z" transform="translate(-147.802 -12.947)" fill="#fff"/>
    <path id="Path_5167" data-name="Path 5167" d="M318.435,22.319V14.2H315.4V13.11h7.3V14.2h-3.047v8.122Z" transform="translate(-156.334 -12.947)" fill="#fff"/>
    <path id="Path_5168" data-name="Path 5168" d="M345.469,22.319V13.11h4.083a5.431,5.431,0,0,1,1.872.248,2.051,2.051,0,0,1,1.024.876,2.611,2.611,0,0,1,.383,1.388,2.315,2.315,0,0,1-.635,1.652,3.209,3.209,0,0,1-1.96.854,3.157,3.157,0,0,1,.735.459,6.336,6.336,0,0,1,1.011,1.225l1.6,2.507h-1.532L350.834,20.4q-.534-.829-.88-1.268a2.765,2.765,0,0,0-.619-.615,1.836,1.836,0,0,0-.555-.246,3.656,3.656,0,0,0-.678-.044h-1.413v4.089h-1.22Zm1.219-5.144h2.619A3.93,3.93,0,0,0,350.614,17a1.387,1.387,0,0,0,.716-.553,1.5,1.5,0,0,0,.245-.826,1.373,1.373,0,0,0-.474-1.074,2.222,2.222,0,0,0-1.5-.421h-2.915Z" transform="translate(-169.346 -12.947)" fill="#fff"/>
    <path id="Path_5169" data-name="Path 5169" d="M366.715,22.319V13.11h1.219v9.209h-1.219Z" transform="translate(-178.54 -12.947)" fill="#fff"/>
    <path id="Path_5170" data-name="Path 5170" d="M381.261,18.587V17.507l3.9-.006v3.417a6.873,6.873,0,0,1-1.854,1.077,5.488,5.488,0,0,1-1.96.361,5.233,5.233,0,0,1-2.465-.58,3.841,3.841,0,0,1-1.674-1.681,5.287,5.287,0,0,1-.566-2.456,5.7,5.7,0,0,1,.562-2.51,3.736,3.736,0,0,1,1.618-1.731,5.073,5.073,0,0,1,2.431-.565,4.809,4.809,0,0,1,1.806.323,2.993,2.993,0,0,1,1.266.9,3.992,3.992,0,0,1,.7,1.508l-1.1.3a3.411,3.411,0,0,0-.515-1.106,2.117,2.117,0,0,0-.88-.644,3.236,3.236,0,0,0-1.268-.242,3.725,3.725,0,0,0-1.445.255,2.685,2.685,0,0,0-.983.669,3.19,3.19,0,0,0-.581.91,4.813,4.813,0,0,0-.352,1.853,4.5,4.5,0,0,0,.424,2.061,2.712,2.712,0,0,0,1.235,1.231,3.816,3.816,0,0,0,1.721.4,4.089,4.089,0,0,0,1.545-.3,3.991,3.991,0,0,0,1.144-.65V18.587Z" transform="translate(-182.837 -12.827)" fill="#fff"/>
    <path id="Path_5171" data-name="Path 5171" d="M399.43,22.319V13.11h1.218v3.782h4.787V13.11h1.218v9.209h-1.218V17.978h-4.787v4.341H399.43Z" transform="translate(-192.697 -12.947)" fill="#fff"/>
    <path id="Path_5172" data-name="Path 5172" d="M422.093,22.319V14.2h-3.034V13.11h7.3V14.2h-3.047v8.122Z" transform="translate(-201.191 -12.947)" fill="#fff"/>
    <path id="Path_5173" data-name="Path 5173" d="M437.935,19.239l1.149-.1a2.54,2.54,0,0,0,.38,1.133,2.083,2.083,0,0,0,.927.716,3.5,3.5,0,0,0,1.413.273,3.384,3.384,0,0,0,1.232-.207,1.7,1.7,0,0,0,.794-.568,1.318,1.318,0,0,0,.261-.788,1.2,1.2,0,0,0-.251-.757,1.858,1.858,0,0,0-.829-.543,16.163,16.163,0,0,0-1.64-.449,8.345,8.345,0,0,1-1.778-.575,2.483,2.483,0,0,1-.983-.858,2.1,2.1,0,0,1-.323-1.146,2.338,2.338,0,0,1,.4-1.3,2.449,2.449,0,0,1,1.156-.921,4.387,4.387,0,0,1,1.69-.314,4.615,4.615,0,0,1,1.806.33,2.6,2.6,0,0,1,1.2.971,2.786,2.786,0,0,1,.453,1.452l-1.169.087a1.881,1.881,0,0,0-.638-1.319,2.481,2.481,0,0,0-1.6-.446,2.571,2.571,0,0,0-1.611.406,1.216,1.216,0,0,0-.506.977,1.046,1.046,0,0,0,.358.816,4.856,4.856,0,0,0,1.837.656,12.206,12.206,0,0,1,2.039.587,2.8,2.8,0,0,1,1.187.939,2.29,2.29,0,0,1,.383,1.31,2.508,2.508,0,0,1-.421,1.385,2.769,2.769,0,0,1-1.209,1.011,4.21,4.21,0,0,1-1.774.361,5.3,5.3,0,0,1-2.095-.364,2.935,2.935,0,0,1-1.326-1.1A3.1,3.1,0,0,1,437.935,19.239Z" transform="translate(-209.36 -12.826)" fill="#fff"/>
  </g>
</svg>
