<svg xmlns="http://www.w3.org/2000/svg" width="25.006" height="25.006" viewBox="0 0 25.006 25.006">
  <g id="Group_7229" data-name="Group 7229" transform="translate(-4.551 1.688)">
    <g id="Group_9912" data-name="Group 9912" transform="translate(4.551 -1.688)">
      <path id="Path_11411" data-name="Path 11411" d="M0,0H25.006V25.006H0Z" fill="none"/>
      <path id="Path_14400" data-name="Path 14400" d="M19860.338,13670.9h-19.7a.563.563,0,0,1-.543-.579v-18.06a.563.563,0,0,1,.543-.578h19.7a.563.563,0,0,1,.543.578v18.06A.563.563,0,0,1,19860.338,13670.9Zm-19.146-16.252h0v15.094h18.6v-15.083l-9.227,8.528-9.375-8.539Zm-.314-1.808h0l9.686,8.817,9.541-8.817Z" transform="translate(-19837.988 -13648.788)" fill="currentColor"/>
    </g>
  </g>
</svg>
