<svg xmlns="http://www.w3.org/2000/svg" width="24" height="24" viewBox="0 0 24 24">
    <path d="M0,0H24V24H0Z" fill="none" />
    <path d="M7333.484,7562.347a1.609,1.609,0,0,1,0-2.3c1.518-1.487,5.568-4.95,10.337-4.95s8.816,3.463,10.338,4.95a1.609,1.609,0,0,1,0,2.3c-1.521,1.486-5.57,4.95-10.338,4.95S7335,7563.833,7333.484,7562.347Zm.8-1.487a.467.467,0,0,0,0,.67c1.42,1.39,5.192,4.624,9.539,4.624s8.119-3.234,9.539-4.624a.467.467,0,0,0,0-.67c-1.42-1.39-5.189-4.623-9.539-4.623S7335.7,7559.47,7334.28,7560.859Zm5.886.336a3.655,3.655,0,1,1,3.653,3.656A3.655,3.655,0,0,1,7340.166,7561.2Zm1.139,0a2.515,2.515,0,1,0,2.515-2.515A2.515,2.515,0,0,0,7341.3,7561.2Z" transform="translate(-7331.965 -7549.203)" fill="currentColor" />
</svg>