<svg xmlns="http://www.w3.org/2000/svg" width="277.512" height="211.469" viewBox="0 0 277.512 211.469">
  <g id="Group_10911" data-name="Group 10911" transform="translate(-7162.078 24542.943)">
    <g id="kick" transform="translate(7162.078 -24527.541)">
      <path id="Path_16041" data-name="Path 16041" d="M92.78-255.817a5.345,5.345,0,0,0,.821,7.146c2,1.124,3.221,1.2,5.586.164,1.971-1.314,2.382-4.354.986-6.982C98.89-258.008,94.258-257.624,92.78-255.817Z" transform="translate(-26.273 257.275)" fill="#313a53"/>
      <path id="Path_16042" data-name="Path 16042" d="M105.285-256.537c-.986.493-.493,5.257.657,6.736.575.657,1.889.9,3.861.575,4.025-.657,7.475,1.971,7.475,5.668,0,2.218.657,3.121,4.682,5.914,2.629,1.807,5.011,3.368,5.339,3.532s.657-1.725.657-4.189a17.917,17.917,0,0,0-17-18.318A27.5,27.5,0,0,0,105.285-256.537Z" transform="translate(-28.592 257.174)" fill="#313a53"/>
      <path id="Path_16043" data-name="Path 16043" d="M240.874-246.145a19.247,19.247,0,0,0-10.432,5.5c-5.668,5.586-6.9,10.514-3.286,13.143,1.971,1.479,2.054,1.807,1.232,4.846-3.45,12.568,5.011,24.068,17.825,24.15,10.761,0,18.564-7.721,18.646-18.646v-5.093l2.875-.246c2.793-.246,2.875-.329,3.121-4.107.575-8.871-7.229-17-18.564-19.468C247.445-247.049,245.8-247.049,240.874-246.145Zm7.639,5.257c1.232.657,2.546,1.068,2.957.821.329-.246.657-.246.657-.082a9.151,9.151,0,0,1-2.957,2.136c-3.45,2.054-5.257,1.725-6.571-1.068-.821-1.725-.739-2.136.411-2.382C245.391-242.12,246.131-242.038,248.513-240.888Zm4.846,8.05c4.764.986,10.6,3.614,11.993,5.257a2.519,2.519,0,0,1,.411,2.382c-.329.986-.821.9-2.382-.739-3.2-3.2-10.761-5.5-19.55-6-4.846-.329-8.954-.082-10.514.411-1.561.575-2.546.575-2.546.082C230.77-234.07,243.831-234.892,253.359-232.838Zm-4.846,20.7c4.6,2.136,5.914,3.45,4.6,4.764-.575.575-1.561.329-3.2-.739a19.781,19.781,0,0,0-11.418-3.532c-2.629,0-3.614-.329-3.614-1.232C234.877-214.931,243.5-214.52,248.513-212.138Z" transform="translate(-50.085 255.407)" fill="#313a53"/>
      <path id="Path_16044" data-name="Path 16044" d="M89.007-242.777c-1.971,6.489-.575,14.457,3.286,18.975,2.054,2.464,6.161,4.846,10.021,5.832,6.243,1.561,11.993-.082,17-4.929,2.218-2.136,4.025-4.6,4.025-5.5,0-.986-1.889-2.957-4.929-5.093-4.682-3.368-5.011-3.532-6.736-2.3-2.546,1.807-4.929,1.643-7.557-.411-1.889-1.479-2.218-2.3-2.054-5.339.329-4.271-.164-4.846-2.629-3.532-2.3,1.15-6.407,1.15-7.557,0C90.4-246.555,89.992-246.145,89.007-242.777Zm13.471,9.036c3.779,1.725,6.079,4.436,6.079,7.229,0,2.382-1.479,2.382-4.846-.082a23.278,23.278,0,0,0-9.282-4.107c-4.107-.9-2.3-4.6,2.218-4.6A18.234,18.234,0,0,1,102.478-233.741Z" transform="translate(-25.621 255.242)" fill="#313a53"/>
      <path id="Path_16045" data-name="Path 16045" d="M108.44-245.017c-2.136,1.643-2.218,5.5-.164,7.557,2.875,2.875,7.721.493,7.721-3.861A4.667,4.667,0,0,0,108.44-245.017Z" transform="translate(-28.955 255.265)" fill="#313a53"/>
      <path id="Path_16046" data-name="Path 16046" d="M180.3-225.891c-1.889,1.561-2.629,2.875-2.629,4.6,0,1.314,2.793,8.543,6.161,16.018S190-191.392,190-191.063a5.789,5.789,0,0,0,1.725,2.218c1.4,1.232,3.614,1.643,12.075,2.054,5.75.329,12.486.657,15.032.657l4.6.082,1.971,7.8,1.889,7.8,15.361,4.929c8.379,2.711,15.689,4.929,16.182,4.929a.932.932,0,0,1,.986.9c0,.986.986,1.314-20.536-5.586-9.282-2.957-18.482-5.586-20.536-5.75-3.2-.329-6.654.739-24.232,7.557-33.268,12.732-37.457,14.621-39.182,16.839a10.35,10.35,0,0,0,4.107,15.853c4.682,2.054,4.682,2.054,35.239-9.939l23.164-9.118,19.55,6.161c10.761,3.45,21.768,6.9,24.478,7.8,8.625,2.711,13.718,1.807,16.921-3.039,2.711-4.107,2.875-3.2-8.789-46.575-1.561-5.75-2.793-10.925-2.793-11.5,0-.986,13.8-10.432,15.278-10.432.411,0,5.5,4.6,11.253,10.186,5.832,5.586,11.5,10.432,12.568,10.678,4.354,1.15,9.364-3.614,8.3-7.886-.657-2.382-3.532-5.5-17.989-19.386-8.543-8.214-10.761-10.021-12.814-10.021-1.725,0-6.079,2.464-14.95,8.3-6.818,4.518-13.553,8.625-14.868,9.118-1.314.411-2.382,1.15-2.382,1.561,0,1.479-6.079,7.475-9.2,9.036-6.736,3.45-15.853,2.546-21.439-2.218-1.971-1.643-3.286-1.971-7.475-1.971-2.875,0-6.9-.246-8.953-.493l-3.779-.575-2.875-6.654c-4.764-11.089-7.968-17.578-9.036-18.482C186.381-228.274,183.013-228.191,180.3-225.891Z" transform="translate(-37.239 251.992)" fill="#313a53"/>
      <path id="Path_16047" data-name="Path 16047" d="M67.792-217.157a20.294,20.294,0,0,0-8.132,6.654c-1.971,2.793-5.5,11.253-4.846,11.911.246.246,3.2-2.054,6.571-5.011,5.175-4.518,6.736-5.421,9.2-5.421a7.946,7.946,0,0,1,7.721,8.05c0,3.779-.411,4.271-12.732,15.361-4.518,4.025-9.775,8.871-11.746,10.678l-3.614,3.368.9,10.843c.575,6,1.15,11.336,1.4,11.911.246.657-3.45,4.189-9.282,8.871-14.128,11.253-14.375,11.582-14.046,17.5.329,3.943.739,5.175,2.464,6.654s45.1,17.086,51.832,18.564c6,1.4,12.075-3.286,12.075-9.2,0-4.189-1.889-7.8-4.764-9.2-1.232-.657-8.625-3.286-16.346-5.914-7.8-2.711-14.211-5.093-14.211-5.339s4.271-3.943,9.529-8.214,10.1-8.871,10.761-10.268c1.068-1.971,1.15-4.107.739-11.171-.575-10.186.411-20.864,3.286-34.828a112.265,112.265,0,0,0,1.971-12.65c0-4.436-1.725-9.036-4.436-11.664-2.218-2.136-3.848-2.735-8.283-2.653A14.583,14.583,0,0,0,67.792-217.157Z" transform="translate(-15.084 250.322)" fill="#313a53"/>
      <path id="Path_16048" data-name="Path 16048" d="M62.359-203.123c-1.479,1.068-5.093,4.271-8.214,7.064-8.954,8.3-11.336,10.514-26.7,24.232-7.968,7.064-14.7,13.471-14.95,14.211a6.812,6.812,0,0,0,6.407,9.282c3.039,0,4.6-1.15,17.332-12.65,4.025-3.614,9.528-8.625,12.321-11.089,2.711-2.464,8.543-7.8,12.978-11.911,4.518-4.107,8.625-7.8,9.282-8.132,2.155-1.625,3.863-5.029,3.614-6.982a7.588,7.588,0,0,0-1.725-3.779C70.491-205.669,65.974-205.833,62.359-203.123Z" transform="translate(-12.034 247.952)" fill="#313a53"/>
      <path id="Path_16049" data-name="Path 16049" d="M251.5-121.536c.329,1.479-.246,5.175-1.561,9.611-1.15,4.025-3.2,11.089-4.6,15.853-1.479,5.175-2.3,9.528-2.054,11.089.246,1.314,4.436,9.857,9.2,18.893,4.846,9.036,9.939,18.564,11.336,21.193a22.173,22.173,0,0,0,3.532,5.257,16.449,16.449,0,0,0,2.458,1.889c1.373.887,8.713-.082,10.766-1.4,2.382-1.561,4.682-7.721,4.025-10.678-.329-1.232-4.846-10.35-10.1-20.207l-9.446-17.989,4.189-14.457c2.3-7.886,4.025-14.539,3.779-14.786-.575-.575-19.55-6.736-20.864-6.736C251.341-124,251.176-123.343,251.5-121.536Z" transform="translate(-53.324 233.475)" fill="#313a53"/>
      <path id="Path_16050" data-name="Path 16050" d="M78.937-117.728c-8.954,7.311-9.2,7.557-8.132,8.214,1.889,1.15,14.128,5.257,14.539,4.846.329-.411-1.807-15.443-2.382-15.936C82.8-120.767,80.99-119.453,78.937-117.728Z" transform="translate(-22.451 232.871)" fill="#313a53"/>
      <path id="Path_16051" data-name="Path 16051" d="M68.261-77.4C88.386-44.87,93.4-36.9,94.793-35.013c2.136,2.711,4.764,3.7,8.543,3.2,1.561-.164,6.176-1.282,7.717-3.834,3.979-5.15,2.879-8.734-7.964-25.9l-5.914-9.446-3.286.246c-2.218.164-6.982-.986-14.375-3.532C67.44-78.3,67.768-78.219,68.261-77.4Z" transform="translate(-22.043 225.234)" fill="#313a53"/>
    </g>
    <path id="Path_14419" data-name="Path 14419" d="M-2890.946,7133.835h-12.609l6.854-8.255-13.733-7.229,12.505-3.549-7.567-10.927,13.22,2.244-.955-14.932,11,11.163,5.042-10.271,3.561,10.075,10.3-10.762-3.13,16.434-2.42-.461,1.571-8.251-7.311,7.638-2.943-8.325-3.99,8.128-8.805-8.933.732,11.449-10.521-1.785,6.2,8.949-9.894,2.807,10.971,5.776-5.443,6.555h7.36Z" transform="translate(10160.314 -31542.773)" fill="#a1a5b7"/>
    <path id="Path_14420" data-name="Path 14420" d="M-2798.3,7216.776a134.834,134.834,0,0,1-27.452-22.382,106.545,106.545,0,0,1-15.416-21.171,85.53,85.53,0,0,1-6.759-15.8,43.792,43.792,0,0,1-1.51-6.3l2.443-.326a42.859,42.859,0,0,0,1.458,6.018,81.963,81.963,0,0,0,6.595,15.345,104.217,104.217,0,0,0,15.061,20.631,132.46,132.46,0,0,0,26.887,21.9Z" transform="translate(10149.422 -31553.42)" fill="#a1a5b7"/>
    <path id="Path_14421" data-name="Path 14421" d="M10,18.966a1.647,1.647,0,0,1-1.224-2.189,1.761,1.761,0,0,1,2.321-1.11,1.743,1.743,0,0,1,1.155,2.239,1.624,1.624,0,0,1-1.59,1.169A2.146,2.146,0,0,1,10,18.966ZM1.869,16.324A1.7,1.7,0,0,1,.636,14.084,1.782,1.782,0,0,1,2.971,12.93,1.8,1.8,0,0,1,4.2,15.266a1.673,1.673,0,0,1-1.644,1.171A2.217,2.217,0,0,1,1.869,16.324Zm8.519-1.553.313-.961a6.132,6.132,0,0,1,2.394-3,6.289,6.289,0,0,0,2.5-3.2,1.922,1.922,0,0,0-1.36-2.777c-.381-.124-1.643-.471-1.883.267a.89.89,0,0,0,.005.58,1.89,1.89,0,0,1-.027,1.161,1.382,1.382,0,0,1-1.886.887A1.53,1.53,0,0,1,9.43,6.812a2.3,2.3,0,0,1,.052-1.531c.654-2.015,2.911-2.837,5.486-2a6.142,6.142,0,0,1,2.971,1.9,3.409,3.409,0,0,1,.565,3.3c-.609,1.876-2.222,2.883-3.645,3.771-1.13.705-2.2,1.371-2.511,2.337l-.241.742ZM2.36,12.163,4.344,3.474c.038-.155.072-.3.1-.438.1-.43.183-.769.274-1.049C5.216.466,6.208.435,6.953.677a1.578,1.578,0,0,1,1.09.99,2.266,2.266,0,0,1-.07,1.425c-.132.41-.327.918-.533,1.4L3.892,12.66Z" transform="translate(7258.149 -24543.508)" fill="#a1a5b7"/>
  </g>
</svg>
