<svg xmlns="http://www.w3.org/2000/svg" width="100%" height="145.759" viewBox="0 0 130 145.759">
    <g id="Group_8958" data-name="Group 8958" transform="translate(-405 -523)">
        <circle id="Ellipse_492" data-name="Ellipse 492" cx="65" cy="65" r="65" transform="translate(405 523)" fill="currentColor"/>
        <g id="noun-question-2600808" transform="translate(225.44 505.642)">
        <path id="Path_10149" data-name="Path 10149" d="M331.55,467.04c-1.507,0-2.6,1.1-3.562,2.055-.959,1.1-1.507,1.644-1.507,3.151a5.292,5.292,0,0,0,1.507,3.7,5.434,5.434,0,0,0,7.261,0c2.192-1.918,1.1-6.3,0-7.261a5.114,5.114,0,0,0-3.7-1.644Z" transform="translate(-87.56 -314.229)" fill="currentColor"/>
        <path id="Path_10150" data-name="Path 10150" d="M242.071,51.153C222.616,52.523,210.56,67.868,210.56,80.2c0,11.235,7.125,18.77,14.8,18.77,5.891,0,16.166-3.014,13.426-14.8-2.192-9.316,14.248-10.961,16.44,0,2.192,11.508-7.4,16.715-10.55,18.633-6.85,4.385-11.235,7.4-15.071,11.235s-6.165,12.193-.822,17.537S242.207,135,242.207,145s13.975-11.371-1.233-17.673c-11.1-4.521,9.454-8.768,13.29-9.59,7.126-1.644,23.292-6.439,24.526-31.237,1.1-21.51-13.564-36.992-36.718-35.347Z" transform="translate(0 0)" fill="#fff"/>
        </g>
    </g>
</svg>