<svg xmlns="http://www.w3.org/2000/svg" width="90.245" height="108.346" viewBox="0 0 90.245 108.346">
  <path d="M10.19,106.258a7.949,7.949,0,0,1-2.577-5.213L.031,14.375A8.009,8.009,0,0,1,7.3,5.706L72.168.031C72.416.01,72.653,0,72.876,0a8,8,0,0,1,7.96,7.3l.668,7.633L49.4,8.694a7.218,7.218,0,0,0-1.354-.131,7.094,7.094,0,0,0-6.787,5.067,8.053,8.053,0,0,0-.554,1.757L26.762,87.11a8,8,0,0,0-.13,2.084,7.094,7.094,0,0,0,5.729,7.153l.628.122.1.02,36.737,7.141-53.546,4.685c-.238.021-.476.032-.706.032A7.961,7.961,0,0,1,10.19,106.258ZM56.852,78.1V74.174h27.5V78.1Zm-3.945-5.893a1.952,1.952,0,0,1-1.949-1.966v-27.5a1.972,1.972,0,0,1,1.949-1.967H88.3a1.953,1.953,0,0,1,1.949,1.967v27.5A1.972,1.972,0,0,1,88.3,72.209Zm1.98-3.928H86.316V44.709H54.887Zm12.193-5.631a.363.363,0,0,1-.061-.2V52.237a.362.362,0,0,1,.362-.362.358.358,0,0,1,.2.061l7.659,5.106a.361.361,0,0,1,.1.5.38.38,0,0,1-.1.1l-7.659,5.106a.361.361,0,0,1-.5-.1Z" fill="currentColor"/>
</svg>
