<svg xmlns="http://www.w3.org/2000/svg" width="30" height="30" viewBox="0 0 30 30">
    <path d="M0,0H30V30H0Z" fill="none" />
    <path d="M-946.639-512.1a2.364,2.364,0,0,1-2.36-2.361V-526.14a2.363,2.363,0,0,1,2.36-2.36h16.44a2.363,2.363,0,0,1,2.36,2.36V-514.5a2.339,2.339,0,0,1-.656,1.687,2.341,2.341,0,0,1-1.663.714Zm27.04-.921-6.6-3.72v-7.12l6.6-3.719a.412.412,0,0,1,.4.013.413.413,0,0,1,.2.347v13.84a.4.4,0,0,1-.193.357.4.4,0,0,1-.2.057A.4.4,0,0,1-919.6-513.021Z" transform="translate(949 535.5)" fill="#fff" />
  </svg>