<svg xmlns="http://www.w3.org/2000/svg" width="20.782" height="19.842" viewBox="0 0 20.782 19.842">
  <g id="noun-widget-2168052" transform="translate(-81.666 -24.215)">
    <path id="Path_14388" data-name="Path 14388" d="M89.345,93.332H82.118a.452.452,0,0,0-.452.452v7.228a.451.451,0,0,0,.452.452h7.228a.452.452,0,0,0,.452-.452V93.784a.452.452,0,0,0-.452-.452Zm-.452,7.228H82.57V94.236h6.324Z" transform="translate(0 -66.44)" fill="currentColor"/>
    <path id="Path_14389" data-name="Path 14389" d="M89.345,326.67H82.118a.452.452,0,0,0-.452.452v7.228a.452.452,0,0,0,.452.452h7.228a.452.452,0,0,0,.452-.452v-7.228a.452.452,0,0,0-.452-.452Zm-.452,7.227H82.57v-6.324h6.324Z" transform="translate(0 -290.744)" fill="currentColor"/>
    <path id="Path_14390" data-name="Path 14390" d="M322.681,326.67h-7.227a.452.452,0,0,0-.452.452v7.228a.452.452,0,0,0,.452.452h7.227a.452.452,0,0,0,.452-.452v-7.228a.452.452,0,0,0-.452-.452Zm-.452,7.227h-6.324v-6.324h6.324Z" transform="translate(-224.301 -290.744)" fill="currentColor"/>
    <path id="Path_14391" data-name="Path 14391" d="M350.466,27.89,344.2,24.276a.452.452,0,0,0-.619.167L339.972,30.7a.452.452,0,0,0,.167.619l6.261,3.614a.452.452,0,0,0,.619-.167l3.614-6.261a.452.452,0,0,0-.167-.619Zm-4.007,6.031-5.475-3.162,3.162-5.475,5.475,3.162Z" transform="translate(-248.246 0)" fill="currentColor"/>
  </g>
</svg>
