<svg xmlns="http://www.w3.org/2000/svg" width="93.153" height="108.346" viewBox="0 0 93.153 108.346">
  <path d="M10.19,106.258a7.949,7.949,0,0,1-2.577-5.213L.031,14.375A8.009,8.009,0,0,1,7.3,5.706L72.168.031C72.416.01,72.653,0,72.876,0a8,8,0,0,1,7.96,7.3l.668,7.633L49.4,8.694a7.218,7.218,0,0,0-1.354-.131,7.094,7.094,0,0,0-6.787,5.067,8.053,8.053,0,0,0-.554,1.757L26.762,87.11a8,8,0,0,0-.13,2.084,7.094,7.094,0,0,0,5.729,7.153l.628.122.1.02,36.737,7.141-53.546,4.685c-.238.021-.476.032-.706.032A7.961,7.961,0,0,1,10.19,106.258ZM57.666,79.645V75.47H78.54v4.175Zm16.7-8.349V67.12h7.306A7.306,7.306,0,1,0,76.452,54.7c0-.035,0-.07,0-.105a12.525,12.525,0,0,0-25.05,0v.014H47.229V54.6A16.7,16.7,0,0,1,79.5,48.539,11.482,11.482,0,1,1,81.671,71.3Zm-25.049,0V67.12H70.191V71.3Zm8.349-8.35V58.77h16.7v4.175Z" fill="currentColor"/>
</svg>
