<svg xmlns="http://www.w3.org/2000/svg" width="162.238" height="47" viewBox="0 0 162.238 47">
  <g id="Group_8070" data-name="Group 8070" transform="translate(16919 -7337)">
    <rect id="Rectangle_2783" data-name="Rectangle 2783" width="162" height="47" transform="translate(-16919 7337)" fill="none"/>
    <g id="Group_8047" data-name="Group 8047" transform="translate(-16919 7342)">
      <path id="Path_9099" data-name="Path 9099" d="M11.749,35.216A11.723,11.723,0,1,0,0,23.5,11.723,11.723,0,0,0,11.749,35.216" transform="translate(0 -1.662)" fill="#9cc23c"/>
      <path id="Path_9100" data-name="Path 9100" d="M25.6,0A11.259,11.259,0,0,0,14.85,7.884,14.024,14.024,0,0,1,27.861,21.84v.378A11.225,11.225,0,0,0,25.6,0" transform="translate(-2.097)" fill="#f99d1c"/>
      <path id="Path_9101" data-name="Path 9101" d="M38.32,21.21a13.535,13.535,0,0,1-9.559,6.347,14.042,14.042,0,0,1-5.651,8.683,10.718,10.718,0,0,0,17.941-7.875,10.572,10.572,0,0,0-2.765-7.154" transform="translate(-3.263 -2.995)" fill="#ef4724"/>
      <path id="Path_9102" data-name="Path 9102" d="M131.726,13.441a7.566,7.566,0,0,1,4.414-1.718c5.153-.335,8.7,3.435,8.038,8.588a6.871,6.871,0,0,1-4.732,6.012,7.4,7.4,0,0,1-7.85-1.52,7.128,7.128,0,0,1-2.293-5.445V7.077c0-.447.129-.6.584-.61,1.838,0,1.838,0,1.838,1.718v5.239m10.125,5.78a5.067,5.067,0,1,0-2.556,4.5,5.067,5.067,0,0,0,2.556-4.5M55.678,25.017v5.66c0,1.417.2,1.245-1.237,1.245s-1.194.146-1.194-1.159V19.221a7.266,7.266,0,0,1,5.677-7.351A7.42,7.42,0,0,1,68.191,19.8c-.232,2.851-1.408,5.11-4.1,6.278a7.85,7.85,0,0,1-8.1-.8,2.911,2.911,0,0,1-.318-.223m5.033-.678a4.852,4.852,0,0,0,5.084-5.041A5.058,5.058,0,1,0,55.678,19.3a4.818,4.818,0,0,0,5.033,5.084m22.724.575a7.824,7.824,0,0,1-3.358,1.6,7.334,7.334,0,0,1-8.829-4.887,7.729,7.729,0,0,1,3.573-9.224c4.517-2.259,10.744.077,10.993,6.372.094,2.448,0,4.912,0,7.36,0,.4-.112.584-.532.541a.636.636,0,0,0-.18,0c-1.718,0-1.718,0-1.718-1.761m-5.05-.653a4.887,4.887,0,0,0,5.05-5.1,5.067,5.067,0,0,0-10.134.043A4.861,4.861,0,0,0,78.333,24.3m46.376.644a7.583,7.583,0,0,1-4.689,1.8c-5.307.094-8.734-4.139-7.575-9.361a7.262,7.262,0,0,1,8.03-5.694,7.128,7.128,0,0,1,6.673,6.871c.12,2.576,0,5.153.043,7.781,0,.344-.146.481-.472.472H125.3c-.464,0-.532-.112-.507-.5s0-.773,0-1.3m-5.093-.644a4.869,4.869,0,0,0,5.093-5.041,5.067,5.067,0,1,0-10.125-.052,4.852,4.852,0,0,0,5.033,5.093M99.486,13.57a6.647,6.647,0,0,1,5.531-1.554,5.557,5.557,0,0,1,5.041,5.316c.163,1.795.052,3.6.077,5.4v3.435c0,.438-.129.61-.593.61-1.838,0-1.838,0-1.838-1.821V18.1c-.129-2.877-2.156-4.363-4.955-3.65a4.191,4.191,0,0,0-3.169,4.225c0,2.43,0,4.878,0,7.309,0,.6-.12.859-.773.807-1.718-.052-1.718,0-1.718-1.718V7.257c0-.8,0-.8.859-.8,1.563,0,1.563,0,1.563,1.589V13.57M87.944,15.442V8.683c0-.464.086-.739.627-.721a5.84,5.84,0,0,0,1.159-.12c.49-.1.661,0,.653.558v2.886c0,.5.086.678.627.653,1.151-.052,2.3,0,3.435,0,.455,0,.61.163.6.6-.052,1.932.266,1.589-1.554,1.615H90.821c-.318,0-.464,0-.464.429v7.678c0,1.872.988,2.576,2.817,2.07a5.076,5.076,0,0,0,1.039-.4c.378-.189.567-.086.7.283.086.232.189.455.283.678.421.97.421.97-.575,1.374a6.166,6.166,0,0,1-2.448.515A3.882,3.882,0,0,1,88,23.068a16.893,16.893,0,0,1-.069-2.087Zm60.864,1.2v9.378c0,.618-.2.8-.773.756a8.494,8.494,0,0,0-1.237,0c-.3,0-.455-.129-.429-.447a1.851,1.851,0,0,0,0-.309V7.2c0-.6.18-.756.764-.747,1.718,0,1.718,0,1.718,1.718Zm16.627,0a6.269,6.269,0,0,0-3.092-3.942,8.038,8.038,0,0,0-5.548-.79c-3.727.764-6.012,3.856-5.883,7.85a6.991,6.991,0,0,0,6.415,6.913,8.013,8.013,0,0,0,7.24-2.576c.378-.412.455-.721-.094-1.056a8.907,8.907,0,0,1-.919-.721.369.369,0,0,0-.593.06,5.2,5.2,0,0,1-3.478,1.864,4.971,4.971,0,0,1-5.823-3.169c-.215-.67-.215-.67.481-.67h11.225a.49.49,0,0,0,.5-.472v-.24a8.588,8.588,0,0,0-.421-3.117m-2.576,1.58H154c-.438,0-.507-.112-.4-.515.739-2.705,3.315-4.122,6.3-3.435a4.114,4.114,0,0,1,3.435,3.435c.094.4.043.541-.438.541" transform="translate(-7.516 -0.911)" fill="#e4e6ef"/>
      <path id="Path_9103" data-name="Path 9103" d="M187.378,14.243a.386.386,0,0,1-.249.069h-.3v-.49h.318a.438.438,0,0,1,.24.052.189.189,0,0,1,.086.18.232.232,0,0,1-.094.189m.283.756a1.305,1.305,0,0,1,0-.163.412.412,0,0,0-.06-.223.593.593,0,0,0-.163-.163.421.421,0,0,0,.352-.421q0-.49-.593-.49h-.532a.086.086,0,0,0-.077,0,.1.1,0,0,0,0,.077v1.52a.1.1,0,0,0,0,.094.112.112,0,0,0,.1.043.18.18,0,0,0,.1-.043.12.12,0,0,0,.052-.094v-.55h.266a.232.232,0,0,1,.18.069.335.335,0,0,1,.06.215.567.567,0,0,0,.069.292.223.223,0,0,0,.163.12.275.275,0,0,0,.146,0,.112.112,0,0,0,.077-.086.094.094,0,0,0,0-.069h-.06a.137.137,0,0,1-.069-.069" transform="translate(-26.342 -1.91)" fill="#444545"/>
      <path id="Path_9104" data-name="Path 9104" d="M187.939,15.01a1.116,1.116,0,0,1-.447.447,1.211,1.211,0,0,1-.636.163,1.228,1.228,0,0,1-.636-.163,1.194,1.194,0,0,1-.455-.447,1.408,1.408,0,0,1,0-1.314,1.194,1.194,0,0,1,.455-.447,1.228,1.228,0,0,1,.635-.163,1.211,1.211,0,0,1,.636.163,1.116,1.116,0,0,1,.447.447,1.408,1.408,0,0,1,0,1.314m.283-1.451a1.58,1.58,0,0,0-.61-.593,1.6,1.6,0,0,0-1.572,0,1.52,1.52,0,0,0-.575.567,1.538,1.538,0,0,0-.206.8,1.581,1.581,0,0,0,.206.8,1.52,1.52,0,0,0,.575.567,1.666,1.666,0,0,0,1.572,0,1.6,1.6,0,0,0,.575-2.164" transform="translate(-26.156 -1.801)" fill="#444545"/>
    </g>
  </g>
</svg>
