<svg xmlns="http://www.w3.org/2000/svg" xmlns:xlink="http://www.w3.org/1999/xlink" width="162" height="47" viewBox="0 0 162 47">
  <defs>
    <clipPath id="clip-path">
      <path id="Path_9098" data-name="Path 9098" d="M0,0H110.631V46.292H0Z"/>
    </clipPath>
    <linearGradient id="linear-gradient" x1="0.107" y1="0.842" x2="0.893" y2="0.158" gradientUnits="objectBoundingBox">
      <stop offset="0" stop-color="#f2662e"/>
      <stop offset="1" stop-color="#ef4177"/>
    </linearGradient>
  </defs>
  <g id="Group_8068" data-name="Group 8068" transform="translate(16926 -7161)">
    <rect id="Rectangle_2781" data-name="Rectangle 2781" width="162" height="47" transform="translate(-16926 7161)" fill="none"/>
    <g id="Group_8046" data-name="Group 8046" transform="translate(-16900 7161)" clip-path="url(#clip-path)">
      <path id="Path_9096" data-name="Path 9096" d="M41.546,12l-.025-.027a.593.593,0,0,0-.049-.038.758.758,0,0,0-.112-.088L22.8,1.114a.792.792,0,0,0-.151-.062L22.6,1.034l-.032-.008a.761.761,0,0,0-.6.087L3.407,11.85a.777.777,0,0,0-.266.262l-.027.038c-.008.013-.016.037-.024.055A.785.785,0,0,0,3,12.56V34.032a.777.777,0,0,0,.013.093.742.742,0,0,0,.392.617L21.967,45.475a1.031,1.031,0,0,0,.9,0L41.238,34.784a.812.812,0,0,0,.529-.753V12.56a.758.758,0,0,0-.22-.557ZM4.648,32.6V13.985l16.093,9.31Zm19.411-9.328,16.063-9.291V32.605L34.28,29.227ZM23.2,21.87V3.249l16.1,9.31Zm-1.648,0L5.464,12.56l16.1-9.31Zm0,2.851V43.34L5.464,34.032Zm1.718.042,10.174,5.885,5.816,3.384-15.987,9.3Z" transform="translate(-0.646 -0.215)" fill="url(#linear-gradient)"/>
      <g id="Group_8045" data-name="Group 8045" transform="translate(49.892 17.485)">
        <path id="Path_9097" data-name="Path 9097" d="M72.929,24.456,69.85,33.267H66.639l-3.052-8.811H66.6l1.641,6.235h.043l.273-1.124,1.368-5.111Zm5.345.618v1.814h3.688l-.029,2.462H78.275v3.916H75.267v-10.8h7.415l.043,2.606Zm13.1,6.332H88.034l-.475,1.858H84.377l3.585-10.8h3.6l3.642,10.8H91.853Zm-1.943-5.427L88.657,29h2.118l-.765-3.01-.26-1.152h-.043Zm8.126-3.51h3.081v10.8H97.56Zm13.115,6.45,2.347,4.348h-3.514l-1.583-3.758h-1.1v3.758h-3.009v-10.8h4.117c2.894,0,4.362,1.08,4.362,3.5a2.939,2.939,0,0,1-1.623,2.952Zm-2.707-4.045H106.83V27.35h1.109c.893,0,1.223-.216,1.223-1.267,0-.95-.3-1.209-1.195-1.209Zm10.341,8.6a7.622,7.622,0,0,1-3.442-.792l.375-2.491a6.748,6.748,0,0,0,3.038.778c.964,0,1.339-.288,1.339-.821,0-1.324-4.737-.763-4.737-4.406,0-1.9,1.224-3.452,4.118-3.452a9.091,9.091,0,0,1,3.138.549l-.345,2.432a9.674,9.674,0,0,0-2.621-.417c-1.167,0-1.4.314-1.4.734,0,1.339,4.723.734,4.723,4.377,0,2.155-1.583,3.509-4.189,3.509Z" transform="translate(-63.587 -22.285)" fill="#454546"/>
      </g>
    </g>
  </g>
</svg>
