<svg xmlns="http://www.w3.org/2000/svg" width="162" height="47" viewBox="0 0 162 47">
  <g id="Group_8069" data-name="Group 8069" transform="translate(16926 -7249)">
    <rect id="Rectangle_2782" data-name="Rectangle 2782" width="162" height="47" transform="translate(-16926 7249)" fill="none"/>
    <g id="Group_8049" data-name="Group 8049" transform="translate(-25.004 3241.35)">
      <path id="Path_9114" data-name="Path 9114" d="M21.151,4.02H19.1L13.988-11.9h-.122L8.752,4.02H6.7L.425-17.9H2.476L7.711.745h.122l5.113-15.706h1.959L20.019.745h.122L25.131-17.9h2.051ZM34.5-11.471a7.486,7.486,0,0,1,3.046.612,7.3,7.3,0,0,1,2.4,1.684,7.724,7.724,0,0,1,1.577,2.526,8.657,8.657,0,0,1,.566,3.169,8.657,8.657,0,0,1-.566,3.169,7.724,7.724,0,0,1-1.577,2.526,7.3,7.3,0,0,1-2.4,1.684A7.486,7.486,0,0,1,34.5,4.51,7.41,7.41,0,0,1,31.484,3.9a7.3,7.3,0,0,1-2.4-1.684A7.723,7.723,0,0,1,27.5-.312a8.657,8.657,0,0,1-.566-3.169A8.657,8.657,0,0,1,27.5-6.649a7.723,7.723,0,0,1,1.577-2.526,7.3,7.3,0,0,1,2.4-1.684A7.41,7.41,0,0,1,34.5-11.471Zm0,14.205a5.2,5.2,0,0,0,2.112-.444A5.582,5.582,0,0,0,38.4,1.035,6.212,6.212,0,0,0,39.658-.924a6.633,6.633,0,0,0,.475-2.556,6.633,6.633,0,0,0-.475-2.556A6.212,6.212,0,0,0,38.4-8a5.582,5.582,0,0,0-1.791-1.255A5.2,5.2,0,0,0,34.5-9.7a5.2,5.2,0,0,0-2.112.444A5.582,5.582,0,0,0,30.6-8a6,6,0,0,0-1.24,1.959A6.828,6.828,0,0,0,28.9-3.48a6.828,6.828,0,0,0,.459,2.556A6,6,0,0,0,30.6,1.035a5.582,5.582,0,0,0,1.791,1.255A5.2,5.2,0,0,0,34.5,2.735ZM44.511,4.02v-15h1.837v2.633h.122a3.633,3.633,0,0,1,.689-1.24,5.413,5.413,0,0,1,1.072-.98,4.82,4.82,0,0,1,1.255-.628,4.1,4.1,0,0,1,1.271-.214,6.094,6.094,0,0,1,1.163.092,3.523,3.523,0,0,1,.888.306L52.2-9.175a3.818,3.818,0,0,0-1.684-.306,3.272,3.272,0,0,0-1.531.383,4.1,4.1,0,0,0-1.286,1.056,5.412,5.412,0,0,0-.888,1.607A5.959,5.959,0,0,0,46.47-4.4V4.02ZM54.92-17.9h1.959V-3.358l7.593-7.623h2.48v.122L61.319-5.195,67.5,3.9V4.02h-2.3l-5.3-7.837L56.879-.786V4.02H54.92Z" transform="translate(-16884.422 4038.09)" fill="#fa4700"/>
      <path id="Path_9113" data-name="Path 9113" d="M12.314,4.6A11.055,11.055,0,0,1,4.17,1.324,11.147,11.147,0,0,1,.925-6.85,11.045,11.045,0,0,1,4.17-14.994,10.939,10.939,0,0,1,12.314-18.3a10.133,10.133,0,0,1,8.052,3.582l-2.021,1.959a7.483,7.483,0,0,0-6.031-2.847,8.27,8.27,0,0,0-6.092,2.449A8.53,8.53,0,0,0,3.8-6.85,8.53,8.53,0,0,0,6.221-.543a8.27,8.27,0,0,0,6.092,2.449,8.578,8.578,0,0,0,6.643-3.215L21.009.681a10.634,10.634,0,0,1-3.827,2.893A11.664,11.664,0,0,1,12.314,4.6ZM25.264-.482A2.249,2.249,0,0,0,26.2,1.355a3.436,3.436,0,0,0,2.189.735A4.489,4.489,0,0,0,31.555.773a4.123,4.123,0,0,0,1.393-3.092A5.786,5.786,0,0,0,29.275-3.36a4.772,4.772,0,0,0-2.863.827A2.455,2.455,0,0,0,25.264-.482Zm3.643-10.9a6.982,6.982,0,0,1,4.929,1.669,5.923,5.923,0,0,1,1.806,4.577V4.11H32.948V2.028h-.122A5.373,5.373,0,0,1,28.172,4.6a6.049,6.049,0,0,1-4.148-1.47A4.693,4.693,0,0,1,22.356-.543a4.46,4.46,0,0,1,1.76-3.7,7.419,7.419,0,0,1,4.7-1.378,8.316,8.316,0,0,1,4.133.918V-5.35a3.206,3.206,0,0,0-1.163-2.5A3.99,3.99,0,0,0,29.06-8.871a4.316,4.316,0,0,0-3.735,1.99l-2.48-1.561A6.915,6.915,0,0,1,28.907-11.381ZM50.154-.053A4.067,4.067,0,0,1,48.44,3.253,6.773,6.773,0,0,1,44.123,4.6a6.853,6.853,0,0,1-3.98-1.179A6.5,6.5,0,0,1,37.694.314L40.2-.758a4.66,4.66,0,0,0,1.607,2.1,3.907,3.907,0,0,0,2.311.75,4.076,4.076,0,0,0,2.25-.582,1.651,1.651,0,0,0,.9-1.378q0-1.439-2.2-2.112L42.5-2.625q-4.378-1.1-4.378-4.225a3.9,3.9,0,0,1,1.669-3.291,6.971,6.971,0,0,1,4.271-1.24,6.941,6.941,0,0,1,3.6.949,5.158,5.158,0,0,1,2.25,2.541L47.4-6.85a3.161,3.161,0,0,0-1.393-1.485,4.368,4.368,0,0,0-2.158-.536,3.62,3.62,0,0,0-1.975.551A1.587,1.587,0,0,0,41-6.972q0,1.286,2.419,1.837l2.266.582Q50.154-3.452,50.154-.053ZM58.39,4.355a4.281,4.281,0,0,1-3.046-1.133A4.2,4.2,0,0,1,54.1.069V-8.319H51.471v-2.572H54.1v-4.592H56.92v4.592h3.674v2.572H56.92v7.47A2.74,2.74,0,0,0,57.5,1.187a1.892,1.892,0,0,0,1.316.536,2.832,2.832,0,0,0,.658-.077,3.414,3.414,0,0,0,.6-.2l.888,2.51A7.564,7.564,0,0,1,58.39,4.355Z" transform="translate(-16816.957 4038)" fill="#fa4700"/>
    </g>
  </g>
</svg>
