<svg xmlns="http://www.w3.org/2000/svg" width="49" height="48.852" viewBox="0 0 49 48.852">
  <path id="Path_1" data-name="Path 1" d="M-902.516-421.633v-16.325h6.156a.823.823,0,0,0,.823-.822l0-6.619a.818.818,0,0,0-.241-.581.822.822,0,0,0-.582-.241h-6.157v-3.873c0-1.86.446-2.805,2.876-2.805l3.528,0a.822.822,0,0,0,.824-.821v-6.145a.823.823,0,0,0-.823-.822l-5.236-.008c-5.882,0-9.683,3.889-9.683,9.908v4.568h-5.265a.823.823,0,0,0-.824.822v6.619a.822.822,0,0,0,.824.821h5.264v16.326h-17.691A10,10,0,0,1-937-431.485v-29a10,10,0,0,1,10-10h29a10,10,0,0,1,10,10v29a10,10,0,0,1-8.279,9.852Z" transform="translate(937 470.485)" fill="#1877f2"/>
</svg>
