<svg className="h-100 w-100" xmlns="http://www.w3.org/2000/svg" width="341" height="254" viewBox="0 0 341 254">
    <path d="M0,0H341V254H0Z" fill="none" />
    <path d="M-681.512-350.913l-6.949-31.131a3.581,3.581,0,0,1,2.587-4.244l13.439-3.527-.239,41.216-5.008.471c-.113.011-.226.016-.337.016A3.582,3.582,0,0,1-681.512-350.913Zm-79.829-22.5c-10.067,0-20.4-1.446-27.652-3.87a91.851,91.851,0,0,0,16.336,1.362,150.431,150.431,0,0,0,19.375-1.363,55.08,55.08,0,0,1-2.346-18.742,75.844,75.844,0,0,1,2.242-16.587,56.6,56.6,0,0,0-.918,20.97,82.442,82.442,0,0,0,4.317,17.546,89.073,89.073,0,0,1-11.354.684ZM-789-377.285-753.287-413l0,.009L-789-377.283Zm0,0h0Z" transform="translate(891.372 449.434)" opacity="0.195" />
    <path d="M322.127,357.731c0,4.29-59.55,7.768-133.008,7.768s-133.008-3.477-133.008-7.768,59.55-7.768,133.008-7.768,133.008,3.478,133.008,7.768" transform="translate(-19.619 -111.888)" fill="#fff" opacity="0.504" />
    <path d="M-656.093-202.766h-8.212a3.086,3.086,0,0,1-2.44-1.211,3.084,3.084,0,0,1-.512-2.675,115.182,115.182,0,0,0,3.989-23.809c-1.731-8.149-3.386-15.819-4.508-20.991h-42.072c-.778,7.142-1.529,13.919-2.233,20.152a3.014,3.014,0,0,1-.218.837c-2.92,7-6.48,15.773-8.1,21.569h.824a3.068,3.068,0,0,1,3.064,3.064,3.067,3.067,0,0,1-3.064,3.064h-4.639a3.064,3.064,0,0,1-2.311-1.053,3.066,3.066,0,0,1-.724-2.435c.792-5.666,4.853-15.925,9.121-26.167.667-5.915,1.376-12.315,2.11-19.031h-36.6a.612.612,0,0,1-.613-.589c-.959-25.1-1.381-49.287-1.264-72.341l-.406,0h0v0a45.226,45.226,0,0,1-9.4-1.106,45.311,45.311,0,0,1-8.875-3,45.278,45.278,0,0,1-8.065-4.768,45.24,45.24,0,0,1-6.974-6.406,3.08,3.08,0,0,1-.175-3.872,140.578,140.578,0,0,0,8.873-14.333c3.244-5.9,5.555-10.823,6.182-13.184a7.455,7.455,0,0,0-2.842-2.969,3.078,3.078,0,0,1-1.747-2.472l-.5-5.024a3.07,3.07,0,0,1,2.75-3.35c.1-.01.2-.014.3-.014a3.051,3.051,0,0,1,3.047,2.764l.345,3.492a15.29,15.29,0,0,1,4.668,5.929,3.071,3.071,0,0,1,.223,1.55c-.282,2.434-2.287,7.278-5.646,13.638a174.048,174.048,0,0,1-9.247,15.526,38.161,38.161,0,0,0,12.525,8.473,38.151,38.151,0,0,0,14.8,2.974h.205q.22-23.757,1.218-45.794a.618.618,0,0,1,.177-.464l35.717-35.716a.613.613,0,0,1,.42-.181h82.4a.611.611,0,0,1,.443.191.608.608,0,0,1,.167.453q-.387,7.678-.692,15.472l52.982-13.9a3.6,3.6,0,0,1,.912-.118,3.6,3.6,0,0,1,3.478,2.683l8.279,31.547a3.607,3.607,0,0,1-2.566,4.39h.006l-8.591,2.254,2.211,8.425a3.607,3.607,0,0,1-2.567,4.39l-20.144,5.286,1.831,6.472c.075-.006.15-.009.226-.009a3.041,3.041,0,0,1,1.326.3,3.069,3.069,0,0,1,1.434,4.09,14.2,14.2,0,0,0-.3,4.8c.015.139.027.282.036.43l2.85,10.074a1.022,1.022,0,0,1-.106.778,1.02,1.02,0,0,1-.625.473.985.985,0,0,1-.261.034v0a1.025,1.025,0,0,1-.99-.765l-1.381-5.256a50.457,50.457,0,0,1-2.523,8.39c-2.415,6.128-5.573,11.018-8.666,13.414a3.07,3.07,0,0,1-1.876.643h0v0h-.017a2.251,2.251,0,0,1-.233-.011,39.593,39.593,0,0,1-15.755-4.915,54.381,54.381,0,0,1-10.054-7.139c.2,21.679.787,44.191,1.776,67.726a.609.609,0,0,1-.168.45.613.613,0,0,1-.442.188h-26.986c1.569,7.24,3.023,14.018,4.325,20.154a3.037,3.037,0,0,1,.058.878,126.616,126.616,0,0,1-3.208,21.526h4.238a3.068,3.068,0,0,1,3.065,3.064,3.067,3.067,0,0,1-3.064,3.064Zm-95.944-49.91,0,0h116.874c-1.513-36.237-2.084-70.05-1.715-102.142l-.035.009a3.629,3.629,0,0,1-.912.117,3.6,3.6,0,0,1-3.478-2.683l-8.285-31.546a3.607,3.607,0,0,1,2.566-4.391l11.178-2.933q.3-7.666.676-15.217H-716.44c-2.1,7.991-3.75,23.508.109,34.911a.61.61,0,0,1-.061.517.612.612,0,0,1-.438.283,152.377,152.377,0,0,1-19.463,1.37c-.2,0-.41,0-.615,0a91.83,91.83,0,0,1-15.137-1.255C-753.719-338.277-753.718-296.913-752.037-252.676Zm116.294-75.85a52.491,52.491,0,0,0,6.664,6.208,45.975,45.975,0,0,0,8.14,5.143A33.111,33.111,0,0,0-610.64-314c2.152-2.137,4.415-6.153,6.208-11.021,1.566-4.252,2.47-8.391,2.251-10.3a.486.486,0,0,0-.005-.065c0-.014,0-.029,0-.043-.1-1.235-.331-5.462.884-7.987a3.061,3.061,0,0,1,.971-1.155l-1.749-6.656-19.636,5.153a3.623,3.623,0,0,1-.911.117,3.6,3.6,0,0,1-3.479-2.683l-2.211-8.424-7.324,1.922Q-635.8-342.034-635.743-328.526Zm14.666-30.677,1.77,6.818,5.747-1.495-.4-1.543-3.635.945-.349-1.344,3.279-.851-.363-1.391-3.278.852-.282-1.083,3.534-.92-.38-1.454Zm10.423-2.712-3.51.914,1.773,6.816,2.113-.558-.72-2.767.186-.049a.9.9,0,0,1,.24-.032.909.909,0,0,1,.318.057,1.635,1.635,0,0,1,.518.426l1.668,1.79,2.38-.618-1.533-1.71a2.64,2.64,0,0,0-.4-.347,2.113,2.113,0,0,0-.43-.271,2.128,2.128,0,0,0-.613-.108,2.669,2.669,0,0,0,.67-.462,2,2,0,0,0,.567-1.477,2,2,0,0,0-.69-1.424,1.65,1.65,0,0,0-.994-.4h-.027A5.278,5.278,0,0,0-610.655-361.915Zm7.4-1.924-3.51.913,1.773,6.815,2.114-.558-.72-2.767.186-.049a.916.916,0,0,1,.241-.032.9.9,0,0,1,.316.057,1.605,1.605,0,0,1,.518.426l1.667,1.79,2.38-.617-1.534-1.712a2.786,2.786,0,0,0-.406-.346,2.161,2.161,0,0,0-.429-.27,2.134,2.134,0,0,0-.614-.108,2.652,2.652,0,0,0,.671-.463,2,2,0,0,0,.567-1.477,1.987,1.987,0,0,0-.691-1.424,1.649,1.649,0,0,0-.993-.4h-.027A5.258,5.258,0,0,0-603.252-363.839Zm6.929-1.929a3.326,3.326,0,0,0-2.349,1.609,3.331,3.331,0,0,0-.251,2.836,4.027,4.027,0,0,0,.989,1.869,2.966,2.966,0,0,0,1.527.843,4.658,4.658,0,0,0,.716.057,4.52,4.52,0,0,0,1.285-.186,3.964,3.964,0,0,0,1.784-.919,2.942,2.942,0,0,0,.853-1.492,4.358,4.358,0,0,0-.108-2.065,3.571,3.571,0,0,0-1.587-2.319,3.69,3.69,0,0,0-1.706-.419A3.673,3.673,0,0,0-596.323-365.768Zm8.247-2.021-3.51.912,1.773,6.817,2.115-.559-.72-2.767.186-.048a.925.925,0,0,1,.243-.033.9.9,0,0,1,.316.057,1.617,1.617,0,0,1,.516.427l1.668,1.79,2.38-.619-1.534-1.71a2.642,2.642,0,0,0-.406-.347,2.155,2.155,0,0,0-.428-.271,2.145,2.145,0,0,0-.615-.108,2.675,2.675,0,0,0,.67-.462,2,2,0,0,0,.565-1.477,1.993,1.993,0,0,0-.689-1.423,1.647,1.647,0,0,0-.994-.4h-.018A5.285,5.285,0,0,0-588.076-367.789Zm-35.9-4.9h0l.846,2.77,3.856-1.179-.847-2.771,2-.61-.972-3.179-2,.61-3.284-10.741-2.282.7-2.8.855L-633-373.37l.962,3.146,8.06-2.464Zm10.549-18.7a7.187,7.187,0,0,0-3.454,2.156,6.812,6.812,0,0,0-1.534,3.668,12.155,12.155,0,0,0,.567,4.929,12.176,12.176,0,0,0,2.284,4.44,7.011,7.011,0,0,0,3.352,2.246,6.362,6.362,0,0,0,1.784.253,7.91,7.91,0,0,0,2.3-.365,7.079,7.079,0,0,0,3.454-2.183,6.959,6.959,0,0,0,1.519-3.731,12.285,12.285,0,0,0-.584-4.972,11.908,11.908,0,0,0-2.273-4.4,6.787,6.787,0,0,0-3.336-2.183,6.45,6.45,0,0,0-1.716-.229A8.085,8.085,0,0,0-613.429-391.385Zm-124.481,1.177-13.448,13.449c9.489,1.572,20.514,1.535,33.637-.112-3.228-10.245-2.5-23.807-.325-33.2Zm146.036,7.7h0l.846,2.77,3.856-1.179-.848-2.771,2-.61-.972-3.179-2,.61-3.284-10.741-2.282.7-2.8.855-3.544,12.866.962,3.146,8.06-2.464Zm-76.705,113.448a.458.458,0,0,1-.458-.458.458.458,0,0,1,.458-.459h12.88a.459.459,0,0,1,.459.459.458.458,0,0,1-.459.458Zm-62.87,0a.458.458,0,0,1-.459-.458.459.459,0,0,1,.459-.459h57.532a.459.459,0,0,1,.459.459.458.458,0,0,1-.459.458Zm48.338-4.63a2.106,2.106,0,0,1-.738-1.544,1.985,1.985,0,0,1,.2-1.006,1.916,1.916,0,0,1,.622-.731,2.94,2.94,0,0,1,.895-.416,8.58,8.58,0,0,1,1.121-.191,11.363,11.363,0,0,0,2.246-.438c0-.176-.005-.285-.009-.333a1.464,1.464,0,0,0-.412-1.1,2.222,2.222,0,0,0-1.47-.43,2.179,2.179,0,0,0-1.309.314,1.816,1.816,0,0,0-.58,1.113l-1.25-.17a2.932,2.932,0,0,1,.5-1.289,2.3,2.3,0,0,1,1.087-.756,4.9,4.9,0,0,1,1.69-.264,4.565,4.565,0,0,1,1.571.226,2.184,2.184,0,0,1,.91.568,2.129,2.129,0,0,1,.437.866,7.124,7.124,0,0,1,.119,1.173l.081,1.695a18.368,18.368,0,0,0,.189,2.243,2.993,2.993,0,0,0,.365.9h-1.331a2.8,2.8,0,0,1-.3-.925l0,0a4.455,4.455,0,0,1-1.319.848,3.824,3.824,0,0,1-1.391.246c-.058,0-.117.005-.176.005A2.84,2.84,0,0,1-683.111-273.686Zm2.342-2.85a4.713,4.713,0,0,0-1.1.255,1.035,1.035,0,0,0-.482.413,1.056,1.056,0,0,0-.148.6,1.143,1.143,0,0,0,.426.847,1.729,1.729,0,0,0,1.143.339,2.55,2.55,0,0,0,1.292-.32,1.851,1.851,0,0,0,.8-.88,3.014,3.014,0,0,0,.144-1.271l-.021-.463A9.039,9.039,0,0,1-680.769-276.537Zm-16.815,2.85a2.106,2.106,0,0,1-.738-1.544,1.985,1.985,0,0,1,.2-1.006,1.923,1.923,0,0,1,.622-.731,2.908,2.908,0,0,1,.9-.416,8.6,8.6,0,0,1,1.12-.191,11.371,11.371,0,0,0,2.247-.438c0-.176-.007-.285-.01-.333a1.473,1.473,0,0,0-.412-1.1,2.22,2.22,0,0,0-1.469-.43,2.18,2.18,0,0,0-1.31.314,1.821,1.821,0,0,0-.58,1.113l-1.251-.17a2.922,2.922,0,0,1,.5-1.289,2.3,2.3,0,0,1,1.087-.756,4.906,4.906,0,0,1,1.69-.264,4.572,4.572,0,0,1,1.572.226,2.189,2.189,0,0,1,.91.568,2.137,2.137,0,0,1,.437.866,7.321,7.321,0,0,1,.119,1.173l.082,1.695a18.187,18.187,0,0,0,.188,2.243,2.968,2.968,0,0,0,.365.9h-1.328a2.8,2.8,0,0,1-.3-.925l0,0a4.455,4.455,0,0,1-1.319.848,3.843,3.843,0,0,1-1.391.246c-.059,0-.117.005-.176.005A2.843,2.843,0,0,1-697.584-273.686Zm2.347-2.85a4.706,4.706,0,0,0-1.1.255,1.033,1.033,0,0,0-.482.413,1.048,1.048,0,0,0-.147.6,1.14,1.14,0,0,0,.425.847,1.73,1.73,0,0,0,1.143.339,2.553,2.553,0,0,0,1.292-.32,1.851,1.851,0,0,0,.8-.88,3.014,3.014,0,0,0,.145-1.271l-.023-.463A9.037,9.037,0,0,1-695.237-276.537Zm-17.625,2.85a2.1,2.1,0,0,1-.738-1.544,1.994,1.994,0,0,1,.2-1.006,1.93,1.93,0,0,1,.622-.731,2.927,2.927,0,0,1,.9-.416,8.582,8.582,0,0,1,1.121-.191,11.362,11.362,0,0,0,2.246-.438c0-.176-.007-.285-.01-.333a1.466,1.466,0,0,0-.412-1.1,2.218,2.218,0,0,0-1.469-.43,2.178,2.178,0,0,0-1.309.314,1.818,1.818,0,0,0-.581,1.113l-1.251-.17a2.934,2.934,0,0,1,.5-1.289,2.294,2.294,0,0,1,1.087-.756,4.9,4.9,0,0,1,1.689-.264,4.566,4.566,0,0,1,1.572.226,2.184,2.184,0,0,1,.91.568,2.13,2.13,0,0,1,.438.866,7.328,7.328,0,0,1,.119,1.173l.081,1.695a18.356,18.356,0,0,0,.189,2.243,2.989,2.989,0,0,0,.364.9h-1.327a2.805,2.805,0,0,1-.3-.925l-.005,0a4.462,4.462,0,0,1-1.319.848,3.844,3.844,0,0,1-1.391.246c-.059,0-.117.005-.176.005A2.838,2.838,0,0,1-712.861-273.686Zm2.348-2.85a4.714,4.714,0,0,0-1.1.255,1.036,1.036,0,0,0-.482.413,1.056,1.056,0,0,0-.148.6,1.141,1.141,0,0,0,.426.847,1.729,1.729,0,0,0,1.143.339,2.55,2.55,0,0,0,1.292-.32,1.846,1.846,0,0,0,.8-.88,3.014,3.014,0,0,0,.145-1.271l-.022-.463A9.039,9.039,0,0,1-710.513-276.537Zm49.653,3.451a3.6,3.6,0,0,1-2.659-1.012,4.142,4.142,0,0,1-1.1-2.843,3.99,3.99,0,0,1,.834-2.939,3.144,3.144,0,0,1,2.479-1.045A3.366,3.366,0,0,1-658.8-279.9a4.255,4.255,0,0,1,1.091,2.882c0,.077.007.189.01.34h-5.6a3.025,3.025,0,0,0,.789,1.892,2.182,2.182,0,0,0,1.6.657,1.871,1.871,0,0,0,1.177-.367A2.3,2.3,0,0,0-659-275.67h0l1.321.163a3.013,3.013,0,0,1-1.065,1.786,3.324,3.324,0,0,1-1.959.639C-660.755-273.083-660.807-273.083-660.86-273.086Zm-1.825-6.206a2.208,2.208,0,0,0-.585,1.568h4.188a2.651,2.651,0,0,0-.548-1.419,2.05,2.05,0,0,0-1.61-.735h-.058A1.928,1.928,0,0,0-662.685-279.293Zm-63.935,6.206a3.1,3.1,0,0,1-1.252-.254,2.182,2.182,0,0,1-.885-.639,2.513,2.513,0,0,1-.437-.943,6.483,6.483,0,0,1-.135-1.185l-.222-4.649h1.273l.2,4.161a7.576,7.576,0,0,0,.142,1.344,1.412,1.412,0,0,0,.545.788,1.638,1.638,0,0,0,.976.285,2.021,2.021,0,0,0,1.058-.293,1.522,1.522,0,0,0,.672-.8,3.926,3.926,0,0,0,.138-1.464l-.192-4.02h1.271l.359,7.5h-1.139l-.053-1.1a2.6,2.6,0,0,1-2.235,1.272Zm52.465-1.109.05.941h-1.179l-.5-10.355h1.271l.176,3.694a2.388,2.388,0,0,1,2.007-1.01,3.254,3.254,0,0,1,1.324.279,2.877,2.877,0,0,1,1.054.784,4.027,4.027,0,0,1,.683,1.219,5.137,5.137,0,0,1,.3,1.525,4.124,4.124,0,0,1-.811,2.981,2.834,2.834,0,0,1-2.238,1.052h-.05A2.522,2.522,0,0,1-674.156-274.195Zm.352-4.961a3.075,3.075,0,0,0-.507,2.094h.005a4.006,4.006,0,0,0,.46,1.949,1.935,1.935,0,0,0,1.671.981,1.729,1.729,0,0,0,1.407-.724,3.176,3.176,0,0,0,.5-2.157,3.483,3.483,0,0,0-.687-2.168,1.872,1.872,0,0,0-1.443-.7A1.738,1.738,0,0,0-673.8-279.156Zm-47.315,5.9-.359-7.5h1.147l.05,1.067a2.557,2.557,0,0,1,2.328-1.237,3.226,3.226,0,0,1,1.258.244,2.115,2.115,0,0,1,.882.639,2.6,2.6,0,0,1,.441.941,7.305,7.305,0,0,1,.13,1.235l.221,4.613h-1.273l-.218-4.563a3.475,3.475,0,0,0-.2-1.162,1.309,1.309,0,0,0-.556-.615,1.729,1.729,0,0,0-.9-.23,1.97,1.97,0,0,0-1.377.516,2.45,2.45,0,0,0-.5,1.957l.2,4.1Zm53.857,0-.5-10.355h1.272l.5,10.355Zm-19.3,0-.5-10.355h1.281l.5,10.355Zm-3.177,0-.358-7.5h1.272l.359,7.5Zm-13.2,0-3.213-7.5h1.342l1.826,4.493q.3.729.552,1.511.142-.593.4-1.426l1.447-4.578h1.308l-2.481,7.5Zm12.775-8.892-.071-1.463h1.271l.071,1.463Zm-25.473-5.8a3.543,3.543,0,0,1-1.55-1.233,3.647,3.647,0,0,1-.657-1.862l.006,0,1.287-.113a2.984,2.984,0,0,0,.489,1.275,2.5,2.5,0,0,0,1.08.8,4.045,4.045,0,0,0,1.6.307,3.721,3.721,0,0,0,1.373-.232,1.8,1.8,0,0,0,.864-.639,1.432,1.432,0,0,0,.25-.887,1.4,1.4,0,0,0-.323-.851,2.23,2.23,0,0,0-.962-.611,19.144,19.144,0,0,0-1.868-.506,9.733,9.733,0,0,1-2.029-.646,2.99,2.99,0,0,1-1.152-.964,2.45,2.45,0,0,1-.425-1.29,2.545,2.545,0,0,1,.374-1.465,2.573,2.573,0,0,1,1.251-1.034,4.806,4.806,0,0,1,1.884-.354,5.346,5.346,0,0,1,2.047.371,3.138,3.138,0,0,1,1.4,1.091,3.265,3.265,0,0,1,.587,1.632l-1.309.1a2.242,2.242,0,0,0-.788-1.484,2.9,2.9,0,0,0-1.829-.5,2.8,2.8,0,0,0-1.79.456,1.3,1.3,0,0,0-.516,1.1,1.239,1.239,0,0,0,.446.918,5.714,5.714,0,0,0,2.1.739,14.28,14.28,0,0,1,2.324.661,3.371,3.371,0,0,1,1.385,1.056,2.684,2.684,0,0,1,.5,1.473,2.72,2.72,0,0,1-.4,1.558,2.921,2.921,0,0,1-1.3,1.137,4.608,4.608,0,0,1-1.976.4l-.17,0A6.126,6.126,0,0,1-715.641-287.951Zm41.611.4a3.59,3.59,0,0,1-2.658-1.013,4.135,4.135,0,0,1-1.1-2.843,3.982,3.982,0,0,1,.833-2.939,3.146,3.146,0,0,1,2.479-1.045,3.366,3.366,0,0,1,2.507,1.024,4.26,4.26,0,0,1,1.092,2.882c0,.076.006.189.009.339h-5.594a3.018,3.018,0,0,0,.79,1.893,2.182,2.182,0,0,0,1.6.657,1.871,1.871,0,0,0,1.175-.368,2.281,2.281,0,0,0,.729-1.172h0l1.321.163a3.013,3.013,0,0,1-1.065,1.786,3.328,3.328,0,0,1-1.963.64C-673.927-287.547-673.979-287.548-674.031-287.551Zm-1.823-6.207a2.2,2.2,0,0,0-.586,1.569h4.188a2.659,2.659,0,0,0-.547-1.419,2.052,2.052,0,0,0-1.611-.735h-.06A1.921,1.921,0,0,0-675.854-293.758Zm-28.718,6.207a3.6,3.6,0,0,1-2.659-1.013,4.144,4.144,0,0,1-1.1-2.843,3.988,3.988,0,0,1,.834-2.939,3.145,3.145,0,0,1,2.479-1.045,3.363,3.363,0,0,1,2.507,1.024,4.251,4.251,0,0,1,1.091,2.882c0,.076.007.189.01.339H-707a3.017,3.017,0,0,0,.789,1.893,2.182,2.182,0,0,0,1.6.657,1.873,1.873,0,0,0,1.176-.368,2.293,2.293,0,0,0,.729-1.172h0l1.32.163a3.005,3.005,0,0,1-1.066,1.786,3.327,3.327,0,0,1-1.962.64C-704.469-287.547-704.52-287.548-704.572-287.551Zm-1.824-6.207a2.21,2.21,0,0,0-.585,1.569h4.188a2.658,2.658,0,0,0-.547-1.419,2.052,2.052,0,0,0-1.61-.735h-.058A1.926,1.926,0,0,0-706.4-293.758Zm22.482,5.2a4.266,4.266,0,0,1-1.074-2.884,5.1,5.1,0,0,1,.3-2.128,2.624,2.624,0,0,1,1.159-1.365,3.513,3.513,0,0,1,1.77-.456,3.238,3.238,0,0,1,2.028.618,3.017,3.017,0,0,1,1.08,1.755l-1.227.191a2.19,2.19,0,0,0-.68-1.138,1.69,1.69,0,0,0-1.1-.381,1.875,1.875,0,0,0-1.528.689,3.154,3.154,0,0,0-.5,2.179,3.5,3.5,0,0,0,.684,2.2,1.982,1.982,0,0,0,1.544.686,1.7,1.7,0,0,0,1.229-.459,2.168,2.168,0,0,0,.568-1.413l0,0,1.258.163a3.071,3.071,0,0,1-.952,2.023,2.926,2.926,0,0,1-2.038.731c-.04,0-.079,0-.119,0A3.372,3.372,0,0,1-683.914-288.558Zm-15.785.837-.359-7.5h1.144l.054,1.138a2.908,2.908,0,0,1,.759-1.053,1.357,1.357,0,0,1,.8-.255,2.579,2.579,0,0,1,1.327.41l-.382,1.18a1.878,1.878,0,0,0-.945-.276,1.157,1.157,0,0,0-.737.252,1.26,1.26,0,0,0-.44.7,4.832,4.832,0,0,0-.141,1.481l.188,3.928Zm12.071,0-.358-7.5h1.271l.359,7.5Zm-5.155,0-3.213-7.5h1.342l1.825,4.492q.3.729.553,1.512.14-.593.4-1.427l1.448-4.577h1.307l-2.48,7.5Zm4.729-8.892-.07-1.462h1.272l.069,1.462Zm-15.573-26.244a.873.873,0,0,1-.059-.669.869.869,0,0,1,.434-.511,29.117,29.117,0,0,1,3.59-1.563l0-.005a25.031,25.031,0,0,1,19.636.9.868.868,0,0,1,.419.525.873.873,0,0,1-.079.666.889.889,0,0,1-1.2.334,24.115,24.115,0,0,0-21.545.7.894.894,0,0,1-.407.1A.891.891,0,0,1-703.627-322.857Zm-13.47-14.732c-.139-2.987,1.339-5.465,3.3-5.535s3.659,2.292,3.794,5.279-1.34,5.464-3.3,5.535l-.086,0C-715.314-332.31-716.962-334.646-717.1-337.589Zm41.418-.934c-.14-2.987,1.34-5.464,3.3-5.535s3.659,2.293,3.794,5.279v0c.139,2.986-1.34,5.465-3.3,5.535l-.085,0C-673.895-333.242-675.543-335.579-675.68-338.523Zm-54.008-17.615a1.738,1.738,0,0,1,.455-1.258,1.741,1.741,0,0,1,1.213-.563,13.846,13.846,0,0,0,10.538-7.051,1.748,1.748,0,0,1,1.552-.855,1.767,1.767,0,0,1,1.5.9,1.768,1.768,0,0,1-.008,1.75,17.347,17.347,0,0,1-13.4,8.758l-.074,0A1.774,1.774,0,0,1-729.688-356.138Zm54.306-7.789a1.741,1.741,0,0,1-.44-1.746,1.74,1.74,0,0,1,1.34-1.2l0,0a1.782,1.782,0,0,1,1.6.491,14.132,14.132,0,0,0,12.02,4.336,1.783,1.783,0,0,1,2.08,1.38,1.736,1.736,0,0,1-.251,1.312,1.74,1.74,0,0,1-1.109.745,17.677,17.677,0,0,1-2.43.167A17.7,17.7,0,0,1-675.382-363.927Zm64.051,5.139-.359-1.379.925-.241a1.308,1.308,0,0,1,.457-.083,1.3,1.3,0,0,1,.374.055.716.716,0,0,1,.311.882.579.579,0,0,1-.287.3,3.357,3.357,0,0,1-.533.237l-.886.23h0Zm15.288-1.69a2.364,2.364,0,0,1-.769-1.383,2.378,2.378,0,0,1,0-1.591,1.31,1.31,0,0,1,.905-.718,1.355,1.355,0,0,1,.406-.062,1.366,1.366,0,0,1,.763.233,2.178,2.178,0,0,1,.753,1.3,2.611,2.611,0,0,1,.04,1.683,1.5,1.5,0,0,1-.936.715,1.489,1.489,0,0,1-.368.046A1.507,1.507,0,0,1-596.042-360.478Zm-7.886-.235-.359-1.381.925-.241a1.308,1.308,0,0,1,.457-.083,1.276,1.276,0,0,1,.373.055.715.715,0,0,1,.31.882.581.581,0,0,1-.286.3,3.271,3.271,0,0,1-.534.237l-.886.231h0Zm15.176-3.949-.359-1.38.925-.24a1.317,1.317,0,0,1,.458-.083,1.31,1.31,0,0,1,.373.054.72.72,0,0,1,.312.882.582.582,0,0,1-.287.3,3.392,3.392,0,0,1-.534.239l-.886.229h0ZM-629-374.63l-.04-.13,2.064-7.565.13-.04,1.979,6.471L-629-374.63h0Zm18.155-2.854a4.044,4.044,0,0,1-1.572-1.484A11.136,11.136,0,0,1-613.7-381.9a8.346,8.346,0,0,1-.42-4.262,2.507,2.507,0,0,1,1.695-1.948,2.444,2.444,0,0,1,.711-.11,2.365,2.365,0,0,1,.99.223,3.976,3.976,0,0,1,1.555,1.445,10.672,10.672,0,0,1,1.28,2.875,8.455,8.455,0,0,1,.454,4.339,2.525,2.525,0,0,1-1.7,1.978,2.39,2.39,0,0,1-.694.106A2.4,2.4,0,0,1-610.846-377.483Zm13.95-6.962-.04-.13,2.064-7.564.13-.04,1.979,6.471-4.13,1.263h0Zm26-6.108-.959-3.657.663-.174.96,3.657-.662.174h0Zm-2.027-7.728-2.642-10.068a5.341,5.341,0,0,0-2.456-3.239,5.308,5.308,0,0,0-2.677-.725,5.317,5.317,0,0,0-1.352.175l-6.907,1.813-.175-.663,6.908-1.813a5.985,5.985,0,0,1,1.526-.2,5.991,5.991,0,0,1,3.021.818,5.952,5.952,0,0,1,2.775,3.658l2.641,10.07-.661.174h0Z" transform="translate(854.999 448.51)" fill="currentColor" />
</svg>