<svg xmlns="http://www.w3.org/2000/svg" width="91.331" height="35.498" viewBox="0 0 91.331 35.498">
  <g id="Group_9005" data-name="Group 9005" transform="translate(-95.94 -87.505)">
    <path id="Path_6977" data-name="Path 6977" d="M246.648,88.275c-1.762.88-2.528,2.524-2.528,6.989a7,7,0,0,1,2.293-1.41,9.511,9.511,0,0,0,2.289-1.262c1.527-1.135,1.756-2.528,1.756-4.935A8.6,8.6,0,0,0,246.648,88.275Z" transform="translate(-98.436 -0.093)" fill="#fbbd71"/>
    <path id="Path_6978" data-name="Path 6978" d="M137.433,89.214a6.407,6.407,0,0,0-1.907,3.434l-4.935,18.913-4.052-15.476a13.2,13.2,0,0,0-2.289-5.079c-1.41-1.793-4.364-1.91-4.7-1.91-.265,0-3.172.117-4.7,1.91a13.2,13.2,0,0,0-2.289,5.079l-3.817,15.476-4.935-18.913a6.939,6.939,0,0,0-1.907-3.434c-2.407-2.172-5.962-1.645-5.962-1.645l9.4,35.386s3.055.265,4.582-.5c2.014-1.027,3.055-1.762,4.2-6.607,1.145-4.317,4.2-16.886,4.435-17.765.117-.383.379-1.527,1.145-1.527s1.027,1.027,1.145,1.527c.265.88,3.29,13.448,4.435,17.765,1.262,4.814,2.142,5.579,4.2,6.607,1.527.765,4.579.5,4.579.5l9.336-35.386S139.843,87.068,137.433,89.214Z" transform="translate(0 -0.005)" fill="#fff"/>
    <path id="Path_6979" data-name="Path 6979" d="M250.381,104.65a6.992,6.992,0,0,1-1.91,1.645c-.88.5-1.642.762-2.524,1.262-1.527.765-1.907,1.527-1.907,2.686v2.289h0v21.7a8.521,8.521,0,0,0,3.934-.5c2.014-1.027,2.407-2.014,2.407-6.341V106.06h0Z" transform="translate(-98.383 -11.389)" fill="#fff"/>
    <path id="Path_6980" data-name="Path 6980" d="M292.3,105.329l11.927-17.658s-4.935-.88-7.489,1.41a21.278,21.278,0,0,0-3.29,4.052l-4.327,6.355c-.262.379-.5.645-.88.645a1.145,1.145,0,0,1-.88-.645l-4.317-6.345a36.882,36.882,0,0,0-3.29-4.052c-2.524-2.289-7.489-1.41-7.489-1.41L283.807,105.3,272,122.92s5.2.645,7.751-1.645a20.3,20.3,0,0,0,3.172-3.817l4.317-6.341c.262-.383.5-.648.88-.648a1.141,1.141,0,0,1,.88.648l4.317,6.341a27.174,27.174,0,0,0,3.172,3.817c2.524,2.289,7.607,1.645,7.607,1.645Z" transform="translate(-116.957 0)" fill="#fff"/>
  </g>
</svg>
