<svg xmlns="http://www.w3.org/2000/svg" width="330.97" height="162.45" viewBox="0 0 330.97 162.45">
  <g id="wordpress" transform="translate(-67 -59.55)">
    <path id="Path_10" data-name="Path 10" d="M-728.23-269.54l-9.72-29.83-9.9,29.83h-1.24l-10.57-32.58c-2.29-6.95-3.81-8.419-9.339-8.419v-1.911h21.15v1.911c-5.62,0-7.151,1.329-5.151,7.24l6.39,19.43,9.61-28.54h1.81l9.44,28.58,6.58-19.43c1.9-5.62,1-7.24-5-7.24v-1.91h17.91v1.87c-6,0-7.43,1.429-9.81,8.38L-727-269.54Zm15.87-17.53c0-9.44,8.58-17.05,19-17.05s19.06,7.72,19.06,17.05-8.581,17.15-19.06,17.15S-712.36-277.63-712.36-287.07Zm7.19,0c0,6.19,3,14.11,11.81,14.11s11.91-7.82,11.91-14.11-3.05-14.09-11.91-14.09C-702.12-301.16-705.17-293.26-705.17-287.07Zm57.49,15.83-10.58-13.25h-1.62v3.43c0,6.76.86,8,6.2,8v1.81h-19v-1.81c5.33,0,6.19-1.23,6.19-8v-12.19c0-6.771-.86-7.91-6.19-7.91v-1.81h16.76c8.39,0,12.87,4,12.87,9.239,0,4.23-3.1,7.951-9,9l4.38,4.76c3.81,4.23,6.57,6.421,10.669,7,5.33,0,6.19-1.23,6.19-8v-12.19c0-6.771-.86-7.91-6.19-7.91v-1.81h17c13.63,0,19.53,7.04,19.53,15.719s-5.9,15.92-19.53,15.92Zm23.4-8.11c0,4.39.47,5.24,3.9,5.24h.67c9.91,0,11.71-7.24,11.721-13.05,0-5.62-1.811-12.86-11.721-12.86h-4.569Zm-35.64-8H-656c4.29,0,6.19-2.86,6.19-6.29s-1.9-6.38-6.19-6.38h-3.919Z" transform="translate(836 491.54)" fill="#00749a"/>
    <path id="Path_9" data-name="Path 9" d="M-657.82-273.2a6.843,6.843,0,0,0-1.53,3.24h-1.81V-283.1h1.91c.76,6.28,5.14,10,10.76,10,3.049,0,5.53-1.71,5.53-4.57,0-2.48-2.19-4.39-6.1-6.2l-5.43-2.57c-3.81-1.81-6.67-4.95-6.67-9.139,0-4.58,4.289-8.48,10.2-8.48a12,12,0,0,1,7.43,2.47,5.373,5.373,0,0,0,1.239-2.57h1.811v11.24h-2c-.67-4.469-3.15-8.19-8.2-8.19-2.659,0-5.14,1.52-5.14,3.911s2,3.81,6.57,5.9l5.24,2.58c4.58,2.19,6.39,5.71,6.39,8.57,0,6-5.24,10.19-11.63,10.19A14.067,14.067,0,0,1-657.82-273.2ZM-769-271.19v-1.91c6.379,0,7.52-1.62,7.52-11.15V-299.49c0-9.53-1.14-11.049-7.52-11.049v-1.911h19.75c9.81,0,15.24,5.05,15.24,11.821,0,6.57-5.43,11.71-15.24,11.71h-5.43v4.67c-.031,9.53,1.11,11.15,7.49,11.15v1.91Zm14.32-21.25h5.43c5.33,0,7.81-3.721,7.81-8.19s-2.51-8.391-7.81-8.391h-5.43Zm47.84,21.209-10.58-13.25h-1.62v3.43c0,6.76.859,8,6.189,8v1.81h-19v-1.81c5.341,0,6.2-1.23,6.2-8v-12.19c0-6.77-.859-7.91-6.2-7.91v-1.81h16.74c8.391,0,12.86,4,12.86,9.239,0,4.23-3.09,7.951-9,9l4.38,4.74c3.76,4.13,6.5,6.31,10.5,6.92,4.209-.25,4.939-1.81,4.939-8v-12.19c0-6.771-.859-7.91-6.2-7.91v-1.81h28l.66,9h-1.52l-.48-1.8c-.86-3.15-1.9-4.29-8.671-4.29h-5.24v10.67c7.43,0,8-.62,8-5.62h1.81v14.19h-1.81c0-4.95-.57-5.621-8-5.621v4.38c0,6.77.86,7.91,5.81,7.91h1.34c6.76,0,7.809-1.14,8.67-4.29l.47-1.71,1.471-.08-.571,9Zm-12.24-16.159h3.91c4.28,0,6.189-2.86,6.189-6.29s-1.91-6.38-6.189-6.38h-3.91Z" transform="translate(1006.25 491.58)" fill="#464342"/>
    <path id="Path_7" data-name="Path 7" d="M386.35,221.62a14.08,14.08,0,0,1-8.58-3.24,6.84,6.84,0,0,0-1.52,3.24h-1.81V208.48h1.9c.76,6.28,5.15,10,10.77,10,3.05,0,5.52-1.71,5.52-4.57,0-2.48-2.19-4.39-6.09-6.2l-5.43-2.57c-3.82-1.81-6.67-4.95-6.67-9.14,0-4.58,4.28-8.48,10.19-8.48a12,12,0,0,1,7.43,2.47,5.38,5.38,0,0,0,1.24-2.57h1.81v11.24h-2c-.67-4.47-3.14-8.19-8.19-8.19-2.67,0-5.15,1.52-5.15,3.91s2,3.81,6.58,5.9l5.23,2.58c4.58,2.19,6.39,5.71,6.39,8.57C398,217.43,392.73,221.62,386.35,221.62Z" fill="#464342"/>
    <path id="Path_8" data-name="Path 8" d="M-769-263.3a49.15,49.15,0,0,1,49.15-49.15A49.211,49.211,0,0,1-670.7-263.3a49.15,49.15,0,0,1-49.15,49.151A49.15,49.15,0,0,1-769-263.3Zm2.25-.053a46.9,46.9,0,0,0,46.9,46.9l0,.04a46.939,46.939,0,0,0,46.9-46.936,46.9,46.9,0,0,0-46.9-46.9h0A46.9,46.9,0,0,0-766.75-263.354Zm34.989,40.494,12.65-36.76,12.96,35.51a4.527,4.527,0,0,0,.3.58,42.139,42.139,0,0,1-13.992,2.39A42.163,42.163,0,0,1-731.76-222.86ZM-762.01-263.3a42,42,0,0,1,3.68-17.159l20.086,55.1A42.162,42.162,0,0,1-762.01-263.3Zm76.24-.789a39.939,39.939,0,0,0,3.2-15.11,32.4,32.4,0,0,0-.28-4.33,42.179,42.179,0,0,1-15.8,56.669Zm-59.86-19.06c2.541-.13,4.82-.4,4.82-.4a1.74,1.74,0,0,0,1.6-1.869,1.74,1.74,0,0,0-1.87-1.6s-6.82.53-11.23.53h-2.72a42.166,42.166,0,0,1,30.017-18.674A42.169,42.169,0,0,1-691.33-294.43h-.54a7.3,7.3,0,0,0-7.08,7.48c0,3.479,2,6.42,4.14,9.89a22.262,22.262,0,0,1,3.48,11.63c0,3.61-1.44,7.8-3.261,13.68l-4.209,14L-714.04-283.07c2.541-.131,4.83-.4,4.83-.4a1.75,1.75,0,0,0,1.481-1.865,1.751,1.751,0,0,0-1.751-1.615s-6.83.54-11.24.54c-4.1,0-11.1-.54-11.1-.54-2.27-.13-2.541,3.34-.27,3.479,0,0,2.15.27,4.42.4l6.57,18-9.23,27.67Z" transform="translate(952.33 372)" fill="#464342"/>
  </g>
</svg>
