<svg xmlns="http://www.w3.org/2000/svg" width="69" height="69" viewBox="0 0 69 69">
        <g id="Group_10688" data-name="Group 10688" transform="translate(1233 18010)">
            <rect id="Rectangle_3861" data-name="Rectangle 3861" width="69" height="69" transform="translate(-1233 -18010)" fill="none" />
            <g id="Group_10679" data-name="Group 10679" transform="translate(-31 -51)">
                <path id="Exclusion_1" data-name="Exclusion 1" d="M140,268H118V247h22v21Zm-23,0H96V247h21v21Zm-22,0H73V247H95v21Zm45-22H118V225h22v21Zm-23,0H96V225h21v21Zm-22,0H73V225H95v21Zm45-22H118V203h22v21Zm-23,0H96V203h21v21Zm-22,0H73V203H95v21Z" transform="translate(-1274 -18160)" fill="currentColor" />
            </g>
        </g>
    </svg>