<svg xmlns="http://www.w3.org/2000/svg" width="226.045" height="39.705" viewBox="0 0 226.045 39.705">
  <g id="Group_1" data-name="Group 1" transform="translate(-1100.022 -594)">
    <path id="Path_2041" data-name="Path 2041" d="M15.009,54.028A15.009,15.009,0,1,1,30.018,39.019h0A15.035,15.035,0,0,1,15.009,54.028Zm0-28.808a13.8,13.8,0,1,0,13.8,13.8,13.8,13.8,0,0,0-13.8-13.8Z" transform="translate(1100.022 575.091)" fill="#fff"/>
    <path id="Path_2042" data-name="Path 2042" d="M21.447,32.31h0A13.247,13.247,0,1,0,34.694,45.557,13.247,13.247,0,0,0,21.447,32.31Zm4.225,13.778-8.194,7.218V46.088h-5.5V40.165h18.98v5.923Z" transform="translate(1093.563 568.553)" fill="#fff"/>
    <path id="Path_2043" data-name="Path 2043" d="M172.275,26.711a1.743,1.743,0,0,1,.531,1.3v.042a1.817,1.817,0,0,1-.531,1.274,1.724,1.724,0,0,1-1.274.552h-1.592a5.539,5.539,0,0,1-4.012-1.656,5.454,5.454,0,0,1-1.656-3.991V11.851H161.7a1.824,1.824,0,0,1-1.274-.531,1.7,1.7,0,0,1-.531-1.274V10a1.868,1.868,0,0,1,.531-1.3,1.709,1.709,0,0,1,1.274-.552h2.038V1.809a1.868,1.868,0,0,1,.531-1.3A1.679,1.679,0,0,1,165.545,0h.064a1.777,1.777,0,0,1,1.8,1.8V8.07h.149v.064H171a1.747,1.747,0,0,1,1.274.552,1.775,1.775,0,0,1,.531,1.3v.042a1.817,1.817,0,0,1-.531,1.274,1.7,1.7,0,0,1-1.274.531h-3.439v.085h-.149v12.27a1.86,1.86,0,0,0,.573,1.38,1.928,1.928,0,0,0,1.4.594h1.592a2.025,2.025,0,0,1,1.3.554Z" transform="translate(974.069 594.001)" fill="#fff"/>
    <path id="Path_2044" data-name="Path 2044" d="M227.056,47.509a9.9,9.9,0,0,0-9.956,9.848v.108a9.673,9.673,0,0,0,9.956,9.681,8.487,8.487,0,0,0,5.838-1.974,2.1,2.1,0,0,0,1.889,1.974,1.911,1.911,0,0,0,1.974-1.845V57.445a9.7,9.7,0,0,0-9.7-9.936Zm0,15.773a5.951,5.951,0,0,1-6.114-5.838,6.2,6.2,0,0,1,6.114-6.114,5.984,5.984,0,0,1,5.838,6.135,5.712,5.712,0,0,1-5.838,5.818Z" transform="translate(929.011 556.581)" fill="#fff"/>
    <path id="Path_2045" data-name="Path 2045" d="M330.693,47.11a9.893,9.893,0,0,0,0,19.786h0a10.19,10.19,0,0,0,5.987-2.038v2.165a6,6,0,0,1-11.4,2.5,1.981,1.981,0,0,0-2.611-.87,1.947,1.947,0,0,0-.921,2.594v.017a9.9,9.9,0,0,0,18.788-4.352V57.024a9.872,9.872,0,0,0-9.829-9.914Zm0,15.858a5.987,5.987,0,1,1,5.987-5.987A5.987,5.987,0,0,1,330.693,62.968Z" transform="translate(847.325 556.895)" fill="#fff"/>
    <path id="Path_2047" data-name="Path 2047" d="M538.293,10.568a9.935,9.935,0,0,0-5.987,2V2.753a1.953,1.953,0,1,0-3.906,0V20.437a9.882,9.882,0,1,0,19.764.008h0a9.787,9.787,0,0,0-9.7-9.872.9.9,0,0,0-.171-.005Zm0,15.858a5.983,5.983,0,1,1,.013,0Z" transform="translate(661.775 593.374)" fill="#fff"/>
    <path id="Path_2048" data-name="Path 2048" d="M642.293,47.11A9.893,9.893,0,1,0,652.186,57v0a9.9,9.9,0,0,0-9.893-9.89Zm0,15.858a5.987,5.987,0,1,1,5.987-5.987,5.987,5.987,0,0,1-5.987,5.987Z" transform="translate(579.853 556.895)" fill="#fff"/>
    <path id="Path_2049" data-name="Path 2049" d="M744.915,56.875l5.2-6.751a1.968,1.968,0,0,0-.357-2.76h0a1.872,1.872,0,0,0-2.637.282c-.019.025-.04.051-.059.079l-4.607,5.944-4.607-5.944a1.911,1.911,0,0,0-2.673-.4l-.045.034a1.962,1.962,0,0,0-.367,2.76h0l5.2,6.751-5.2,6.751a1.911,1.911,0,0,0,.316,2.683l.045.034a1.911,1.911,0,0,0,2.69-.278c.011,0,.019-.023.03-.036l4.607-5.944,4.607,5.944a1.974,1.974,0,0,0,1.529.743,1.848,1.848,0,0,0,1.167-.425,1.911,1.911,0,0,0,.395-2.675l-.034-.042Z" transform="translate(499.542 557.024)" fill="#fff"/>
    <text id="Creators" transform="translate(1256.067 623.108)" fill="#fff" font-size="15" font-family="Comfortaa-Bold, Comfortaa" font-weight="700"><tspan x="0" y="0">Creators</tspan></text>
  </g>
</svg>
