<svg xmlns="http://www.w3.org/2000/svg" width="128" height="128.001" viewBox="0 0 128 128.001">
  <path id="Path_1" data-name="Path 1" d="M-220.865,42V39h6v3Zm-12,0V39h6v3Zm-12,0V39h6v3Zm-12,0V39h6v3Zm-12,0V39h6v3Zm-12,0V39h6v3Zm-12,0V39h6v3Zm-12,0V39h6v3Zm-12,0V39h6v3ZM-324,42h-.524l-.02,0h-.108l-.019,0h-.088l-.019,0h-.02l-.018,0h-.03l-.02,0-.019,0-.02,0-.019,0-.02,0-.009,0h-.01l-.019,0-.01,0-.019,0-.019,0h0l-.019,0-.019,0h-.01l-.01,0h-.01l-.018,0h0l-.02,0-.018,0h0l-.019,0-.019,0-.048-.007-.019,0-.019,0-.019,0-.085-.014-.019,0a7.955,7.955,0,0,1-1.86-.571h0l-.016-.007h0l-.033-.015-.034-.015-.025-.012-.017-.008-.017-.007h0l-.016-.007h0l-.016-.008-.009,0-.008,0-.008,0h0l-.015-.007h0l-.015-.007h0l-.007,0-.007,0h0l-.015-.007,0,0-.007,0-.007,0,0,0-.006,0-.007,0h0l-.007,0-.007,0h0l-.007,0-.008,0h0l-.007,0-.008,0h0l-.006,0,0,0-.007,0h0l-.006,0h0l-.007,0-.007,0,0,0-.006,0-.007,0,0,0-.006,0-.008,0h0l-.006,0-.008,0h0l-.006,0-.008,0-.009,0,0,0-.005,0-.007,0h0l-.005,0-.008,0,0,0-.006,0-.006,0,0,0-.006,0-.007,0-.009,0-.007,0-.009-.005-.006,0-.01-.005-.006,0-.006,0-.006,0-.01,0-.007,0h0l-.007,0-.006,0-.005,0-.007,0-.006,0-.007,0,0,0-.007,0-.006,0,0,0-.008,0-.006,0-.01-.005-.005,0h0l-.009-.005h0l-.014-.008h0l-.014-.008h0l-.015-.008h0l-.015-.009h0l-.072-.042h0c-.158-.095-.312-.194-.464-.3l1.716-2.461A4.963,4.963,0,0,0-324,39h1.136v3Zm113.909-3.377a5,5,0,0,0,2.64-2.544l2.728,1.249c-.073.159-.151.315-.234.469l-.005.01h0a.106.106,0,0,1,0,.01h0l-.005.01h0l-.005.01h0l-.005.011-.005.01h0l-.02.037-.006.01h0l-.005.01v0l-.005.009v0a.036.036,0,0,0,0,.008l0,0,0,.008v0a.036.036,0,0,0,0,.008l0,0,0,.007,0,0,0,.007,0,0,0,.007,0,0,0,.008,0,0,0,.007a0,0,0,0,0,0,0l0,.006,0,0,0,.006,0,0a.015.015,0,0,1,0,.006l0,0,0,.005,0,0,0,0,0,.006,0,0a.015.015,0,0,1,0,.006l0,0a.015.015,0,0,0,0,.006l0,0,0,.006,0,0,0,.007,0,0,0,.007,0,0,0,.006,0,0,0,.006a0,0,0,0,1,0,0,.032.032,0,0,1,0,.007v0a.015.015,0,0,0,0,.006l0,0,0,.006,0,0,0,.006,0,0,0,.006s0,0,0,0a.05.05,0,0,1,0,.007l0,0,0,.006v0l-.005.007s0,0,0,0l-.005.007v0a.02.02,0,0,0,0,.007l0,0-.005.007v0l-.005.007v0l-.005.007v0l-.005.008v0l-.005.008v0l-.005.008v0l-.005.008v0l-.005.008v0l-.005.008v0l-.005.008h0l-.005.009h0l-.005.009h0l-.005.008h0l-.005.009h0a.076.076,0,0,1-.006.009h0l-.006.009h0a.055.055,0,0,0-.006.009h0l-.005.009h0l-.005.009h0l-.006.009h0a.077.077,0,0,0-.006.009l-.006.01h0l-.006.01a.055.055,0,0,1-.006.009,8.039,8.039,0,0,1-2.014,2.059l-.019.014h0l-.019.014-.009.006-.01.007-.019.013h0l-.058.04-.019.013h0l-.009.006h0l-.008.005h0l-.008.005h0l-.009.006h0l-.009.005h0l-.008.005h0l-.008.005h0l-.008.005,0,0-.008,0,0,0-.008.005h0l-.008.005h0l-.008.005h0l-.008.005h0l-.007.005h0l-.008.005h0l-.008.005h0l-.008,0,0,0-.008,0,0,0-.008,0,0,0-.008,0,0,0-.007,0,0,0-.007,0,0,0-.007,0,0,0-.007,0,0,0-.006,0,0,0-.006,0,0,0-.006,0,0,0-.006,0,0,0-.005,0-.005,0,0,0-.005,0,0,0-.005,0,0,0-.005,0,0,0-.006,0,0,0-.006,0,0,0-.005,0,0,0-.006,0,0,0-.007,0,0,0-.007,0,0,0-.026.015h0l-.009.005,0,0-.009,0h0l-.009.005h0l-.009.005h0l-.009,0h0l-.009.005h0l-.009.005h0l-.009,0h0l-.01.005h0l-.01.005-.01.005h0a7.942,7.942,0,0,1-.884.431Zm4.723-.149h0Zm-126.618-4a.016.016,0,0,0,0-.006v-.014h0v-.006h0v-.006a.069.069,0,0,1,0-.014l0-.053h0v-.006a.018.018,0,0,1,0-.006h0v-.013h0a.011.011,0,0,1,0-.005v-.007h0v-.007s0,0,0,0v-.015a.011.011,0,0,0,0-.005h0v-.013h0v-.006c0-.009,0-.018,0-.027s0,0,0-.006v-.027a0,0,0,0,0,0,0v-.033s0,0,0,0v-.042a.016.016,0,0,1,0-.006v-.06a0,0,0,0,1,0,0V29.7h3V34a5.01,5.01,0,0,0,.112,1.059l-2.933.632A8.024,8.024,0,0,1-331.986,34.479ZM-207,31.433v-6h3v6ZM-332,23.7v-6h3v6Zm125-4.271v-6h3v6ZM-332,11.7v-6h3v6Zm125-4.271v-6h3v6ZM-332-.3v-6h3v6Zm125-4.271v-6h3v6Zm-86.412-16.411a14.12,14.12,0,0,1,6.661-12A17.394,17.394,0,0,1-269.5-48.151a17.394,17.394,0,0,1,17.25,15.176,14.12,14.12,0,0,1,6.661,12A14.13,14.13,0,0,1-258.631-6.89l-21.738.041A14.2,14.2,0,0,1-293.412-20.979Zm10.974-11.448-.26,2.048-1.751,1.093a9.771,9.771,0,0,0-4.614,8.308,9.783,9.783,0,0,0,9.024,9.754l.377.028h20.325l.377-.028a9.784,9.784,0,0,0,9.025-9.754,9.772,9.772,0,0,0-4.615-8.308L-256.3-30.38l-.26-2.048A13.047,13.047,0,0,0-269.5-43.8,13.047,13.047,0,0,0-282.438-32.427ZM-332-12.3v-6h3v6Zm60.326-3.247v-8.7H-278.2l8.7-10.868L-260.8-24.24h-6.521v8.7ZM-207-16.568v-6h3v6ZM-332-24.3v-6h3v6Zm125-4.271v-6h3v6ZM-332-36.3v-6h3v6Zm125-4.271v-6h3v6ZM-332-48.3v-6h3v6Zm125-4.271v-6h3v6ZM-332-60.3v-6h3v6Zm125-4.271v-6h3v6ZM-332-72.3v-5.762h0c0-.06,0-.12,0-.18v-.012c0-.015,0-.031,0-.046l3,.109c0,.062,0,.125,0,.187v5.7Zm125-4.271V-78a4.984,4.984,0,0,0-.79-2.7l2.523-1.624a8.03,8.03,0,0,1,.753,1.5h0c0,.005,0,.011.006.015h0l.006.016h0l0,.007,0,.008h0l0,.007h0l.006.016.005.016h0l0,.007h0l0,.007v0a.017.017,0,0,0,0,.006v0l0,.007h0l0,.006a0,0,0,0,0,0,0,.017.017,0,0,1,0,.007h0a.021.021,0,0,1,0,.007v0l.005.015v0a.017.017,0,0,1,0,.006h0l0,.007v0l0,.006v0l0,.007v0a.057.057,0,0,1,0,.006v0l0,.007h0l0,.006v0l0,.005v0l0,.007v0l0,.005v0a.021.021,0,0,1,0,.007v0a.013.013,0,0,1,0,.005,0,0,0,0,1,0,0l0,.007v0a.013.013,0,0,0,0,.005,0,0,0,0,0,0,0,.017.017,0,0,0,0,.006v0a.017.017,0,0,0,0,.006,0,0,0,0,0,0,0l0,.005v0a.028.028,0,0,0,0,.007v0l0,0v0a.021.021,0,0,1,0,.007,0,0,0,0,1,0,0,.007.007,0,0,1,0,0v0l0,.007v0a.013.013,0,0,1,0,.005,0,0,0,0,1,0,0,.013.013,0,0,1,0,.005l0,0s0,0,0,.005a0,0,0,0,1,0,0,.013.013,0,0,1,0,.005v0a.021.021,0,0,1,0,.007l0,0s0,0,0,0,0,0,0,0a.013.013,0,0,1,0,.006l0,0s0,0,0,0v0l0,.006a0,0,0,0,0,0,0s0,0,0,0v0l0,.005v0l0,.005v0s0,0,0,0a0,0,0,0,0,0,0,.017.017,0,0,0,0,.006v0a.007.007,0,0,1,0,0l0,0a.039.039,0,0,1,0,0,.013.013,0,0,1,0,.005,0,0,0,0,1,0,0l0,0a0,0,0,0,0,0,0,.017.017,0,0,0,0,.007v0a.01.01,0,0,1,0,0,0,0,0,0,1,0,0l0,.008v0s0,0,0,.005,0,0,0,0l0,.008a0,0,0,0,0,0,0s0,0,0,0v0a.039.039,0,0,1,0,0h0l0,.009a0,0,0,0,0,0,0s0,0,0,0v0l0,.009v0s0,0,0,0a0,0,0,0,0,0,0s0,.006,0,.009v0s0,0,0,0a0,0,0,0,1,0,0l0,.008s0,0,0,0a.007.007,0,0,0,0,0v0s0,0,0,0v0a.026.026,0,0,1,0,.008v0l0,.005v0l0,.008v0a.039.039,0,0,0,0,0v0l0,.011,0,.005v0c0,.005,0,.011,0,.015v0a.039.039,0,0,1,0,0v0s0,.005,0,.009v0s0,0,0,0v0l0,.008v0s0,0,0,0v0l0,.009v0s0,0,0,.005v0c0,.005,0,.011,0,.015v0s0,0,0,0h0l0,.01v0l0,.005h0l0,.01v0s0,0,0,0v0l0,.008v0l0,0v0s0,.01,0,.015v0l0,.005v0l0,.008v0s0,0,0,0v0l0,.009v0a.008.008,0,0,1,0,0,0,0,0,0,1,0,0l0,.009h0s0,0,0,.005a0,0,0,0,1,0,0v0s0,0,0,0,0,0,0,.007v0s0,0,0,0v0l0,.01v0s0,0,0,0v0l0,.009v0a.007.007,0,0,1,0,0v0l0,.011s0,0,0,.005v0c0,.005,0,.011,0,.016v0s0,0,0,0v0a.026.026,0,0,1,0,.008,0,0,0,0,1,0,0,.039.039,0,0,0,0,0v0a.134.134,0,0,0,0,.016h0a.1.1,0,0,1,0,.016v0a.146.146,0,0,0,0,.017h0a.011.011,0,0,1,0,.005h0a.045.045,0,0,0,0,.011h0l0,.005v0l0,.011s0,0,0,.005v0l0,.016v0s0,0,0,.005h0l0,.01v0s0,0,0,.005v0a.022.022,0,0,0,0,.008v0a.011.011,0,0,1,0,.005s0,0,0,0l0,.007v0a.01.01,0,0,1,0,0,.005.005,0,0,1,0,0,.123.123,0,0,0,0,.015v0a.008.008,0,0,1,0,0v0a.032.032,0,0,0,0,.009v0a.039.039,0,0,1,0,0v0a.032.032,0,0,0,0,.009v0a.039.039,0,0,1,0,0v0a.04.04,0,0,0,0,.009v0s0,0,0,0,0,0,0,0l0,.016a0,0,0,0,0,0,0,.008.008,0,0,0,0,0v0s0,.006,0,.01v0s0,0,0,0v0a.04.04,0,0,0,0,.009v0s0,0,0,0a0,0,0,0,0,0,0l0,.016v0a.1.1,0,0,0,0,.016v0s0,0,0,.005v0a.027.027,0,0,1,0,.009,0,0,0,0,0,0,0,.01.01,0,0,0,0,0v0s0,.007,0,.01v0a.008.008,0,0,1,0,0,0,0,0,0,0,0,0l0,.016v0s0,0,0,0a0,0,0,0,0,0,0s0,.006,0,.009v0a.011.011,0,0,0,0,.005h0s0,.007,0,.011h0s0,0,0,.005v0a.038.038,0,0,1,0,.01v0a.011.011,0,0,1,0,.005v0l0,.015v0s0,0,0,.005v0s0,.005,0,.009v0a.007.007,0,0,1,0,0v0s0,.005,0,.008a0,0,0,0,0,0,0v0a0,0,0,0,1,0,0l0,.016v0a.034.034,0,0,1,0,.009,0,0,0,0,1,0,0,.01.01,0,0,0,0,0v0s0,0,0,0v0s0,.006,0,.009v0s0,0,0,.005v0a.045.045,0,0,1,0,.011s0,0,0,.005v0a.045.045,0,0,1,0,.011h0s0,0,0,.005v0l0,.016v0a.008.008,0,0,1,0,0v0s0,.005,0,.008v0a.04.04,0,0,0,0,0v0s0,.005,0,.009v0s0,0,0,.005v0a.028.028,0,0,1,0,.009s0,0,0,0v0a0,0,0,0,1,0,0c0,.005,0,.011,0,.015a.005.005,0,0,0,0,0v.007s0,.006,0,.008v0a.039.039,0,0,0,0,0v0a.013.013,0,0,1,0,.006.039.039,0,0,1,0,0v0a0,0,0,0,1,0,0s0,0,0,.006v0a.008.008,0,0,1,0,0,.005.005,0,0,0,0,0v0s0,0,0,.005v.005a.007.007,0,0,1,0,0,.005.005,0,0,0,0,0v0s0,.005,0,.007v0a.005.005,0,0,1,0,0v0a.013.013,0,0,1,0,.006v.008a.005.005,0,0,1,0,0v0a.02.02,0,0,1,0,.007v.017a.011.011,0,0,1,0,.005v0a.008.008,0,0,1,0,0v0a.013.013,0,0,1,0,.006.039.039,0,0,1,0,0v0s0,0,0,0v0s0,.005,0,.007v0a.01.01,0,0,1,0,0v0a.02.02,0,0,1,0,.007v0a.011.011,0,0,1,0,.005v0a.02.02,0,0,1,0,.007v0a.01.01,0,0,1,0,0v0a.011.011,0,0,1,0,.005v0a.011.011,0,0,1,0,.005v0a.007.007,0,0,1,0,0v0a.018.018,0,0,1,0,.007v0a.01.01,0,0,1,0,0v0s0,0,0,.007v0s0,0,0,.005v0s0,0,0,.007v0a.015.015,0,0,0,0,.006v0a.015.015,0,0,0,0,.006v.009a.005.005,0,0,1,0,0v0a.005.005,0,0,0,0,0v.007a0,0,0,0,0,0,0v.008a.022.022,0,0,1,0,.007v0s0,0,0,0v0a.018.018,0,0,0,0,.006v.021a.02.02,0,0,1,0,.007v0s0,0,0,.005v0a.018.018,0,0,0,0,.007v.012a.02.02,0,0,1,0,.007v0a.039.039,0,0,1,0,0v.01a0,0,0,0,1,0,0v.009a.011.011,0,0,1,0,.005v0a.025.025,0,0,0,0,.008v.011a.02.02,0,0,1,0,.007v0a.018.018,0,0,0,0,.006v.013a.011.011,0,0,1,0,.005v.022a.018.018,0,0,0,0,.006v.013s0,0,0,.005v.013a.013.013,0,0,1,0,.006v.01h0v.018a.025.025,0,0,1,0,.008v.011a.025.025,0,0,1,0,.008v.011a.025.025,0,0,1,0,.008v.011s0,0,0,.007v.011a.025.025,0,0,0,0,.008h0v.019s0,0,0,.007v.021a.02.02,0,0,1,0,.007v.01h0v.01s0,.005,0,.007h0v.065h0a.02.02,0,0,1,0,.007v.049a.025.025,0,0,1,0,.008h0v.018h0v.017h0v1.5Zm-122.648-7.1a7.994,7.994,0,0,1,3.169-1.943l.012,0,.012,0,.012,0,.012,0h0l.012,0,.03-.009.011,0,.012,0,.012,0,.012,0,.012,0,.012,0,.011,0,.012,0,.011,0,.013,0h0l.017,0,.012,0,.011,0,.012,0,.012,0,.012,0,.011,0,.012,0,.012,0,.011,0,.01,0,.012,0,.012,0,.012,0,.011,0,.012,0,.012,0,.012,0,.011,0,.01,0,.012,0,.012,0,.012,0,.012,0,.012,0,.012,0,.011,0,.012,0,.012,0,.011,0,.011,0,.012,0,.012,0,.012,0,.012,0,.012,0,.012,0,.012,0,.012,0,.011,0,.012,0,.011,0,.012,0,.012,0,.012,0,.012,0,.012,0,.012,0,.012,0,.012,0,.011,0,.011,0,.012,0,.012,0,.012,0,.012,0,.013,0,.012,0,.012,0,.012,0,.012,0,.011,0,.012,0,.012,0,.012,0,.012,0,.012,0,.012,0,.013,0,.012,0,.012,0,.012,0,.012,0,.046-.008.013,0,.012,0,.012,0,.013,0,.011,0,.013,0,.011,0,.059-.01.048-.007a8.145,8.145,0,0,1,.919-.084l.1,3a4.975,4.975,0,0,0-3.359,1.456ZM-212-83h-4v-3h4.453a8.042,8.042,0,0,1,1.526.235l-.74,2.907A5.018,5.018,0,0,0-212-83Zm-16,0v-3h6v3Zm-12,0v-3h6v3Zm-12,0v-3h6v3Zm-12,0v-3h6v3Zm-12,0v-3h6v3Zm-12,0v-3h6v3Zm-12,0v-3h6v3Zm-12,0v-3h6v3Zm-12,0v-3h6v3Z" transform="translate(332 86)" fill="#313a53"/>
</svg>
