<svg xmlns="http://www.w3.org/2000/svg" xmlns:xlink="http://www.w3.org/1999/xlink" width="227.875" height="36.984" viewBox="0 0 227.875 36.984">
  <defs>
    <clipPath id="clip-path">
      <rect id="Rectangle_1" data-name="Rectangle 1" width="227.875" height="36.984" transform="translate(20)" fill="#fff"/>
    </clipPath>
  </defs>
  <g id="suite-logo" transform="translate(-20)" clip-path="url(#clip-path)">
    <path id="Path_1" data-name="Path 1" d="M13.981,32.711a14,14,0,1,1,9.88-4.1A13.981,13.981,0,0,1,13.981,32.711Zm0-26.836a12.854,12.854,0,1,0,4.919.978A12.854,12.854,0,0,0,13.981,5.875Z" transform="translate(21.049 0.162)" fill="#1e1e2d"/>
    <path id="Path_2" data-name="Path 2" d="M13.962,6.39a12.34,12.34,0,1,0,4.722.939A12.34,12.34,0,0,0,13.962,6.39ZM17.9,19.224l-7.633,6.724V19.224H5.142V13.707h17.68v5.517Z" transform="translate(21.049 0.162)" fill="#1e1e2d"/>
    <path id="Path_3" data-name="Path 3" d="M43.15,24.88a1.624,1.624,0,0,1,.494,1.206v.04a1.693,1.693,0,0,1-.494,1.187,1.606,1.606,0,0,1-1.187.514H40.48a5.159,5.159,0,0,1-3.738-1.542A5.08,5.08,0,0,1,35.2,22.567V11.037H33.3a1.7,1.7,0,0,1-1.187-.494,1.582,1.582,0,0,1-.494-1.187v-.04a1.74,1.74,0,0,1,.494-1.206A1.592,1.592,0,0,1,33.3,7.6h1.9V1.683A1.74,1.74,0,0,1,35.693.477,1.564,1.564,0,0,1,36.882,0h.059a1.655,1.655,0,0,1,1.682,1.686V7.515h.138v.059h3.2a1.628,1.628,0,0,1,1.187.514,1.653,1.653,0,0,1,.494,1.206v.04a1.693,1.693,0,0,1-.494,1.187,1.582,1.582,0,0,1-1.187.494h-3.2V11.1h-.138v11.43a1.732,1.732,0,0,0,.534,1.285,1.8,1.8,0,0,0,1.305.554h1.483a1.887,1.887,0,0,1,1.206.516Z" transform="translate(21.049 0.162)" fill="#1e1e2d"/>
    <path id="Path_4" data-name="Path 4" d="M52.208,9.4a9.225,9.225,0,0,0-9.275,9.174v.1a9.011,9.011,0,0,0,9.275,9.018,7.906,7.906,0,0,0,5.438-1.839,1.951,1.951,0,0,0,1.76,1.839,1.78,1.78,0,0,0,1.839-1.719V18.651A9.034,9.034,0,0,0,52.208,9.4Zm0,14.693a5.544,5.544,0,0,1-5.7-5.438,5.772,5.772,0,0,1,5.7-5.7,5.574,5.574,0,0,1,5.438,5.715,5.321,5.321,0,0,1-5.438,5.421Z" transform="translate(21.049 0.162)" fill="#1e1e2d"/>
    <path id="Path_6" data-name="Path 6" d="M93.242,9.317a9.215,9.215,0,1,0,0,18.431,9.523,9.523,0,0,0,5.577-1.9v2.019A5.593,5.593,0,0,1,88.2,30.2a1.845,1.845,0,0,0-2.432-.811,1.8,1.8,0,0,0-.872,2.387l.022.045a9.158,9.158,0,0,0,8.306,5.161,9.251,9.251,0,0,0,9.215-9.215V18.552a9.249,9.249,0,0,0-9.2-9.235Zm0,14.772a5.577,5.577,0,1,1,3.944-1.633A5.577,5.577,0,0,1,93.242,24.089Z" fill="#1e1e2d"/>
    <path id="Path_7" data-name="Path 7" d="M113.709,9.258a9.255,9.255,0,0,0-5.577,1.859V1.977a1.82,1.82,0,0,0-3.639,0V18.45a9.206,9.206,0,1,0,18.411.008,9.116,9.116,0,0,0-9.037-9.2A.841.841,0,0,0,113.709,9.258Zm0,14.772a5.572,5.572,0,1,1,.012,0Z" fill="#1e1e2d"/>
    <path id="Path_8" data-name="Path 8" d="M134.276,9.317a9.222,9.222,0,1,0,6.514,2.7A9.217,9.217,0,0,0,134.276,9.317Zm0,14.772a5.576,5.576,0,1,1,3.944-1.633A5.575,5.575,0,0,1,134.276,24.089Z" fill="#1e1e2d"/>
    <path id="Path_9" data-name="Path 9" d="M155.06,18.537l4.845-6.289a1.829,1.829,0,0,0,.366-1.354,1.832,1.832,0,0,0-.7-1.217,1.744,1.744,0,0,0-2.456.263c-.018.024-.038.047-.055.073l-4.294,5.533-4.291-5.537a1.78,1.78,0,0,0-2.49-.368l-.042.032a1.84,1.84,0,0,0-.475.537,1.835,1.835,0,0,0-.185,1.392,1.84,1.84,0,0,0,.318.642l4.845,6.289L145.6,24.822a1.78,1.78,0,0,0,.295,2.5l.042.032a1.78,1.78,0,0,0,2.506-.259c.01,0,.018-.022.028-.034l4.291-5.537,4.291,5.537a1.841,1.841,0,0,0,1.424.692,1.723,1.723,0,0,0,1.088-.4,1.778,1.778,0,0,0,.467-.515,1.777,1.777,0,0,0,.2-1.349,1.772,1.772,0,0,0-.3-.628l-.032-.04Z" fill="#1e1e2d"/>
    <path id="Path_10" data-name="Path 10" d="M172.28,26.24a5.9,5.9,0,0,1-2.55-.525,4.3,4.3,0,0,1-1.74-1.485,3.872,3.872,0,0,1-.615-2.16V15.065a.723.723,0,0,1,.225-.555.754.754,0,0,1,.555-.225.768.768,0,0,1,.78.78V22.07a2.536,2.536,0,0,0,.42,1.44,3.013,3.013,0,0,0,1.185.975,4.19,4.19,0,0,0,1.74.345,3.811,3.811,0,0,0,1.665-.345,2.8,2.8,0,0,0,1.14-.975,2.536,2.536,0,0,0,.42-1.44V15.065a.723.723,0,0,1,.225-.555.754.754,0,0,1,.555-.225.723.723,0,0,1,.555.225.75.75,0,0,1,.21.555V22.07a3.872,3.872,0,0,1-.615,2.16,4.122,4.122,0,0,1-1.68,1.485A5.592,5.592,0,0,1,172.28,26.24Z" fill="#1e1e2d"/>
    <path id="Path_11" data-name="Path 11" d="M185.3,26.15a5.8,5.8,0,0,1-2.28-.45,5.918,5.918,0,0,1-1.845-1.275,6.19,6.19,0,0,1-1.23-1.92,6.361,6.361,0,0,1-.435-2.37,6.2,6.2,0,0,1,.435-2.34,6.007,6.007,0,0,1,1.23-1.9,5.8,5.8,0,0,1,1.845-1.29,5.567,5.567,0,0,1,2.28-.465,5.81,5.81,0,0,1,1.98.3,5.686,5.686,0,0,1,1.68.99.654.654,0,0,1,.18.195.387.387,0,0,1,.09.195.721.721,0,0,1,.03.225.629.629,0,0,1-.21.48.725.725,0,0,1-.5.21.77.77,0,0,1-.54-.195,4.4,4.4,0,0,0-1.155-.735,4.405,4.405,0,0,0-3.225.1,4.487,4.487,0,0,0-1.38.99,4.618,4.618,0,0,0-.915,1.47,4.721,4.721,0,0,0-.33,1.77,4.878,4.878,0,0,0,.33,1.8,4.66,4.66,0,0,0,.915,1.455,4.487,4.487,0,0,0,1.38.99,4.192,4.192,0,0,0,3.1.09,5.743,5.743,0,0,0,1.32-.735.743.743,0,0,1,.525-.165.638.638,0,0,1,.45.21.69.69,0,0,1,.18.51.8.8,0,0,1-.06.3.6.6,0,0,1-.18.255,5.64,5.64,0,0,1-1.725.99A6.037,6.037,0,0,1,185.3,26.15Zm3.915-1.86-1.5-.3V21.305h-2.07a.818.818,0,0,1-.555-.195.657.657,0,0,1,0-.99.818.818,0,0,1,.555-.2h2.8a.723.723,0,0,1,.555.225.75.75,0,0,1,.21.555Z" fill="#1e1e2d"/>
    <path id="Path_12" data-name="Path 12" d="M196.956,26.15a5.8,5.8,0,0,1-2.28-.45,5.918,5.918,0,0,1-1.845-1.275,6.191,6.191,0,0,1-1.23-1.92,6.361,6.361,0,0,1-.435-2.37,6.2,6.2,0,0,1,.435-2.34,6.007,6.007,0,0,1,1.23-1.9,5.8,5.8,0,0,1,1.845-1.29,5.567,5.567,0,0,1,2.28-.465,5.81,5.81,0,0,1,1.98.3,5.686,5.686,0,0,1,1.68.99.654.654,0,0,1,.18.195.387.387,0,0,1,.09.195.721.721,0,0,1,.03.225.629.629,0,0,1-.21.48.812.812,0,0,1-.48.21.822.822,0,0,1-.555-.195,4.4,4.4,0,0,0-1.155-.735,4.405,4.405,0,0,0-3.225.1,4.488,4.488,0,0,0-1.38.99,4.618,4.618,0,0,0-.915,1.47,4.721,4.721,0,0,0-.33,1.77,4.878,4.878,0,0,0,.33,1.8,4.66,4.66,0,0,0,.915,1.455,4.488,4.488,0,0,0,1.38.99,4.192,4.192,0,0,0,3.1.09,5.743,5.743,0,0,0,1.32-.735.743.743,0,0,1,.525-.165.638.638,0,0,1,.45.21.69.69,0,0,1,.18.51.8.8,0,0,1-.06.3.851.851,0,0,1-.18.255,6.006,6.006,0,0,1-1.74.975A5.66,5.66,0,0,1,196.956,26.15Z" fill="#1e1e2d"/>
    <path id="Path_13" data-name="Path 13" d="M211.481,26.15a5.574,5.574,0,0,1-1.83-.3,4.741,4.741,0,0,1-1.515-.84,3.306,3.306,0,0,1-.945-1.245.607.607,0,0,1,0-.585.773.773,0,0,1,.54-.345.7.7,0,0,1,.525.09.871.871,0,0,1,.4.42,1.965,1.965,0,0,0,.585.69,3.512,3.512,0,0,0,1.005.51,3.864,3.864,0,0,0,1.23.195,3.732,3.732,0,0,0,1.32-.225,2.4,2.4,0,0,0,.99-.645,1.575,1.575,0,0,0,.375-1.065,1.966,1.966,0,0,0-.63-1.425,3.271,3.271,0,0,0-2.04-.78,5.135,5.135,0,0,1-2.925-1.1,2.87,2.87,0,0,1-1.065-2.265,2.6,2.6,0,0,1,.555-1.68,3.451,3.451,0,0,1,1.5-1.05,6.025,6.025,0,0,1,2.13-.36,4.494,4.494,0,0,1,1.59.255,3.766,3.766,0,0,1,1.2.7,4.606,4.606,0,0,1,.885,1.065.913.913,0,0,1,.165.63.59.59,0,0,1-.285.45.7.7,0,0,1-.615.075.846.846,0,0,1-.495-.39,2.674,2.674,0,0,0-.585-.735,2.488,2.488,0,0,0-.81-.465,3.027,3.027,0,0,0-1.1-.18,3.558,3.558,0,0,0-1.86.42,1.4,1.4,0,0,0-.75,1.305,1.819,1.819,0,0,0,.225.87,1.943,1.943,0,0,0,.855.7,5.672,5.672,0,0,0,1.8.42,4.657,4.657,0,0,1,2.775,1.095A3.046,3.046,0,0,1,215.7,22.76a2.943,2.943,0,0,1-.36,1.485,3.206,3.206,0,0,1-.945,1.065,4.2,4.2,0,0,1-1.35.63A5.759,5.759,0,0,1,211.481,26.15Z" fill="#1e1e2d"/>
    <path id="Path_14" data-name="Path 14" d="M221.388,26.075a3.926,3.926,0,0,1-1.86-.435,3.305,3.305,0,0,1-1.29-1.305,4.346,4.346,0,0,1-.465-2.1v-3.69a.731.731,0,0,1,.21-.54.754.754,0,0,1,.555-.225.768.768,0,0,1,.765.765v3.69a2.8,2.8,0,0,0,.315,1.395,2.021,2.021,0,0,0,.855.81,2.811,2.811,0,0,0,1.215.255,2.455,2.455,0,0,0,1.14-.255,2.105,2.105,0,0,0,.81-.69,1.678,1.678,0,0,0,.3-.975h.945a3.124,3.124,0,0,1-.465,1.68,3.228,3.228,0,0,1-1.245,1.185A3.6,3.6,0,0,1,221.388,26.075ZM224.7,26a.722.722,0,0,1-.765-.765v-6.69a.75.75,0,0,1,.21-.555.783.783,0,0,1,.555-.21.722.722,0,0,1,.765.765v6.69a.783.783,0,0,1-.21.555A.75.75,0,0,1,224.7,26Z" fill="#1e1e2d"/>
    <path id="Path_15" data-name="Path 15" d="M229.077,26a.722.722,0,0,1-.765-.765V18.56a.75.75,0,0,1,.21-.555.783.783,0,0,1,.555-.21.722.722,0,0,1,.765.765v6.675a.783.783,0,0,1-.21.555A.75.75,0,0,1,229.077,26Zm0-9.54a.974.974,0,0,1-.989-.99.94.94,0,0,1,.285-.69.963.963,0,0,1,.7-.3,1.024,1.024,0,0,1,.99.99.964.964,0,0,1-.3.7A.942.942,0,0,1,229.077,16.46Z" fill="#1e1e2d"/>
    <path id="Path_16" data-name="Path 16" d="M235.674,26a2.5,2.5,0,0,1-1.35-.375,2.741,2.741,0,0,1-.945-1.05,3.157,3.157,0,0,1-.345-1.485V15.935a.75.75,0,1,1,1.5,0V23.09a1.539,1.539,0,0,0,.33,1,1.008,1.008,0,0,0,.81.405h.51a.568.568,0,0,1,.45.21.762.762,0,0,1,.195.54.668.668,0,0,1-.255.54.922.922,0,0,1-.63.21Zm-3.33-6.615a.722.722,0,0,1-.51-.18.587.587,0,0,1-.195-.45.622.622,0,0,1,.195-.48.722.722,0,0,1,.51-.18h3.465a.722.722,0,0,1,.51.18.622.622,0,0,1,.2.48.587.587,0,0,1-.2.45.722.722,0,0,1-.51.18Z" fill="#1e1e2d"/>
    <path id="Path_17" data-name="Path 17" d="M242.564,26.06a4.608,4.608,0,0,1-2.22-.525,4.035,4.035,0,0,1-1.515-1.47,4.276,4.276,0,0,1-.54-2.16,4.421,4.421,0,0,1,.51-2.16,3.77,3.77,0,0,1,1.44-1.47,4.053,4.053,0,0,1,2.1-.54,3.716,3.716,0,0,1,2.01.525,3.268,3.268,0,0,1,1.275,1.425,4.6,4.6,0,0,1,.45,2.085.652.652,0,0,1-.2.48.7.7,0,0,1-.495.18h-6.045v-1.2h6l-.615.42a3.158,3.158,0,0,0-.3-1.335,2.178,2.178,0,0,0-2.085-1.29,2.77,2.77,0,0,0-1.47.375,2.422,2.422,0,0,0-.915,1.035,3.308,3.308,0,0,0-.315,1.47,2.87,2.87,0,0,0,.375,1.47,2.74,2.74,0,0,0,1.035,1.02,3.013,3.013,0,0,0,1.515.375,2.9,2.9,0,0,0,.945-.165,3.088,3.088,0,0,0,.795-.4.8.8,0,0,1,.48-.165.638.638,0,0,1,.465.15.711.711,0,0,1,.27.5.532.532,0,0,1-.24.465,4.134,4.134,0,0,1-1.275.66A4.468,4.468,0,0,1,242.564,26.06Z" fill="#1e1e2d"/>
  </g>
</svg>
