<svg xmlns="http://www.w3.org/2000/svg" width="113.176" height="30.095" viewBox="0 0 113.176 30.095">
  <g id="taggbox-dark" transform="translate(-22.912 -0.867)">
    <path id="Path_1" data-name="Path 1" d="M11.354,27.463a11.376,11.376,0,1,1,8.028-3.332,11.376,11.376,0,0,1-8.028,3.332Zm0-21.807a10.445,10.445,0,1,0,4,.8,10.445,10.445,0,0,0-4-.8Z" transform="translate(22.951 -3.843)" fill="#1e1e2d"/>
    <path id="Path_2" data-name="Path 2" d="M11.649,6.39a10.027,10.027,0,1,0,3.837.763,10.027,10.027,0,0,0-3.837-.763Zm3.2,10.429-6.2,5.464V16.819H4.482V12.336H18.849v4.483Z" transform="translate(22.64 -4.157)" fill="#1e1e2d"/>
    <path id="Path_3" data-name="Path 3" d="M40.989,20.217a1.32,1.32,0,0,1,.4.98v.033a1.376,1.376,0,0,1-.4.965,1.3,1.3,0,0,1-.965.418h-1.2a4.192,4.192,0,0,1-3.037-1.253,4.128,4.128,0,0,1-1.253-3.021V8.968H32.985a1.381,1.381,0,0,1-.965-.4,1.286,1.286,0,0,1-.4-.965V7.57a1.414,1.414,0,0,1,.4-.98,1.294,1.294,0,0,1,.965-.414h1.544V1.367a1.414,1.414,0,0,1,.4-.98A1.271,1.271,0,0,1,35.9,0h.048A1.345,1.345,0,0,1,37.31,1.37V6.106h.112v.048h2.6a1.323,1.323,0,0,1,.964.418,1.343,1.343,0,0,1,.4.98v.033a1.376,1.376,0,0,1-.4.965,1.286,1.286,0,0,1-.965.4h-2.6v.07H37.31v9.288a1.407,1.407,0,0,0,.434,1.044,1.463,1.463,0,0,0,1.06.45H40.01a1.533,1.533,0,0,1,.98.419Z" transform="translate(17.019 1.04)" fill="#1e1e2d"/>
    <path id="Path_4" data-name="Path 4" d="M50.47,9.4a7.5,7.5,0,0,0-7.537,7.455v.081a7.322,7.322,0,0,0,7.537,7.328,6.424,6.424,0,0,0,4.419-1.494,1.585,1.585,0,0,0,1.43,1.494,1.446,1.446,0,0,0,1.494-1.4v-5.95A7.341,7.341,0,0,0,50.47,9.4Zm0,11.939a4.5,4.5,0,0,1-4.632-4.419,4.69,4.69,0,0,1,4.632-4.632,4.529,4.529,0,0,1,4.419,4.644,4.324,4.324,0,0,1-4.419,4.4Z" transform="translate(14.898 -0.722)" fill="#1e1e2d"/>
    <path id="Path_6" data-name="Path 6" d="M91.515,9.317a7.488,7.488,0,1,0,0,14.977,7.738,7.738,0,0,0,4.532-1.544v1.641a4.545,4.545,0,0,1-8.629,1.9,1.5,1.5,0,0,0-1.976-.659,1.463,1.463,0,0,0-.709,1.94l.018.037A7.442,7.442,0,0,0,91.5,31.8a7.517,7.517,0,0,0,7.488-7.488V16.821a7.516,7.516,0,0,0-7.476-7.5Zm0,12a4.532,4.532,0,1,1,3.2-1.327,4.532,4.532,0,0,1-3.2,1.327Z" transform="translate(-9.907 -0.838)" fill="#1e1e2d"/>
    <path id="Path_7" data-name="Path 7" d="M111.982,7.56a7.521,7.521,0,0,0-4.532,1.511V1.644a1.479,1.479,0,0,0-2.957,0V15.03a7.481,7.481,0,1,0,7.617-7.47.683.683,0,0,0-.128,0Zm0,12a4.529,4.529,0,1,1,.01,0Z" transform="translate(-13.743 0.871)" fill="#1e1e2d"/>
    <path id="Path_8" data-name="Path 8" d="M132.547,9.317a7.494,7.494,0,1,0,5.293,2.194,7.494,7.494,0,0,0-5.293-2.194Zm0,12a4.531,4.531,0,1,1,3.2-1.327,4.531,4.531,0,0,1-3.2,1.327Z" transform="translate(-17.594 -0.838)" fill="#1e1e2d"/>
    <path id="Path_9" data-name="Path 9" d="M153.215,16.8l3.937-5.11a1.489,1.489,0,0,0-.271-2.089,1.417,1.417,0,0,0-2,.214c-.015.019-.031.038-.045.059l-3.489,4.5-3.487-4.5a1.446,1.446,0,0,0-2.023-.3L145.8,9.6a1.484,1.484,0,0,0-.278,2.089l3.937,5.11-3.938,5.11a1.446,1.446,0,0,0,.24,2.031l.034.026a1.446,1.446,0,0,0,2.036-.21c.008,0,.015-.018.023-.028l3.487-4.5,3.487,4.5a1.5,1.5,0,0,0,1.157.562,1.4,1.4,0,0,0,.884-.325,1.442,1.442,0,0,0,.3-2.025l-.026-.033Z" transform="translate(-21.374 -0.832)" fill="#1e1e2d"/>
  </g>
</svg>
