<svg xmlns="http://www.w3.org/2000/svg" xmlns:xlink="http://www.w3.org/1999/xlink" width="162" height="47" viewBox="0 0 162 47">
  <defs>
    <clipPath id="clip-path">
      <rect id="Rectangle_2758" data-name="Rectangle 2758" width="114" height="30.484"/>
    </clipPath>
  </defs>
  <g id="Group_8065" data-name="Group 8065" transform="translate(16912 -6827)">
    <rect id="Rectangle_2778" data-name="Rectangle 2778" width="162" height="47" transform="translate(-16912 6827)" fill="none"/>
    <g id="_6connex_logo" data-name="6connex_logo" transform="translate(-16888 6835)">
      <g id="Group_2603" data-name="Group 2603">
        <g id="Group_2602" data-name="Group 2602" clip-path="url(#clip-path)">
          <path id="Path_9071" data-name="Path 9071" d="M29.853,30.484H3.154A3.163,3.163,0,0,1,0,27.331V3.154A3.163,3.163,0,0,1,3.154,0h26.7a3.163,3.163,0,0,1,3.154,3.154V27.331a3.129,3.129,0,0,1-3.154,3.154" fill="#29bcb3"/>
        </g>
      </g>
      <g id="Group_2605" data-name="Group 2605">
        <g id="Group_2604" data-name="Group 2604" clip-path="url(#clip-path)">
          <path id="Path_9072" data-name="Path 9072" d="M95.4,2.2h5.519l4.573,16.609V2.2h3.994V30.477h-4.573L99.342,10.189V30.477H95.4Z" transform="translate(-45.259 -1.044)" fill="#273c86"/>
        </g>
      </g>
      <g id="Group_2607" data-name="Group 2607">
        <g id="Group_2606" data-name="Group 2606" clip-path="url(#clip-path)">
          <path id="Path_9073" data-name="Path 9073" d="M127.7,2.2h5.519l4.573,16.609V2.2h3.942V30.477h-4.52l-5.571-20.288V30.477H127.7Z" transform="translate(-60.582 -1.044)" fill="#273c86"/>
        </g>
      </g>
      <g id="Group_2609" data-name="Group 2609">
        <g id="Group_2608" data-name="Group 2608" clip-path="url(#clip-path)">
          <path id="Path_9074" data-name="Path 9074" d="M171.941,6.247V2.2H159.8V30.477h12.141V26.482H164.32V18.125h6.1V14.078h-6.1V6.247Z" transform="translate(-75.811 -1.044)" fill="#273c86"/>
        </g>
      </g>
      <g id="Group_2611" data-name="Group 2611">
        <g id="Group_2610" data-name="Group 2610" clip-path="url(#clip-path)">
          <path id="Path_9075" data-name="Path 9075" d="M186.32,2.2h4.573L194.2,12.449,197.778,2.2h3.942l-4.467,13.613,4.941,14.664h-4.678l-3.784-11.248-3.574,11.248H185.9l5.046-14.664Z" transform="translate(-88.193 -1.044)" fill="#273c86"/>
        </g>
      </g>
      <g id="Group_2613" data-name="Group 2613">
        <g id="Group_2612" data-name="Group 2612" clip-path="url(#clip-path)">
          <path id="Path_9076" data-name="Path 9076" d="M72.028,1.5c-3,0-6.728,1.209-6.728,6.675v15.61c0,5.466,3.679,6.675,6.728,6.675,3,0,6.728-1.209,6.728-6.675V8.175c0-5.466-3.732-6.675-6.728-6.675m2.26,15.189v7.148a2.279,2.279,0,1,1-4.52,0V8.122a2.279,2.279,0,1,1,4.52,0v8.567Z" transform="translate(-30.979 -0.712)" fill="#273c86"/>
        </g>
      </g>
      <g id="Group_2615" data-name="Group 2615">
        <g id="Group_2614" data-name="Group 2614" clip-path="url(#clip-path)">
          <path id="Path_9077" data-name="Path 9077" d="M43.788,19.528v4.2a2.279,2.279,0,1,1-4.52,0V8.122a2.279,2.279,0,1,1,4.52,0v3.206H48.2V8.122c0-5.414-3.679-6.622-6.728-6.622S34.8,2.709,34.8,8.175v15.61c0,5.466,3.679,6.675,6.728,6.675s6.728-1.209,6.728-6.675v-4.2H43.788Z" transform="translate(-16.51 -0.712)" fill="#fff"/>
        </g>
      </g>
      <g id="Group_2617" data-name="Group 2617">
        <g id="Group_2616" data-name="Group 2616" clip-path="url(#clip-path)">
          <path id="Path_9078" data-name="Path 9078" d="M11.228,12.754A7.211,7.211,0,0,0,7.6,13.6C9.809,8.129,15.591,5.08,15.591,5.08L13.015,2.4c-3,.893-5.151,2.418-8.3,6.622C1.558,13.175,1.4,16.223,1.4,20.9c0,4.152,2.786,9.881,8.988,9.881s8.935-3.994,8.935-9.776a8.084,8.084,0,0,0-8.094-8.252M10.44,26.577c-3.048,0-3.994-2.523-3.994-4.835,0-2.365.841-4.625,3.994-4.625,2.418,0,3.837,2,3.837,4.52s-.788,4.941-3.837,4.941" transform="translate(-0.664 -1.139)" fill="#fff"/>
        </g>
      </g>
    </g>
  </g>
</svg>
