<svg xmlns="http://www.w3.org/2000/svg" width="162" height="47" viewBox="0 0 162 47">
  <g id="Group_8067" data-name="Group 8067" transform="translate(16912 -7003)">
    <rect id="Rectangle_2780" data-name="Rectangle 2780" width="162" height="47" transform="translate(-16912 7003)" fill="none"/>
    <g id="Group_2623" data-name="Group 2623" transform="translate(-2460 5193)">
      <path id="Path_9092" data-name="Path 9092" d="M18.155-25.686H4.57V-44.542H17.7v3.276H8.569v4.14h8.2v3.276h-8.2v4.862h9.586ZM34.581-44.777h3.661L30.507-25.686H26.725L19.031-44.777h3.72l4.794,11.592a16.123,16.123,0,0,0,.823,2.144c.221.419.212.458.233.479.125-.415.29-.651,1.033-2.623ZM49.372-27.5,43.016-40.48H42.9q.245,4.514.245,6.023v8.77H39.572V-44.542h5.443l5.371,12.149h.077L56.1-44.542h5.443v18.856H57.82v-8.925q0-.632.019-1.457t.174-4.385H57.9L51.673-27.5Zm27.486,1.817H63.727V-44.542h13.13v3.276H67.726v4.14h8.2v3.276h-8.2v4.862h9.132Z" transform="translate(-14382.596 1869.616)" fill="#e4e6ef"/>
      <path id="Path_9091" data-name="Path 9091" d="M-75.909-150.693a7.18,7.18,0,0,0-4.828-1.568c-4.128.084-6.775,2.994-6.5,7.211a6.281,6.281,0,0,0,7.341,5.829c.075-.009.15-.018.225-.03,3.131-.481,3.243-.61,3.243-3.748v-2.242h2.968c0,1.95.022,3.871-.024,5.789a1.461,1.461,0,0,1-.52.821c-2.777,2.658-8.428,3.083-12.034.922a9.425,9.425,0,0,1-4.011-10.8,9.419,9.419,0,0,1,8.918-6.672,9.522,9.522,0,0,1,6.809,2.271Z" transform="translate(-14307.512 1980.257)" stroke="#e4e6ef" stroke-width="2" fill="#e4e6ef"/>
      <circle id="Ellipse_436" data-name="Ellipse 436" cx="15.939" cy="15.939" r="15.939" transform="translate(-14436 1818)" fill="#fdac00"/>
      <path id="Path_9093" data-name="Path 9093" d="M-75-150.41a7.631,7.631,0,0,0-5.132-1.667c-4.387.089-7.2,3.183-6.909,7.665.261,4.005,3.636,6.685,7.8,6.2.08-.009.16-.02.239-.032,3.329-.511,3.447-.649,3.447-3.984v-2.383h3.155c0,2.073.023,4.114-.026,6.154a1.553,1.553,0,0,1-.553.872c-2.952,2.825-8.958,3.277-12.792.98s-5.5-6.815-4.263-11.48a10.012,10.012,0,0,1,9.479-7.092,10.121,10.121,0,0,1,7.237,2.414Z" transform="translate(-14339.217 1979.541)" fill="#fff"/>
    </g>
  </g>
</svg>
