<svg xmlns="http://www.w3.org/2000/svg" width="162" height="47" viewBox="0 0 162 47">
  <g id="Group_8066" data-name="Group 8066" transform="translate(16926 -6915)">
    <rect id="Rectangle_2779" data-name="Rectangle 2779" width="162" height="47" transform="translate(-16926 6915)" fill="none"/>
    <path id="_60efea7a13f75e680dcb834a_zuddl_logo" data-name="60efea7a13f75e680dcb834a_zuddl logo" d="M19.434,25.786H8.514a.592.592,0,0,1-.67-.631c0-.315.237-.552.591-.749l6.189-3.233c3.351-1.735,4.691-3.745,4.691-5.716,0-2.4-1.3-4.928-5.756-4.928H1.5v5.243H11.786a.592.592,0,0,1,.67.631.874.874,0,0,1-.591.749L5.005,20.661C1.97,22.2.984,23.973.984,25.826c0,2.484,1.3,5.2,5.756,5.2H19.434ZM41.505,21.8V10.53H35.592V21.8a3.56,3.56,0,0,1-3.785,3.863A3.56,3.56,0,0,1,28.023,21.8V10.53H22.109V21.8c0,6.11,4.1,9.619,9.7,9.619S41.505,27.915,41.505,21.8ZM54.132,10.136c-5.559,0-9.934,4.494-9.934,10.644A10.432,10.432,0,0,0,55.039,31.424c6.229,0,10.841-4.494,10.841-10.6V.28H59.967V12.5A7.2,7.2,0,0,0,54.132,10.136ZM59.888,20.78a4.7,4.7,0,0,1-4.809,4.888A4.767,4.767,0,0,1,50.19,20.78a4.767,4.767,0,0,1,4.888-4.888A4.7,4.7,0,0,1,59.888,20.78ZM78.32,10.136c-5.559,0-9.934,4.494-9.934,10.644A10.432,10.432,0,0,0,79.226,31.424c6.229,0,10.841-4.494,10.841-10.6V.28H84.154V12.5A7.2,7.2,0,0,0,78.32,10.136ZM84.075,20.78a4.7,4.7,0,0,1-4.81,4.888,4.767,4.767,0,0,1-4.888-4.888,4.767,4.767,0,0,1,4.888-4.888A4.7,4.7,0,0,1,84.075,20.78Zm10-20.5V31.029h5.913V.28Z" transform="translate(-16894.984 6922.72)" fill="#1a4788"/>
  </g>
</svg>
